<svg width="50" height="74" viewBox="0 0 50 74" fill="none" xmlns="http://www.w3.org/2000/svg">
<g id="Clip path group">
<mask id="mask0_8012_183" style="mask-type:luminance" maskUnits="userSpaceOnUse" x="0" y="0" width="50" height="74">
<g id="clip0">
<path id="Vector" d="M50 0H0V74H50V0Z" fill="white"/>
</g>
</mask>
<g mask="url(#mask0_8012_183)">
<g id="Group">
<path id="Vector_2" d="M25.9083 -5.82321e-06C23.1091 0.000799711 20.4248 1.1005 18.4454 3.05736C16.4661 5.01421 15.3538 7.66807 15.3529 10.4355V15.1761H10.5578C9.17068 15.175 7.7969 15.4443 6.51511 15.9686C5.23333 16.4929 4.0687 17.262 3.08785 18.2317C2.10701 19.2014 1.3292 20.3529 0.798933 21.6201C0.268667 22.8874 -0.00364963 24.2456 -0.00243689 25.617V36.0488H15.3505V45.5301H10.5554C7.75537 45.5298 5.06987 46.629 3.08951 48.5859C1.10914 50.5429 -0.00393524 53.1972 -0.00491333 55.9654V73.9943H10.5603C11.9462 73.9938 13.3183 73.7233 14.5984 73.198C15.8784 72.6733 17.0413 71.9041 18.0207 70.9348C19.0001 69.9655 19.7767 68.8148 20.3063 67.5485C20.8358 66.2822 21.1079 64.9257 21.1071 63.5556H21.1206V56.6679L21.0923 56.6716V12.7906L21.1157 12.7961V10.4373C21.1181 9.17954 21.6237 7.97381 22.5221 7.08326C23.4204 6.19271 24.6386 5.68966 25.9108 5.68388H44.2484V10.4373C44.2445 11.6944 43.7372 12.8989 42.8374 13.7873C41.9377 14.6757 40.7187 15.1757 39.4471 15.1779H23.2858V20.8679H39.4446C42.2438 20.8681 44.9285 19.7689 46.9079 17.8122C48.8875 15.8555 49.9997 13.2017 50 10.4343V-0.0012207L25.9083 -5.82321e-06ZM15.3529 30.3582H5.75905V25.6176C5.76116 24.3584 6.26732 23.1512 7.167 22.2598C8.06663 21.3685 9.28663 20.8654 10.5603 20.8606H15.3554L15.3529 30.3582ZM15.3529 63.5608C15.3508 64.8178 14.8451 66.0232 13.9465 66.9122C13.0478 67.8018 11.8294 68.3031 10.5578 68.3062H5.75658V55.9686C5.75774 54.7106 6.26416 53.5047 7.16447 52.6156C8.06484 51.7266 9.28537 51.2275 10.5578 51.228H15.3529V63.5608ZM23.2858 36.0482H35.3965V40.7937C35.3918 42.0507 34.8842 43.2547 33.9846 44.1429C33.0851 45.0311 31.8666 45.5313 30.5952 45.5343H23.2858V51.228H30.5977C31.9841 51.2287 33.3569 50.9593 34.6379 50.4351C35.9188 49.9109 37.0828 49.1423 38.0631 48.1731C39.0434 47.2039 39.8208 46.0532 40.3511 44.7868C40.8813 43.5204 41.1538 42.1631 41.1531 40.7925H41.1579V30.357H23.2858V36.0482Z" fill="#A78BFA"/>
</g>
</g>
</g>
</svg>
