<svg width="626" height="318" viewBox="0 0 626 318" fill="none" xmlns="http://www.w3.org/2000/svg">
<rect width="626" height="318" rx="16" fill="#F9FAFB"/>
<path d="M50.248 39.864H58.312V57H54.736V50.544H50.104L47.8 57H44.2L46.768 49.776C45.072 48.88 44.224 47.352 44.224 45.192C44.224 43.512 44.752 42.208 45.808 41.28C46.864 40.336 48.344 39.864 50.248 39.864ZM54.736 47.496V43.008H51.112C49.928 43.008 49.088 43.184 48.592 43.536C48.112 43.872 47.872 44.44 47.872 45.24C47.872 45.992 48.096 46.56 48.544 46.944C48.992 47.312 49.728 47.496 50.752 47.496H54.736ZM73.3611 61.8H70.0011L72.6171 55.728L67.3851 44.664H70.8891L73.9611 51.24H74.5851L77.4171 44.664H80.8011L73.3611 61.8ZM87.6831 52.104L85.4511 57H82.0431L84.9471 50.664L82.2351 44.664H85.5951L87.6831 49.296H90.0591V44.664H93.1791V49.296H95.5311L97.6191 44.664H101.003L98.2671 50.664L101.195 57H97.7631L95.5311 52.104H93.1791V57H90.0591V52.104H87.6831ZM114.912 50.208V51.216H106.08C106.176 53.424 107.176 54.528 109.08 54.528C110.296 54.528 111.064 54.096 111.384 53.232H114.792C114.536 54.512 113.92 55.512 112.944 56.232C111.968 56.952 110.664 57.312 109.032 57.312C107.096 57.312 105.56 56.72 104.424 55.536C103.304 54.352 102.744 52.768 102.744 50.784C102.744 48.816 103.304 47.256 104.424 46.104C105.544 44.936 107.056 44.352 108.96 44.352C110.784 44.352 112.224 44.896 113.28 45.984C114.336 47.072 114.88 48.48 114.912 50.208ZM111.48 48.984C111.256 47.576 110.408 46.872 108.936 46.872C107.464 46.872 106.552 47.576 106.2 48.984H111.48ZM136.296 57H132.936V52.08H127.8V57H124.44V44.664H127.8V49.272H132.936V44.664H136.296V57ZM151.311 50.208V51.216H142.479C142.575 53.424 143.575 54.528 145.479 54.528C146.695 54.528 147.463 54.096 147.783 53.232H151.191C150.935 54.512 150.319 55.512 149.343 56.232C148.367 56.952 147.063 57.312 145.431 57.312C143.495 57.312 141.959 56.72 140.823 55.536C139.703 54.352 139.143 52.768 139.143 50.784C139.143 48.816 139.703 47.256 140.823 46.104C141.943 44.936 143.455 44.352 145.359 44.352C147.183 44.352 148.623 44.896 149.679 45.984C150.735 47.072 151.279 48.48 151.311 50.208ZM147.879 48.984C147.655 47.576 146.807 46.872 145.335 46.872C143.863 46.872 142.951 47.576 142.599 48.984H147.879ZM162.007 52.848H165.319C165.159 54.192 164.559 55.272 163.519 56.088C162.495 56.904 161.215 57.312 159.679 57.312C157.775 57.312 156.263 56.728 155.143 55.56C154.023 54.376 153.463 52.8 153.463 50.832C153.463 48.88 154.023 47.312 155.143 46.128C156.263 44.944 157.775 44.352 159.679 44.352C161.215 44.352 162.479 44.744 163.471 45.528C164.479 46.296 165.063 47.32 165.223 48.6H161.887C161.615 47.64 160.887 47.16 159.703 47.16C158.711 47.16 157.983 47.496 157.519 48.168C157.055 48.84 156.823 49.72 156.823 50.808C156.823 51.896 157.055 52.792 157.519 53.496C157.999 54.184 158.727 54.528 159.703 54.528C161.031 54.528 161.799 53.968 162.007 52.848ZM176.695 57L174.199 52.08H171.511V57H168.151V44.664H171.511V49.272H174.247L176.599 44.664H180.031L177.007 50.616L180.223 57H176.695ZM188.159 44.352C190.111 44.352 191.663 44.944 192.815 46.128C193.967 47.312 194.543 48.88 194.543 50.832C194.543 52.784 193.967 54.352 192.815 55.536C191.663 56.72 190.111 57.312 188.159 57.312C186.223 57.312 184.671 56.72 183.503 55.536C182.351 54.336 181.775 52.768 181.775 50.832C181.775 48.896 182.351 47.336 183.503 46.152C184.671 44.952 186.223 44.352 188.159 44.352ZM188.159 54.528C189.167 54.528 189.919 54.184 190.415 53.496C190.927 52.792 191.183 51.904 191.183 50.832C191.183 49.776 190.927 48.904 190.415 48.216C189.919 47.512 189.167 47.16 188.159 47.16C187.167 47.16 186.415 47.512 185.903 48.216C185.391 48.904 185.135 49.776 185.135 50.832C185.135 51.904 185.391 52.792 185.903 53.496C186.415 54.184 187.167 54.528 188.159 54.528ZM196.153 57V53.784H196.585C197.385 53.784 197.961 53.504 198.313 52.944C198.665 52.368 198.841 51.336 198.841 49.848V44.664H209.377V57H206.017V47.472H201.937V49.968C201.937 52.544 201.513 54.36 200.665 55.416C199.817 56.472 198.457 57 196.585 57H196.153ZM216.3 44.664V48.264H219.324C220.908 48.264 222.124 48.648 222.972 49.416C223.836 50.168 224.268 51.224 224.268 52.584C224.268 53.96 223.836 55.04 222.972 55.824C222.124 56.608 220.908 57 219.324 57H212.94V44.664H216.3ZM216.3 54.216H218.844C219.612 54.216 220.148 54.08 220.452 53.808C220.756 53.52 220.908 53.104 220.908 52.56C220.908 52 220.756 51.584 220.452 51.312C220.148 51.04 219.612 50.904 218.844 50.904H216.3V54.216ZM235.453 57L232.957 52.08H230.269V57H226.909V44.664H230.269V49.272H233.005L235.357 44.664H238.789L235.765 50.616L238.981 57H235.453ZM246.917 44.352C248.869 44.352 250.421 44.944 251.573 46.128C252.725 47.312 253.301 48.88 253.301 50.832C253.301 52.784 252.725 54.352 251.573 55.536C250.421 56.72 248.869 57.312 246.917 57.312C244.981 57.312 243.429 56.72 242.261 55.536C241.109 54.336 240.533 52.768 240.533 50.832C240.533 48.896 241.109 47.336 242.261 46.152C243.429 44.952 244.981 44.352 246.917 44.352ZM246.917 54.528C247.925 54.528 248.677 54.184 249.173 53.496C249.685 52.792 249.941 51.904 249.941 50.832C249.941 49.776 249.685 48.904 249.173 48.216C248.677 47.512 247.925 47.16 246.917 47.16C245.925 47.16 245.173 47.512 244.661 48.216C244.149 48.904 243.893 49.776 243.893 50.832C243.893 51.904 244.149 52.792 244.661 53.496C245.173 54.184 245.925 54.528 246.917 54.528ZM261.591 57V53.784H262.023C262.823 53.784 263.399 53.504 263.751 52.944C264.103 52.368 264.279 51.336 264.279 49.848V44.664H274.815V57H271.455V47.472H267.375V49.968C267.375 52.544 266.951 54.36 266.103 55.416C265.255 56.472 263.895 57 262.023 57H261.591ZM289.85 50.208V51.216H281.018C281.114 53.424 282.114 54.528 284.018 54.528C285.234 54.528 286.002 54.096 286.322 53.232H289.73C289.474 54.512 288.858 55.512 287.882 56.232C286.906 56.952 285.602 57.312 283.97 57.312C282.034 57.312 280.498 56.72 279.362 55.536C278.242 54.352 277.682 52.768 277.682 50.784C277.682 48.816 278.242 47.256 279.362 46.104C280.482 44.936 281.994 44.352 283.898 44.352C285.722 44.352 287.162 44.896 288.218 45.984C289.274 47.072 289.818 48.48 289.85 50.208ZM286.418 48.984C286.194 47.576 285.346 46.872 283.874 46.872C282.402 46.872 281.49 47.576 281.138 48.984H286.418ZM291.478 47.472V44.664H302.926V47.472H298.894V57H295.534V47.472H291.478ZM319.136 48.288C319.136 47.488 318.432 47.088 317.024 47.088C315.68 47.088 314.912 47.536 314.72 48.432H311.648C311.776 47.088 312.344 46.072 313.352 45.384C314.36 44.696 315.664 44.352 317.264 44.352C318.864 44.352 320.128 44.688 321.056 45.36C322 46.016 322.472 46.864 322.472 47.904C322.472 49.104 322.056 49.888 321.224 50.256V50.88C322.296 51.232 322.832 52.08 322.832 53.424C322.832 54.56 322.32 55.496 321.296 56.232C320.272 56.952 318.928 57.312 317.264 57.312C315.376 57.312 313.928 56.952 312.92 56.232C311.928 55.496 311.36 54.464 311.216 53.136H314.312C314.584 54.096 315.512 54.576 317.096 54.576C318.68 54.576 319.472 54.136 319.472 53.256C319.472 52.824 319.312 52.512 318.992 52.32C318.688 52.128 318.184 52.032 317.48 52.032H315.464V49.464H317.36C318.544 49.464 319.136 49.072 319.136 48.288ZM333.376 57V55.944H332.752C331.968 56.856 330.816 57.312 329.296 57.312C327.952 57.312 326.888 56.92 326.104 56.136C325.32 55.336 324.928 54.36 324.928 53.208C324.928 52.104 325.344 51.144 326.176 50.328C327.008 49.512 328.264 49.104 329.944 49.104H333.232V48.792C333.232 47.512 332.504 46.872 331.048 46.872C329.752 46.872 329.056 47.312 328.96 48.192H325.624C325.656 47.024 326.16 46.096 327.136 45.408C328.112 44.704 329.36 44.352 330.88 44.352C332.64 44.352 334.008 44.728 334.984 45.48C335.976 46.232 336.472 47.4 336.472 48.984V57H333.376ZM330.472 54.648C331.288 54.648 331.952 54.408 332.464 53.928C332.976 53.448 333.232 52.824 333.232 52.056V51.288H330.592C329.056 51.288 328.288 51.84 328.288 52.944C328.288 54.08 329.016 54.648 330.472 54.648ZM348.398 57L345.902 52.08H343.214V57H339.854V44.664H343.214V49.272H345.95L348.302 44.664H351.734L348.71 50.616L351.926 57H348.398ZM362.11 57V55.944H361.486C360.702 56.856 359.55 57.312 358.03 57.312C356.686 57.312 355.622 56.92 354.838 56.136C354.054 55.336 353.662 54.36 353.662 53.208C353.662 52.104 354.078 51.144 354.91 50.328C355.742 49.512 356.998 49.104 358.678 49.104H361.966V48.792C361.966 47.512 361.238 46.872 359.782 46.872C358.486 46.872 357.79 47.312 357.694 48.192H354.358C354.39 47.024 354.894 46.096 355.87 45.408C356.846 44.704 358.094 44.352 359.614 44.352C361.374 44.352 362.742 44.728 363.718 45.48C364.71 46.232 365.206 47.4 365.206 48.984V57H362.11ZM359.206 54.648C360.022 54.648 360.686 54.408 361.198 53.928C361.71 53.448 361.966 52.824 361.966 52.056V51.288H359.326C357.79 51.288 357.022 51.84 357.022 52.944C357.022 54.08 357.75 54.648 359.206 54.648ZM375.621 48.288C375.621 47.488 374.917 47.088 373.509 47.088C372.165 47.088 371.397 47.536 371.205 48.432H368.133C368.261 47.088 368.829 46.072 369.837 45.384C370.845 44.696 372.149 44.352 373.749 44.352C375.349 44.352 376.613 44.688 377.541 45.36C378.485 46.016 378.957 46.864 378.957 47.904C378.957 49.104 378.541 49.888 377.709 50.256V50.88C378.781 51.232 379.317 52.08 379.317 53.424C379.317 54.56 378.805 55.496 377.781 56.232C376.757 56.952 375.413 57.312 373.749 57.312C371.861 57.312 370.413 56.952 369.405 56.232C368.413 55.496 367.845 54.464 367.701 53.136H370.797C371.069 54.096 371.997 54.576 373.581 54.576C375.165 54.576 375.957 54.136 375.957 53.256C375.957 52.824 375.797 52.512 375.477 52.32C375.173 52.128 374.669 52.032 373.965 52.032H371.949V49.464H373.845C375.029 49.464 375.621 49.072 375.621 48.288ZM382.276 44.664H385.636V48.264H388.42C390.004 48.264 391.22 48.648 392.068 49.416C392.932 50.168 393.364 51.224 393.364 52.584C393.364 53.96 392.932 55.04 392.068 55.824C391.22 56.608 390.004 57 388.42 57H382.276V44.664ZM385.636 50.904V54.216H387.94C388.708 54.216 389.244 54.08 389.548 53.808C389.852 53.52 390.004 53.104 390.004 52.56C390.004 52 389.852 51.584 389.548 51.312C389.244 51.04 388.708 50.904 387.94 50.904H385.636ZM395.212 44.664H398.572V57H395.212V44.664ZM411.656 50.16V50.784C412.28 50.944 412.784 51.264 413.168 51.744C413.552 52.224 413.744 52.84 413.744 53.592C413.744 55.864 412.288 57 409.376 57H402.128V44.664H409.184C410.416 44.664 411.368 44.944 412.04 45.504C412.728 46.048 413.072 46.808 413.072 47.784C413.072 48.904 412.6 49.696 411.656 50.16ZM405.416 54.576H408.608C409.776 54.576 410.36 54.12 410.36 53.208C410.36 52.28 409.776 51.816 408.608 51.816H405.416V54.576ZM405.416 47.088V49.464H408.272C409.232 49.464 409.712 49.072 409.712 48.288C409.712 47.488 409.232 47.088 408.272 47.088H405.416ZM424.243 57V55.944H423.619C422.835 56.856 421.683 57.312 420.163 57.312C418.819 57.312 417.755 56.92 416.971 56.136C416.187 55.336 415.795 54.36 415.795 53.208C415.795 52.104 416.211 51.144 417.043 50.328C417.875 49.512 419.131 49.104 420.811 49.104H424.099V48.792C424.099 47.512 423.371 46.872 421.915 46.872C420.619 46.872 419.923 47.312 419.827 48.192H416.491C416.523 47.024 417.027 46.096 418.003 45.408C418.979 44.704 420.227 44.352 421.747 44.352C423.507 44.352 424.875 44.728 425.851 45.48C426.843 46.232 427.339 47.4 427.339 48.984V57H424.243ZM421.339 54.648C422.155 54.648 422.819 54.408 423.331 53.928C423.843 53.448 424.099 52.824 424.099 52.056V51.288H421.459C419.923 51.288 419.155 51.84 419.155 52.944C419.155 54.08 419.883 54.648 421.339 54.648ZM442.457 44.352C444.329 44.352 445.849 44.968 447.017 46.2C448.185 47.416 448.769 48.96 448.769 50.832C448.769 52.72 448.185 54.272 447.017 55.488C445.849 56.704 444.329 57.312 442.457 57.312C440.777 57.312 439.377 56.84 438.257 55.896C437.153 54.936 436.489 53.664 436.265 52.08H434.009V57H430.721V44.664H434.009V49.272H436.337C436.625 47.768 437.313 46.576 438.401 45.696C439.505 44.8 440.857 44.352 442.457 44.352ZM442.433 54.528C443.409 54.528 444.145 54.184 444.641 53.496C445.153 52.792 445.409 51.904 445.409 50.832C445.409 49.776 445.153 48.904 444.641 48.216C444.145 47.512 443.409 47.16 442.433 47.16C441.441 47.16 440.689 47.512 440.177 48.216C439.681 48.904 439.433 49.776 439.433 50.832C439.433 51.904 439.681 52.792 440.177 53.496C440.689 54.184 441.441 54.528 442.433 54.528ZM56.752 86.216H58.936V92.432H55.768V89H46.624V92.432H43.456V86.216H45.28C46 84.376 46.36 82.376 46.36 80.216V76.664H56.752V86.216ZM53.392 86.216V79.472H49.384V80.24C49.384 82.528 49.08 84.52 48.472 86.216H53.392ZM64.6806 89H61.4166V76.664H64.6806V83.624H65.2566L70.0326 76.664H73.3446V89H70.0806V82.064H69.5046L64.6806 89ZM83.9174 80.288C83.9174 79.488 83.2134 79.088 81.8054 79.088C80.4614 79.088 79.6934 79.536 79.5014 80.432H76.4294C76.5574 79.088 77.1254 78.072 78.1334 77.384C79.1414 76.696 80.4454 76.352 82.0454 76.352C83.6454 76.352 84.9094 76.688 85.8374 77.36C86.7814 78.016 87.2534 78.864 87.2534 79.904C87.2534 81.104 86.8374 81.888 86.0054 82.256V82.88C87.0774 83.232 87.6134 84.08 87.6134 85.424C87.6134 86.56 87.1014 87.496 86.0774 88.232C85.0534 88.952 83.7094 89.312 82.0454 89.312C80.1574 89.312 78.7094 88.952 77.7014 88.232C76.7094 87.496 76.1414 86.464 75.9974 85.136H79.0934C79.3654 86.096 80.2934 86.576 81.8774 86.576C83.4614 86.576 84.2534 86.136 84.2534 85.256C84.2534 84.824 84.0934 84.512 83.7734 84.32C83.4694 84.128 82.9654 84.032 82.2614 84.032H80.2454V81.464H82.1414C83.3254 81.464 83.9174 81.072 83.9174 80.288ZM98.1569 89V87.944H97.5329C96.7489 88.856 95.5969 89.312 94.0769 89.312C92.7329 89.312 91.6689 88.92 90.8849 88.136C90.1009 87.336 89.7089 86.36 89.7089 85.208C89.7089 84.104 90.1249 83.144 90.9569 82.328C91.7889 81.512 93.0449 81.104 94.7249 81.104H98.0129V80.792C98.0129 79.512 97.2849 78.872 95.8289 78.872C94.5329 78.872 93.8369 79.312 93.7409 80.192H90.4049C90.4369 79.024 90.9409 78.096 91.9169 77.408C92.8929 76.704 94.1409 76.352 95.6609 76.352C97.4209 76.352 98.7889 76.728 99.7649 77.48C100.757 78.232 101.253 79.4 101.253 80.984V89H98.1569ZM95.2529 86.648C96.0689 86.648 96.7329 86.408 97.2449 85.928C97.7569 85.448 98.0129 84.824 98.0129 84.056V83.288H95.3729C93.8369 83.288 93.0689 83.84 93.0689 84.944C93.0689 86.08 93.7969 86.648 95.2529 86.648ZM107.899 89H104.635V76.664H107.899V83.624H108.475L113.251 76.664H116.563V89H113.299V82.064H112.723L107.899 89ZM112.363 71.768H114.955C114.859 72.904 114.435 73.792 113.683 74.432C112.947 75.056 111.915 75.368 110.587 75.368C109.259 75.368 108.227 75.056 107.491 74.432C106.755 73.792 106.339 72.904 106.243 71.768H108.835C108.883 72.2 109.051 72.552 109.339 72.824C109.627 73.096 110.043 73.232 110.587 73.232C111.659 73.232 112.251 72.744 112.363 71.768ZM131.96 89H128.6V84.08H123.464V89H120.104V76.664H123.464V81.272H128.6V76.664H131.96V89ZM146.975 82.208V83.216H138.143C138.239 85.424 139.239 86.528 141.143 86.528C142.359 86.528 143.127 86.096 143.447 85.232H146.855C146.599 86.512 145.983 87.512 145.007 88.232C144.031 88.952 142.727 89.312 141.095 89.312C139.159 89.312 137.623 88.72 136.487 87.536C135.367 86.352 134.807 84.768 134.807 82.784C134.807 80.816 135.367 79.256 136.487 78.104C137.607 76.936 139.119 76.352 141.023 76.352C142.847 76.352 144.287 76.896 145.343 77.984C146.399 79.072 146.943 80.48 146.975 82.208ZM143.543 80.984C143.319 79.576 142.471 78.872 140.999 78.872C139.527 78.872 138.615 79.576 138.263 80.984H143.543ZM156.063 79.16C155.071 79.16 154.319 79.512 153.807 80.216C153.311 80.904 153.063 81.776 153.063 82.832C153.063 83.888 153.311 84.768 153.807 85.472C154.319 86.176 155.071 86.528 156.063 86.528C157.023 86.528 157.751 86.184 158.247 85.496C158.759 84.808 159.015 83.92 159.015 82.832C159.015 81.76 158.759 80.88 158.247 80.192C157.751 79.504 157.023 79.16 156.063 79.16ZM149.823 76.664H153.063V77.792H153.687C154.455 76.832 155.607 76.352 157.143 76.352C158.743 76.352 160.015 76.96 160.959 78.176C161.903 79.376 162.375 80.928 162.375 82.832C162.375 84.752 161.903 86.312 160.959 87.512C160.015 88.712 158.743 89.312 157.143 89.312C155.639 89.312 154.527 88.832 153.807 87.872H153.183V93.8H149.823V76.664ZM173.069 84.848H176.381C176.221 86.192 175.621 87.272 174.581 88.088C173.557 88.904 172.277 89.312 170.741 89.312C168.837 89.312 167.325 88.728 166.205 87.56C165.085 86.376 164.525 84.8 164.525 82.832C164.525 80.88 165.085 79.312 166.205 78.128C167.325 76.944 168.837 76.352 170.741 76.352C172.277 76.352 173.541 76.744 174.533 77.528C175.541 78.296 176.125 79.32 176.285 80.6H172.949C172.677 79.64 171.949 79.16 170.765 79.16C169.773 79.16 169.045 79.496 168.581 80.168C168.117 80.84 167.885 81.72 167.885 82.808C167.885 83.896 168.117 84.792 168.581 85.496C169.061 86.184 169.789 86.528 170.765 86.528C172.093 86.528 172.861 85.968 173.069 84.848ZM187.758 89L185.262 84.08H182.574V89H179.214V76.664H182.574V81.272H185.31L187.662 76.664H191.094L188.07 82.616L191.286 89H187.758ZM198.517 93.8H195.157L197.773 87.728L192.541 76.664H196.045L199.117 83.24H199.741L202.573 76.664H205.957L198.517 93.8ZM219.871 76.352C221.743 76.352 223.263 76.968 224.431 78.2C225.599 79.416 226.183 80.96 226.183 82.832C226.183 84.72 225.599 86.272 224.431 87.488C223.263 88.704 221.743 89.312 219.871 89.312C218.191 89.312 216.791 88.84 215.671 87.896C214.567 86.936 213.903 85.664 213.679 84.08H211.423V89H208.135V76.664H211.423V81.272H213.751C214.039 79.768 214.727 78.576 215.815 77.696C216.919 76.8 218.271 76.352 219.871 76.352ZM219.847 86.528C220.823 86.528 221.559 86.184 222.055 85.496C222.567 84.792 222.823 83.904 222.823 82.832C222.823 81.776 222.567 80.904 222.055 80.216C221.559 79.512 220.823 79.16 219.847 79.16C218.855 79.16 218.103 79.512 217.591 80.216C217.095 80.904 216.847 81.776 216.847 82.832C216.847 83.904 217.095 84.792 217.591 85.496C218.103 86.184 218.855 86.528 219.847 86.528ZM241.409 76.352C243.361 76.352 244.913 76.944 246.065 78.128C247.217 79.312 247.793 80.88 247.793 82.832C247.793 84.784 247.217 86.352 246.065 87.536C244.913 88.72 243.361 89.312 241.409 89.312C239.473 89.312 237.921 88.72 236.753 87.536C235.601 86.336 235.025 84.768 235.025 82.832C235.025 80.896 235.601 79.336 236.753 78.152C237.921 76.952 239.473 76.352 241.409 76.352ZM241.409 86.528C242.417 86.528 243.169 86.184 243.665 85.496C244.177 84.792 244.433 83.904 244.433 82.832C244.433 81.776 244.177 80.904 243.665 80.216C243.169 79.512 242.417 79.16 241.409 79.16C240.417 79.16 239.665 79.512 239.153 80.216C238.641 80.904 238.385 81.776 238.385 82.832C238.385 83.904 238.641 84.792 239.153 85.496C239.665 86.184 240.417 86.528 241.409 86.528ZM262.627 86.216H264.811V92.432H261.643V89H252.499V92.432H249.331V86.216H251.155C251.875 84.376 252.235 82.376 252.235 80.216V76.664H262.627V86.216ZM259.267 86.216V79.472H255.259V80.24C255.259 82.528 254.955 84.52 254.347 86.216H259.267ZM278.764 82.208V83.216H269.932C270.028 85.424 271.028 86.528 272.932 86.528C274.148 86.528 274.916 86.096 275.236 85.232H278.644C278.388 86.512 277.772 87.512 276.796 88.232C275.82 88.952 274.516 89.312 272.884 89.312C270.948 89.312 269.412 88.72 268.276 87.536C267.156 86.352 266.596 84.768 266.596 82.784C266.596 80.816 267.156 79.256 268.276 78.104C269.396 76.936 270.908 76.352 272.812 76.352C274.636 76.352 276.076 76.896 277.132 77.984C278.188 79.072 278.732 80.48 278.764 82.208ZM275.332 80.984C275.108 79.576 274.26 78.872 272.788 78.872C271.316 78.872 270.404 79.576 270.052 80.984H275.332ZM286.316 84.104L284.084 89H280.676L283.58 82.664L280.868 76.664H284.228L286.316 81.296H288.692V76.664H291.812V81.296H294.164L296.252 76.664H299.636L296.9 82.664L299.828 89H296.396L294.164 84.104H291.812V89H288.692V84.104H286.316ZM314.4 86.216H316.584V92.432H313.416V89H304.272V92.432H301.104V86.216H302.928C303.648 84.376 304.008 82.376 304.008 80.216V76.664H314.4V86.216ZM311.04 86.216V79.472H307.032V80.24C307.032 82.528 306.728 84.52 306.12 86.216H311.04ZM323.697 93.8H320.337L322.953 87.728L317.721 76.664H321.225L324.297 83.24H324.921L327.753 76.664H331.137L323.697 93.8ZM343.259 89H339.995V76.664H343.259V83.624H343.835L348.611 76.664H351.923V89H348.659V82.064H348.083L343.259 89ZM362.496 80.288C362.496 79.488 361.792 79.088 360.384 79.088C359.04 79.088 358.272 79.536 358.08 80.432H355.008C355.136 79.088 355.704 78.072 356.712 77.384C357.72 76.696 359.024 76.352 360.624 76.352C362.224 76.352 363.488 76.688 364.416 77.36C365.36 78.016 365.832 78.864 365.832 79.904C365.832 81.104 365.416 81.888 364.584 82.256V82.88C365.656 83.232 366.192 84.08 366.192 85.424C366.192 86.56 365.68 87.496 364.656 88.232C363.632 88.952 362.288 89.312 360.624 89.312C358.736 89.312 357.288 88.952 356.28 88.232C355.288 87.496 354.72 86.464 354.576 85.136H357.672C357.944 86.096 358.872 86.576 360.456 86.576C362.04 86.576 362.832 86.136 362.832 85.256C362.832 84.824 362.672 84.512 362.352 84.32C362.048 84.128 361.544 84.032 360.84 84.032H358.824V81.464H360.72C361.904 81.464 362.496 81.072 362.496 80.288ZM386.511 73.328H386.751C389.119 73.328 391.007 73.92 392.415 75.104C393.839 76.288 394.551 77.984 394.551 80.192C394.551 82.432 393.847 84.136 392.439 85.304C391.031 86.472 389.135 87.056 386.751 87.056H386.511V89.312H383.103V87.056H382.887C380.471 87.056 378.559 86.48 377.151 85.328C375.759 84.16 375.063 82.448 375.063 80.192C375.063 77.984 375.775 76.288 377.199 75.104C378.623 73.92 380.519 73.328 382.887 73.328H383.103V71.312H386.511V73.328ZM382.887 84.008H383.103V76.376H382.887C381.559 76.376 380.519 76.688 379.767 77.312C379.015 77.936 378.639 78.896 378.639 80.192C378.639 81.472 379.007 82.432 379.743 83.072C380.495 83.696 381.543 84.008 382.887 84.008ZM386.511 84.008H386.751C388.079 84.008 389.111 83.696 389.847 83.072C390.599 82.432 390.975 81.472 390.975 80.192C390.975 77.648 389.567 76.376 386.751 76.376H386.511V84.008ZM403.61 79.16C402.618 79.16 401.866 79.512 401.354 80.216C400.858 80.904 400.61 81.776 400.61 82.832C400.61 83.888 400.858 84.768 401.354 85.472C401.866 86.176 402.618 86.528 403.61 86.528C404.57 86.528 405.298 86.184 405.794 85.496C406.306 84.808 406.562 83.92 406.562 82.832C406.562 81.76 406.306 80.88 405.794 80.192C405.298 79.504 404.57 79.16 403.61 79.16ZM397.37 76.664H400.61V77.792H401.234C402.002 76.832 403.154 76.352 404.69 76.352C406.29 76.352 407.562 76.96 408.506 78.176C409.45 79.376 409.922 80.928 409.922 82.832C409.922 84.752 409.45 86.312 408.506 87.512C407.562 88.712 406.29 89.312 404.69 89.312C403.186 89.312 402.074 88.832 401.354 87.872H400.73V93.8H397.37V76.664ZM420.352 89V87.944H419.728C418.944 88.856 417.792 89.312 416.272 89.312C414.928 89.312 413.864 88.92 413.08 88.136C412.296 87.336 411.904 86.36 411.904 85.208C411.904 84.104 412.32 83.144 413.152 82.328C413.984 81.512 415.24 81.104 416.92 81.104H420.208V80.792C420.208 79.512 419.48 78.872 418.024 78.872C416.728 78.872 416.032 79.312 415.936 80.192H412.6C412.632 79.024 413.136 78.096 414.112 77.408C415.088 76.704 416.336 76.352 417.856 76.352C419.616 76.352 420.984 76.728 421.96 77.48C422.952 78.232 423.448 79.4 423.448 80.984V89H420.352ZM417.448 86.648C418.264 86.648 418.928 86.408 419.44 85.928C419.952 85.448 420.208 84.824 420.208 84.056V83.288H417.568C416.032 83.288 415.264 83.84 415.264 84.944C415.264 86.08 415.992 86.648 417.448 86.648ZM438.687 89H435.327V84.08H430.191V89H426.831V76.664H430.191V81.272H435.327V76.664H438.687V89ZM450.533 76.664H453.893V86.216H456.077V92.432H452.909V89H442.229V76.664H445.589V86.216H450.533V76.664ZM461.806 89H458.542V76.664H461.806V83.624H462.382L467.158 76.664H470.47V89H467.206V82.064H466.63L461.806 89ZM477.274 89H474.01V76.664H477.274V83.624H477.85L482.626 76.664H485.938V89H482.674V82.064H482.098L477.274 89ZM44.08 108.664H47.464V112.264C47.464 112.536 47.48 112.768 47.512 112.96C47.56 113.136 47.656 113.328 47.8 113.536C47.944 113.728 48.184 113.88 48.52 113.992C48.856 114.088 49.28 114.136 49.792 114.136C50.608 114.136 51.384 114.048 52.12 113.872V108.664H55.48V121H52.12V116.584C51.048 116.808 49.904 116.92 48.688 116.92C47.696 116.92 46.872 116.816 46.216 116.608C45.576 116.384 45.104 116.064 44.8 115.648C44.512 115.232 44.32 114.816 44.224 114.4C44.128 113.984 44.08 113.488 44.08 112.912V108.664ZM70.3339 114.208V115.216H61.5019C61.5979 117.424 62.5979 118.528 64.5019 118.528C65.7179 118.528 66.4859 118.096 66.8059 117.232H70.2139C69.9579 118.512 69.3419 119.512 68.3659 120.232C67.3899 120.952 66.0859 121.312 64.4539 121.312C62.5179 121.312 60.9819 120.72 59.8459 119.536C58.7259 118.352 58.1659 116.768 58.1659 114.784C58.1659 112.816 58.7259 111.256 59.8459 110.104C60.9659 108.936 62.4779 108.352 64.3819 108.352C66.2059 108.352 67.6459 108.896 68.7019 109.984C69.7579 111.072 70.3019 112.48 70.3339 114.208ZM66.9019 112.984C66.6779 111.576 65.8299 110.872 64.3579 110.872C62.8859 110.872 61.9739 111.576 61.6219 112.984H66.9019ZM79.4223 111.16C78.4303 111.16 77.6783 111.512 77.1663 112.216C76.6703 112.904 76.4223 113.776 76.4223 114.832C76.4223 115.888 76.6703 116.768 77.1663 117.472C77.6783 118.176 78.4303 118.528 79.4223 118.528C80.3823 118.528 81.1103 118.184 81.6063 117.496C82.1183 116.808 82.3743 115.92 82.3743 114.832C82.3743 113.76 82.1183 112.88 81.6063 112.192C81.1103 111.504 80.3823 111.16 79.4223 111.16ZM73.1823 108.664H76.4223V109.792H77.0463C77.8143 108.832 78.9663 108.352 80.5023 108.352C82.1023 108.352 83.3743 108.96 84.3183 110.176C85.2623 111.376 85.7343 112.928 85.7343 114.832C85.7343 116.752 85.2623 118.312 84.3183 119.512C83.3743 120.712 82.1023 121.312 80.5023 121.312C78.9983 121.312 77.8863 120.832 77.1663 119.872H76.5423V125.8H73.1823V108.664ZM100.053 114.208V115.216H91.2207C91.3167 117.424 92.3167 118.528 94.2207 118.528C95.4367 118.528 96.2047 118.096 96.5247 117.232H99.9327C99.6767 118.512 99.0607 119.512 98.0847 120.232C97.1087 120.952 95.8047 121.312 94.1727 121.312C92.2367 121.312 90.7007 120.72 89.5647 119.536C88.4447 118.352 87.8847 116.768 87.8847 114.784C87.8847 112.816 88.4447 111.256 89.5647 110.104C90.6847 108.936 92.1967 108.352 94.1007 108.352C95.9247 108.352 97.3647 108.896 98.4207 109.984C99.4767 111.072 100.021 112.48 100.053 114.208ZM96.6207 112.984C96.3967 111.576 95.5487 110.872 94.0767 110.872C92.6047 110.872 91.6927 111.576 91.3407 112.984H96.6207ZM109.933 112.288C109.933 111.488 109.229 111.088 107.821 111.088C106.477 111.088 105.709 111.536 105.517 112.432H102.445C102.573 111.088 103.141 110.072 104.149 109.384C105.157 108.696 106.461 108.352 108.061 108.352C109.661 108.352 110.925 108.688 111.853 109.36C112.797 110.016 113.269 110.864 113.269 111.904C113.269 113.104 112.853 113.888 112.021 114.256V114.88C113.093 115.232 113.629 116.08 113.629 117.424C113.629 118.56 113.117 119.496 112.093 120.232C111.069 120.952 109.725 121.312 108.061 121.312C106.173 121.312 104.725 120.952 103.717 120.232C102.725 119.496 102.157 118.464 102.013 117.136H105.109C105.381 118.096 106.309 118.576 107.893 118.576C109.477 118.576 110.269 118.136 110.269 117.256C110.269 116.824 110.109 116.512 109.789 116.32C109.485 116.128 108.981 116.032 108.277 116.032H106.261V113.464H108.157C109.341 113.464 109.933 113.072 109.933 112.288ZM132.796 114.16V114.784C133.42 114.944 133.924 115.264 134.308 115.744C134.692 116.224 134.884 116.84 134.884 117.592C134.884 119.864 133.428 121 130.516 121H123.268V108.664H130.324C131.556 108.664 132.508 108.944 133.18 109.504C133.868 110.048 134.212 110.808 134.212 111.784C134.212 112.904 133.74 113.696 132.796 114.16ZM126.556 118.576H129.748C130.916 118.576 131.5 118.12 131.5 117.208C131.5 116.28 130.916 115.816 129.748 115.816H126.556V118.576ZM126.556 111.088V113.464H129.412C130.372 113.464 130.852 113.072 130.852 112.288C130.852 111.488 130.372 111.088 129.412 111.088H126.556ZM145.383 121V119.944H144.759C143.975 120.856 142.823 121.312 141.303 121.312C139.959 121.312 138.895 120.92 138.111 120.136C137.327 119.336 136.935 118.36 136.935 117.208C136.935 116.104 137.351 115.144 138.183 114.328C139.015 113.512 140.271 113.104 141.951 113.104H145.239V112.792C145.239 111.512 144.511 110.872 143.055 110.872C141.759 110.872 141.063 111.312 140.967 112.192H137.631C137.663 111.024 138.167 110.096 139.143 109.408C140.119 108.704 141.367 108.352 142.887 108.352C144.647 108.352 146.015 108.728 146.991 109.48C147.983 110.232 148.479 111.4 148.479 112.984V121H145.383ZM142.479 118.648C143.295 118.648 143.959 118.408 144.471 117.928C144.983 117.448 145.239 116.824 145.239 116.056V115.288H142.599C141.063 115.288 140.295 115.84 140.295 116.944C140.295 118.08 141.023 118.648 142.479 118.648ZM165.71 108.664H168.95V121H151.862V108.664H155.126V118.216H158.798V108.664H162.038V118.216H165.71V108.664ZM187.038 116.848H190.35C190.19 118.192 189.59 119.272 188.55 120.088C187.526 120.904 186.246 121.312 184.71 121.312C182.806 121.312 181.294 120.728 180.174 119.56C179.054 118.376 178.494 116.8 178.494 114.832C178.494 112.88 179.054 111.312 180.174 110.128C181.294 108.944 182.806 108.352 184.71 108.352C186.246 108.352 187.51 108.744 188.502 109.528C189.51 110.296 190.094 111.32 190.254 112.6H186.918C186.646 111.64 185.918 111.16 184.734 111.16C183.742 111.16 183.014 111.496 182.55 112.168C182.086 112.84 181.854 113.72 181.854 114.808C181.854 115.896 182.086 116.792 182.55 117.496C183.03 118.184 183.758 118.528 184.734 118.528C186.062 118.528 186.83 117.968 187.038 116.848ZM204.654 114.208V115.216H195.822C195.918 117.424 196.918 118.528 198.822 118.528C200.038 118.528 200.806 118.096 201.126 117.232H204.534C204.278 118.512 203.662 119.512 202.686 120.232C201.71 120.952 200.406 121.312 198.774 121.312C196.838 121.312 195.302 120.72 194.166 119.536C193.046 118.352 192.486 116.768 192.486 114.784C192.486 112.816 193.046 111.256 194.166 110.104C195.286 108.936 196.798 108.352 198.702 108.352C200.526 108.352 201.966 108.896 203.022 109.984C204.078 111.072 204.622 112.48 204.654 114.208ZM201.222 112.984C200.998 111.576 200.15 110.872 198.678 110.872C197.206 110.872 196.294 111.576 195.942 112.984H201.222ZM213.743 111.16C212.751 111.16 211.999 111.512 211.487 112.216C210.991 112.904 210.743 113.776 210.743 114.832C210.743 115.888 210.991 116.768 211.487 117.472C211.999 118.176 212.751 118.528 213.743 118.528C214.703 118.528 215.431 118.184 215.927 117.496C216.439 116.808 216.695 115.92 216.695 114.832C216.695 113.76 216.439 112.88 215.927 112.192C215.431 111.504 214.703 111.16 213.743 111.16ZM207.503 108.664H210.743V109.792H211.367C212.135 108.832 213.287 108.352 214.823 108.352C216.423 108.352 217.695 108.96 218.639 110.176C219.583 111.376 220.055 112.928 220.055 114.832C220.055 116.752 219.583 118.312 218.639 119.512C217.695 120.712 216.423 121.312 214.823 121.312C213.319 121.312 212.207 120.832 211.487 119.872H210.863V125.8H207.503V108.664ZM232.429 114.16V114.784C233.053 114.944 233.557 115.264 233.941 115.744C234.325 116.224 234.517 116.84 234.517 117.592C234.517 119.864 233.061 121 230.149 121H222.901V108.664H229.957C231.189 108.664 232.141 108.944 232.813 109.504C233.501 110.048 233.845 110.808 233.845 111.784C233.845 112.904 233.373 113.696 232.429 114.16ZM226.189 118.576H229.381C230.549 118.576 231.133 118.12 231.133 117.208C231.133 116.28 230.549 115.816 229.381 115.816H226.189V118.576ZM226.189 111.088V113.464H229.045C230.005 113.464 230.485 113.072 230.485 112.288C230.485 111.488 230.005 111.088 229.045 111.088H226.189ZM240.696 121H237.432V108.664H240.696V115.624H241.272L246.048 108.664H249.36V121H246.096V114.064H245.52L240.696 121ZM260.749 116.848H264.061C263.901 118.192 263.301 119.272 262.261 120.088C261.237 120.904 259.957 121.312 258.421 121.312C256.517 121.312 255.005 120.728 253.885 119.56C252.765 118.376 252.205 116.8 252.205 114.832C252.205 112.88 252.765 111.312 253.885 110.128C255.005 108.944 256.517 108.352 258.421 108.352C259.957 108.352 261.221 108.744 262.213 109.528C263.221 110.296 263.805 111.32 263.965 112.6H260.629C260.357 111.64 259.629 111.16 258.445 111.16C257.453 111.16 256.725 111.496 256.261 112.168C255.797 112.84 255.565 113.72 255.565 114.808C255.565 115.896 255.797 116.792 256.261 117.496C256.741 118.184 257.469 118.528 258.445 118.528C259.773 118.528 260.541 117.968 260.749 116.848ZM268.405 121H266.773V117.352H270.469V121.6L268.621 124.408H266.581L268.405 121.6V121ZM283.868 121H280.604V108.664H283.868V115.624H284.444L289.22 108.664H292.532V121H289.268V114.064H288.692L283.868 121ZM308.441 108.352C310.393 108.352 311.945 108.944 313.097 110.128C314.249 111.312 314.825 112.88 314.825 114.832C314.825 116.784 314.249 118.352 313.097 119.536C311.945 120.72 310.393 121.312 308.441 121.312C306.505 121.312 304.953 120.72 303.785 119.536C302.633 118.336 302.057 116.768 302.057 114.832C302.057 112.896 302.633 111.336 303.785 110.152C304.953 108.952 306.505 108.352 308.441 108.352ZM308.441 118.528C309.449 118.528 310.201 118.184 310.697 117.496C311.209 116.792 311.465 115.904 311.465 114.832C311.465 113.776 311.209 112.904 310.697 112.216C310.201 111.512 309.449 111.16 308.441 111.16C307.449 111.16 306.697 111.512 306.185 112.216C305.673 112.904 305.417 113.776 305.417 114.832C305.417 115.904 305.673 116.792 306.185 117.496C306.697 118.184 307.449 118.528 308.441 118.528ZM329.538 121H326.178V116.08H321.042V121H317.682V108.664H321.042V113.272H326.178V108.664H329.538V121ZM351.616 121H348.256V116.08H343.12V121H339.76V108.664H343.12V113.272H348.256V108.664H351.616V121ZM358.423 121H355.159V108.664H358.423V115.624H358.999L363.775 108.664H367.087V121H363.823V114.064H363.247L358.423 121ZM379.172 121L376.676 116.08H373.988V121H370.628V108.664H373.988V113.272H376.724L379.076 108.664H382.508L379.484 114.616L382.7 121H379.172ZM390.636 108.352C392.588 108.352 394.14 108.944 395.292 110.128C396.444 111.312 397.02 112.88 397.02 114.832C397.02 116.784 396.444 118.352 395.292 119.536C394.14 120.72 392.588 121.312 390.636 121.312C388.7 121.312 387.148 120.72 385.98 119.536C384.828 118.336 384.252 116.768 384.252 114.832C384.252 112.896 384.828 111.336 385.98 110.152C387.148 108.952 388.7 108.352 390.636 108.352ZM390.636 118.528C391.644 118.528 392.396 118.184 392.892 117.496C393.404 116.792 393.66 115.904 393.66 114.832C393.66 113.776 393.404 112.904 392.892 112.216C392.396 111.512 391.644 111.16 390.636 111.16C389.644 111.16 388.892 111.512 388.38 112.216C387.868 112.904 387.612 113.776 387.612 114.832C387.612 115.904 387.868 116.792 388.38 117.496C388.892 118.184 389.644 118.528 390.636 118.528ZM399.878 121V108.664H409.862V111.472H403.238V121H399.878ZM423.104 118.216H425.288V124.432H422.12V121H412.976V124.432H409.808V118.216H411.632C412.352 116.376 412.712 114.376 412.712 112.216V108.664H423.104V118.216ZM419.744 118.216V111.472H415.736V112.24C415.736 114.528 415.432 116.52 414.824 118.216H419.744ZM435.352 121V119.944H434.728C433.944 120.856 432.792 121.312 431.272 121.312C429.928 121.312 428.864 120.92 428.08 120.136C427.296 119.336 426.904 118.36 426.904 117.208C426.904 116.104 427.32 115.144 428.152 114.328C428.984 113.512 430.24 113.104 431.92 113.104H435.208V112.792C435.208 111.512 434.48 110.872 433.024 110.872C431.728 110.872 431.032 111.312 430.936 112.192H427.6C427.632 111.024 428.136 110.096 429.112 109.408C430.088 108.704 431.336 108.352 432.856 108.352C434.616 108.352 435.984 108.728 436.96 109.48C437.952 110.232 438.448 111.4 438.448 112.984V121H435.352ZM432.448 118.648C433.264 118.648 433.928 118.408 434.44 117.928C434.952 117.448 435.208 116.824 435.208 116.056V115.288H432.568C431.032 115.288 430.264 115.84 430.264 116.944C430.264 118.08 430.992 118.648 432.448 118.648ZM448.51 121V108.664H452.974L455.47 113.848H456.094L458.59 108.664H463.03V121H459.766V113.128H459.142L457.174 117.112H454.366L452.398 113.128H451.774V121H448.51ZM478.053 114.208V115.216H469.221C469.317 117.424 470.317 118.528 472.221 118.528C473.437 118.528 474.205 118.096 474.525 117.232H477.933C477.677 118.512 477.061 119.512 476.085 120.232C475.109 120.952 473.805 121.312 472.173 121.312C470.237 121.312 468.701 120.72 467.565 119.536C466.445 118.352 465.885 116.768 465.885 114.784C465.885 112.816 466.445 111.256 467.565 110.104C468.685 108.936 470.197 108.352 472.101 108.352C473.925 108.352 475.365 108.896 476.421 109.984C477.477 111.072 478.021 112.48 478.053 114.208ZM474.621 112.984C474.397 111.576 473.549 110.872 472.077 110.872C470.605 110.872 469.693 111.576 469.341 112.984H474.621ZM492.757 121H489.397V116.08H484.261V121H480.901V108.664H484.261V113.272H489.397V108.664H492.757V121ZM500.835 108.664H507.099V121H503.739V116.872H500.667L499.083 121H495.771L497.643 116.152C496.427 115.464 495.819 114.344 495.819 112.792C495.819 111.496 496.251 110.488 497.115 109.768C497.995 109.032 499.235 108.664 500.835 108.664ZM503.739 114.4V111.352H501.099C500.379 111.352 499.867 111.48 499.563 111.736C499.275 111.992 499.131 112.368 499.131 112.864C499.131 113.376 499.275 113.76 499.563 114.016C499.867 114.272 500.379 114.4 501.099 114.4H503.739ZM56.632 153H53.272V148.08H48.136V153H44.776V140.664H48.136V145.272H53.272V140.664H56.632V153ZM71.6464 146.208V147.216H62.8144C62.9104 149.424 63.9104 150.528 65.8144 150.528C67.0304 150.528 67.7984 150.096 68.1184 149.232H71.5264C71.2704 150.512 70.6544 151.512 69.6784 152.232C68.7024 152.952 67.3984 153.312 65.7664 153.312C63.8304 153.312 62.2944 152.72 61.1584 151.536C60.0384 150.352 59.4784 148.768 59.4784 146.784C59.4784 144.816 60.0384 143.256 61.1584 142.104C62.2784 140.936 63.7904 140.352 65.6944 140.352C67.5184 140.352 68.9584 140.896 70.0144 141.984C71.0704 143.072 71.6144 144.48 71.6464 146.208ZM68.2144 144.984C67.9904 143.576 67.1424 142.872 65.6704 142.872C64.1984 142.872 63.2864 143.576 62.9344 144.984H68.2144ZM92.9344 153H89.5744V143.472H84.5344V153H81.1744V140.664H92.9344V153ZM102.167 140.352C104.119 140.352 105.671 140.944 106.823 142.128C107.975 143.312 108.551 144.88 108.551 146.832C108.551 148.784 107.975 150.352 106.823 151.536C105.671 152.72 104.119 153.312 102.167 153.312C100.231 153.312 98.6791 152.72 97.5111 151.536C96.3591 150.336 95.7831 148.768 95.7831 146.832C95.7831 144.896 96.3591 143.336 97.5111 142.152C98.6791 140.952 100.231 140.352 102.167 140.352ZM102.167 150.528C103.175 150.528 103.927 150.184 104.423 149.496C104.935 148.792 105.191 147.904 105.191 146.832C105.191 145.776 104.935 144.904 104.423 144.216C103.927 143.512 103.175 143.16 102.167 143.16C101.175 143.16 100.423 143.512 99.9111 144.216C99.3991 144.904 99.1431 145.776 99.1431 146.832C99.1431 147.904 99.3991 148.792 99.9111 149.496C100.423 150.184 101.175 150.528 102.167 150.528ZM123.385 150.216H125.569V156.432H122.401V153H113.257V156.432H110.089V150.216H111.913C112.633 148.376 112.993 146.376 112.993 144.216V140.664H123.385V150.216ZM120.025 150.216V143.472H116.017V144.24C116.017 146.528 115.713 148.52 115.105 150.216H120.025ZM137.577 146.16V146.784C138.201 146.944 138.705 147.264 139.089 147.744C139.473 148.224 139.665 148.84 139.665 149.592C139.665 151.864 138.209 153 135.297 153H128.049V140.664H135.105C136.337 140.664 137.289 140.944 137.961 141.504C138.649 142.048 138.993 142.808 138.993 143.784C138.993 144.904 138.521 145.696 137.577 146.16ZM131.337 150.576H134.529C135.697 150.576 136.281 150.12 136.281 149.208C136.281 148.28 135.697 147.816 134.529 147.816H131.337V150.576ZM131.337 143.088V145.464H134.193C135.153 145.464 135.633 145.072 135.633 144.288C135.633 143.488 135.153 143.088 134.193 143.088H131.337ZM148.269 140.352C150.221 140.352 151.773 140.944 152.925 142.128C154.077 143.312 154.653 144.88 154.653 146.832C154.653 148.784 154.077 150.352 152.925 151.536C151.773 152.72 150.221 153.312 148.269 153.312C146.333 153.312 144.781 152.72 143.613 151.536C142.461 150.336 141.885 148.768 141.885 146.832C141.885 144.896 142.461 143.336 143.613 142.152C144.781 140.952 146.333 140.352 148.269 140.352ZM148.269 150.528C149.277 150.528 150.029 150.184 150.525 149.496C151.037 148.792 151.293 147.904 151.293 146.832C151.293 145.776 151.037 144.904 150.525 144.216C150.029 143.512 149.277 143.16 148.269 143.16C147.277 143.16 146.525 143.512 146.013 144.216C145.501 144.904 145.245 145.776 145.245 146.832C145.245 147.904 145.501 148.792 146.013 149.496C146.525 150.184 147.277 150.528 148.269 150.528ZM169.486 150.216H171.67V156.432H168.502V153H159.358V156.432H156.19V150.216H158.014C158.734 148.376 159.094 146.376 159.094 144.216V140.664H169.486V150.216ZM166.126 150.216V143.472H162.118V144.24C162.118 146.528 161.814 148.52 161.206 150.216H166.126ZM177.415 153H174.151V140.664H177.415V147.624H177.991L182.767 140.664H186.079V153H182.815V146.064H182.239L177.415 153ZM188.372 153V149.784H188.804C189.604 149.784 190.18 149.504 190.532 148.944C190.884 148.368 191.06 147.336 191.06 145.848V140.664H201.596V153H198.236V143.472H194.156V145.968C194.156 148.544 193.732 150.36 192.884 151.416C192.036 152.472 190.676 153 188.804 153H188.372ZM208.735 153H205.039V149.352H208.735V153ZM231.014 143.784V144.408C231.654 144.696 232.182 145.168 232.598 145.824C233.03 146.48 233.246 147.216 233.246 148.032C233.246 149.536 232.75 150.744 231.758 151.656C230.766 152.552 229.294 153 227.342 153H219.086V135.864H227.126C228.934 135.864 230.326 136.296 231.302 137.16C232.278 138.024 232.766 139.104 232.766 140.4C232.766 141.168 232.606 141.856 232.286 142.464C231.982 143.056 231.558 143.496 231.014 143.784ZM222.662 142.656H226.694C228.294 142.656 229.094 142.016 229.094 140.736C229.094 139.472 228.286 138.84 226.67 138.84H222.662V142.656ZM222.662 149.952H226.814C228.654 149.952 229.574 149.248 229.574 147.84C229.574 146.384 228.67 145.656 226.862 145.656H222.662V149.952ZM243.821 153V151.944H243.197C242.413 152.856 241.261 153.312 239.741 153.312C238.397 153.312 237.333 152.92 236.549 152.136C235.765 151.336 235.373 150.36 235.373 149.208C235.373 148.104 235.789 147.144 236.621 146.328C237.453 145.512 238.709 145.104 240.389 145.104H243.677V144.792C243.677 143.512 242.949 142.872 241.493 142.872C240.197 142.872 239.501 143.312 239.405 144.192H236.069C236.101 143.024 236.605 142.096 237.581 141.408C238.557 140.704 239.805 140.352 241.325 140.352C243.085 140.352 244.453 140.728 245.429 141.48C246.421 142.232 246.917 143.4 246.917 144.984V153H243.821ZM240.917 150.648C241.733 150.648 242.397 150.408 242.909 149.928C243.421 149.448 243.677 148.824 243.677 148.056V147.288H241.037C239.501 147.288 238.733 147.84 238.733 148.944C238.733 150.08 239.461 150.648 240.917 150.648ZM255.003 148.104L252.771 153H249.363L252.267 146.664L249.555 140.664H252.915L255.003 145.296H257.379V140.664H260.499V145.296H262.851L264.939 140.664H268.323L265.587 146.664L268.515 153H265.083L262.851 148.104H260.499V153H257.379V148.104H255.003ZM282.968 153H279.608V148.08H274.472V153H271.112V140.664H274.472V145.272H279.608V140.664H282.968V153ZM292.198 140.352C294.15 140.352 295.702 140.944 296.854 142.128C298.006 143.312 298.582 144.88 298.582 146.832C298.582 148.784 298.006 150.352 296.854 151.536C295.702 152.72 294.15 153.312 292.198 153.312C290.262 153.312 288.71 152.72 287.542 151.536C286.39 150.336 285.814 148.768 285.814 146.832C285.814 144.896 286.39 143.336 287.542 142.152C288.71 140.952 290.262 140.352 292.198 140.352ZM292.198 150.528C293.206 150.528 293.958 150.184 294.454 149.496C294.966 148.792 295.222 147.904 295.222 146.832C295.222 145.776 294.966 144.904 294.454 144.216C293.958 143.512 293.206 143.16 292.198 143.16C291.206 143.16 290.454 143.512 289.942 144.216C289.43 144.904 289.174 145.776 289.174 146.832C289.174 147.904 289.43 148.792 289.942 149.496C290.454 150.184 291.206 150.528 292.198 150.528ZM311.384 153H308.12V140.664H311.384V147.624H311.96L316.736 140.664H320.048V153H316.784V146.064H316.208L311.384 153ZM323.589 153V140.664H328.053L330.549 145.848H331.173L333.669 140.664H338.109V153H334.845V145.128H334.221L332.253 149.112H329.445L327.477 145.128H326.853V153H323.589ZM353.131 146.208V147.216H344.299C344.395 149.424 345.395 150.528 347.299 150.528C348.515 150.528 349.283 150.096 349.603 149.232H353.011C352.755 150.512 352.139 151.512 351.163 152.232C350.187 152.952 348.883 153.312 347.251 153.312C345.315 153.312 343.779 152.72 342.643 151.536C341.523 150.352 340.963 148.768 340.963 146.784C340.963 144.816 341.523 143.256 342.643 142.104C343.763 140.936 345.275 140.352 347.179 140.352C349.003 140.352 350.443 140.896 351.499 141.984C352.555 143.072 353.099 144.48 353.131 146.208ZM349.699 144.984C349.475 143.576 348.627 142.872 347.155 142.872C345.683 142.872 344.771 143.576 344.419 144.984H349.699ZM354.759 143.472V140.664H366.207V143.472H362.175V153H358.815V143.472H354.759ZM372.066 140.664V144.264H375.09C376.674 144.264 377.89 144.648 378.738 145.416C379.602 146.168 380.034 147.224 380.034 148.584C380.034 149.96 379.602 151.04 378.738 151.824C377.89 152.608 376.674 153 375.09 153H368.706V140.664H372.066ZM372.066 150.216H374.61C375.378 150.216 375.914 150.08 376.218 149.808C376.522 149.52 376.674 149.104 376.674 148.56C376.674 148 376.522 147.584 376.218 147.312C375.914 147.04 375.378 146.904 374.61 146.904H372.066V150.216ZM401.21 153H397.85V148.08H392.714V153H389.354V140.664H392.714V145.272H397.85V140.664H401.21V153ZM412.337 153V151.944H411.713C410.929 152.856 409.777 153.312 408.257 153.312C406.913 153.312 405.849 152.92 405.065 152.136C404.281 151.336 403.889 150.36 403.889 149.208C403.889 148.104 404.305 147.144 405.137 146.328C405.969 145.512 407.225 145.104 408.905 145.104H412.193V144.792C412.193 143.512 411.465 142.872 410.009 142.872C408.713 142.872 408.017 143.312 407.921 144.192H404.585C404.617 143.024 405.121 142.096 406.097 141.408C407.073 140.704 408.321 140.352 409.841 140.352C411.601 140.352 412.969 140.728 413.945 141.48C414.937 142.232 415.433 143.4 415.433 144.984V153H412.337ZM409.433 150.648C410.249 150.648 410.913 150.408 411.425 149.928C411.937 149.448 412.193 148.824 412.193 148.056V147.288H409.553C408.017 147.288 407.249 147.84 407.249 148.944C407.249 150.08 407.977 150.648 409.433 150.648ZM430.791 150.216H432.975V156.432H429.807V153H420.663V156.432H417.495V150.216H419.319C420.039 148.376 420.399 146.376 420.399 144.216V140.664H430.791V150.216ZM427.431 150.216V143.472H423.423V144.24C423.423 146.528 423.119 148.52 422.511 150.216H427.431ZM446.928 146.208V147.216H438.096C438.192 149.424 439.192 150.528 441.096 150.528C442.312 150.528 443.08 150.096 443.4 149.232H446.808C446.552 150.512 445.936 151.512 444.96 152.232C443.984 152.952 442.68 153.312 441.048 153.312C439.112 153.312 437.576 152.72 436.44 151.536C435.32 150.352 434.76 148.768 434.76 146.784C434.76 144.816 435.32 143.256 436.44 142.104C437.56 140.936 439.072 140.352 440.976 140.352C442.8 140.352 444.24 140.896 445.296 141.984C446.352 143.072 446.896 144.48 446.928 146.208ZM443.496 144.984C443.272 143.576 442.424 142.872 440.952 142.872C439.48 142.872 438.568 143.576 438.216 144.984H443.496ZM444.768 138.816H441.96V135.816H444.768V138.816ZM440.064 138.816H437.232V135.816H440.064V138.816ZM454.48 148.104L452.248 153H448.84L451.744 146.664L449.032 140.664H452.392L454.48 145.296H456.856V140.664H459.976V145.296H462.328L464.416 140.664H467.8L465.064 146.664L467.992 153H464.56L462.328 148.104H459.976V153H456.856V148.104H454.48ZM482.445 153H479.085V148.08H473.949V153H470.589V140.664H473.949V145.272H479.085V140.664H482.445V153ZM490.619 157.8H487.259L489.875 151.728L484.643 140.664H488.147L491.219 147.24H491.843L494.675 140.664H498.059L490.619 157.8ZM511.973 140.352C513.845 140.352 515.365 140.968 516.533 142.2C517.701 143.416 518.285 144.96 518.285 146.832C518.285 148.72 517.701 150.272 516.533 151.488C515.365 152.704 513.845 153.312 511.973 153.312C510.293 153.312 508.893 152.84 507.773 151.896C506.669 150.936 506.005 149.664 505.781 148.08H503.525V153H500.237V140.664H503.525V145.272H505.853C506.141 143.768 506.829 142.576 507.917 141.696C509.021 140.8 510.373 140.352 511.973 140.352ZM511.949 150.528C512.925 150.528 513.661 150.184 514.157 149.496C514.669 148.792 514.925 147.904 514.925 146.832C514.925 145.776 514.669 144.904 514.157 144.216C513.661 143.512 512.925 143.16 511.949 143.16C510.957 143.16 510.205 143.512 509.693 144.216C509.197 144.904 508.949 145.776 508.949 146.832C508.949 147.904 509.197 148.792 509.693 149.496C510.205 150.184 510.957 150.528 511.949 150.528ZM53.32 185L50.824 180.08H48.136V185H44.776V172.664H48.136V177.272H50.872L53.224 172.664H56.656L53.632 178.616L56.848 185H53.32ZM64.7843 172.352C66.7363 172.352 68.2883 172.944 69.4403 174.128C70.5923 175.312 71.1683 176.88 71.1683 178.832C71.1683 180.784 70.5923 182.352 69.4403 183.536C68.2883 184.72 66.7363 185.312 64.7843 185.312C62.8483 185.312 61.2963 184.72 60.1283 183.536C58.9763 182.336 58.4003 180.768 58.4003 178.832C58.4003 176.896 58.9763 175.336 60.1283 174.152C61.2963 172.952 62.8483 172.352 64.7843 172.352ZM64.7843 182.528C65.7923 182.528 66.5443 182.184 67.0403 181.496C67.5523 180.792 67.8083 179.904 67.8083 178.832C67.8083 177.776 67.5523 176.904 67.0403 176.216C66.5443 175.512 65.7923 175.16 64.7843 175.16C63.7923 175.16 63.0403 175.512 62.5283 176.216C62.0163 176.904 61.7603 177.776 61.7603 178.832C61.7603 179.904 62.0163 180.792 62.5283 181.496C63.0403 182.184 63.7923 182.528 64.7843 182.528ZM74.026 185V172.664H78.49L80.986 177.848H81.61L84.106 172.664H88.546V185H85.282V177.128H84.658L82.69 181.112H79.882L77.914 177.128H77.29V185H74.026ZM103.856 185H100.496V175.472H95.4563V185H92.0963V172.664H103.856V185ZM114.985 185V183.944H114.361C113.577 184.856 112.425 185.312 110.905 185.312C109.561 185.312 108.497 184.92 107.713 184.136C106.929 183.336 106.537 182.36 106.537 181.208C106.537 180.104 106.953 179.144 107.785 178.328C108.617 177.512 109.873 177.104 111.553 177.104H114.841V176.792C114.841 175.512 114.113 174.872 112.657 174.872C111.361 174.872 110.665 175.312 110.569 176.192H107.233C107.265 175.024 107.769 174.096 108.745 173.408C109.721 172.704 110.969 172.352 112.489 172.352C114.249 172.352 115.617 172.728 116.593 173.48C117.585 174.232 118.081 175.4 118.081 176.984V185H114.985ZM112.081 182.648C112.897 182.648 113.561 182.408 114.073 181.928C114.585 181.448 114.841 180.824 114.841 180.056V179.288H112.201C110.665 179.288 109.897 179.84 109.897 180.944C109.897 182.08 110.625 182.648 112.081 182.648ZM133.32 185H129.96V180.08H124.824V185H121.464V172.664H124.824V177.272H129.96V172.664H133.32V185ZM140.126 185H136.862V172.664H140.126V179.624H140.702L145.478 172.664H148.79V185H145.526V178.064H144.95L140.126 185ZM164.067 172.352C165.939 172.352 167.459 172.968 168.627 174.2C169.795 175.416 170.379 176.96 170.379 178.832C170.379 180.72 169.795 182.272 168.627 183.488C167.459 184.704 165.939 185.312 164.067 185.312C162.387 185.312 160.987 184.84 159.867 183.896C158.763 182.936 158.099 181.664 157.875 180.08H155.619V185H152.331V172.664H155.619V177.272H157.947C158.235 175.768 158.923 174.576 160.011 173.696C161.115 172.8 162.467 172.352 164.067 172.352ZM164.043 182.528C165.019 182.528 165.755 182.184 166.251 181.496C166.763 180.792 167.019 179.904 167.019 178.832C167.019 177.776 166.763 176.904 166.251 176.216C165.755 175.512 165.019 175.16 164.043 175.16C163.051 175.16 162.299 175.512 161.787 176.216C161.291 176.904 161.043 177.776 161.043 178.832C161.043 179.904 161.291 180.792 161.787 181.496C162.299 182.184 163.051 182.528 164.043 182.528ZM174.374 185H172.742V181.352H176.438V185.6L174.59 188.408H172.55L174.374 185.6V185ZM195.117 185L192.621 180.08H189.933V185H186.573V172.664H189.933V177.272H192.669L195.021 172.664H198.453L195.429 178.616L198.645 185H195.117ZM206.581 172.352C208.533 172.352 210.085 172.944 211.237 174.128C212.389 175.312 212.965 176.88 212.965 178.832C212.965 180.784 212.389 182.352 211.237 183.536C210.085 184.72 208.533 185.312 206.581 185.312C204.645 185.312 203.093 184.72 201.925 183.536C200.773 182.336 200.197 180.768 200.197 178.832C200.197 176.896 200.773 175.336 201.925 174.152C203.093 172.952 204.645 172.352 206.581 172.352ZM206.581 182.528C207.589 182.528 208.341 182.184 208.837 181.496C209.349 180.792 209.605 179.904 209.605 178.832C209.605 177.776 209.349 176.904 208.837 176.216C208.341 175.512 207.589 175.16 206.581 175.16C205.589 175.16 204.837 175.512 204.325 176.216C203.813 176.904 203.557 177.776 203.557 178.832C203.557 179.904 203.813 180.792 204.325 181.496C204.837 182.184 205.589 182.528 206.581 182.528ZM214.533 175.472V172.664H225.981V175.472H221.949V185H218.589V175.472H214.533ZM234.167 172.352C236.119 172.352 237.671 172.944 238.823 174.128C239.975 175.312 240.551 176.88 240.551 178.832C240.551 180.784 239.975 182.352 238.823 183.536C237.671 184.72 236.119 185.312 234.167 185.312C232.231 185.312 230.679 184.72 229.511 183.536C228.359 182.336 227.783 180.768 227.783 178.832C227.783 176.896 228.359 175.336 229.511 174.152C230.679 172.952 232.231 172.352 234.167 172.352ZM234.167 182.528C235.175 182.528 235.927 182.184 236.423 181.496C236.935 180.792 237.191 179.904 237.191 178.832C237.191 177.776 236.935 176.904 236.423 176.216C235.927 175.512 235.175 175.16 234.167 175.16C233.175 175.16 232.423 175.512 231.911 176.216C231.399 176.904 231.143 177.776 231.143 178.832C231.143 179.904 231.399 180.792 231.911 181.496C232.423 182.184 233.175 182.528 234.167 182.528ZM249.649 175.16C248.657 175.16 247.905 175.512 247.393 176.216C246.897 176.904 246.649 177.776 246.649 178.832C246.649 179.888 246.897 180.768 247.393 181.472C247.905 182.176 248.657 182.528 249.649 182.528C250.609 182.528 251.337 182.184 251.833 181.496C252.345 180.808 252.601 179.92 252.601 178.832C252.601 177.76 252.345 176.88 251.833 176.192C251.337 175.504 250.609 175.16 249.649 175.16ZM243.409 172.664H246.649V173.792H247.273C248.041 172.832 249.193 172.352 250.729 172.352C252.329 172.352 253.601 172.96 254.545 174.176C255.489 175.376 255.961 176.928 255.961 178.832C255.961 180.752 255.489 182.312 254.545 183.512C253.601 184.712 252.329 185.312 250.729 185.312C249.225 185.312 248.113 184.832 247.393 183.872H246.769V189.8H243.409V172.664ZM266.391 185V183.944H265.767C264.983 184.856 263.831 185.312 262.311 185.312C260.967 185.312 259.903 184.92 259.119 184.136C258.335 183.336 257.943 182.36 257.943 181.208C257.943 180.104 258.359 179.144 259.191 178.328C260.023 177.512 261.279 177.104 262.959 177.104H266.247V176.792C266.247 175.512 265.519 174.872 264.063 174.872C262.767 174.872 262.071 175.312 261.975 176.192H258.639C258.671 175.024 259.175 174.096 260.151 173.408C261.127 172.704 262.375 172.352 263.895 172.352C265.655 172.352 267.023 172.728 267.999 173.48C268.991 174.232 269.487 175.4 269.487 176.984V185H266.391ZM263.487 182.648C264.303 182.648 264.967 182.408 265.479 181.928C265.991 181.448 266.247 180.824 266.247 180.056V179.288H263.607C262.071 179.288 261.303 179.84 261.303 180.944C261.303 182.08 262.031 182.648 263.487 182.648ZM277.406 172.664H283.67V185H280.31V180.872H277.238L275.654 185H272.342L274.214 180.152C272.998 179.464 272.39 178.344 272.39 176.792C272.39 175.496 272.822 174.488 273.686 173.768C274.566 173.032 275.806 172.664 277.406 172.664ZM280.31 178.4V175.352H277.67C276.95 175.352 276.438 175.48 276.134 175.736C275.846 175.992 275.702 176.368 275.702 176.864C275.702 177.376 275.846 177.76 276.134 178.016C276.438 178.272 276.95 178.4 277.67 178.4H280.31ZM305.63 185H302.27V175.472H297.23V185H293.87V172.664H305.63V185ZM314.862 172.352C316.814 172.352 318.366 172.944 319.518 174.128C320.67 175.312 321.246 176.88 321.246 178.832C321.246 180.784 320.67 182.352 319.518 183.536C318.366 184.72 316.814 185.312 314.862 185.312C312.926 185.312 311.374 184.72 310.206 183.536C309.054 182.336 308.478 180.768 308.478 178.832C308.478 176.896 309.054 175.336 310.206 174.152C311.374 172.952 312.926 172.352 314.862 172.352ZM314.862 182.528C315.87 182.528 316.622 182.184 317.118 181.496C317.63 180.792 317.886 179.904 317.886 178.832C317.886 177.776 317.63 176.904 317.118 176.216C316.622 175.512 315.87 175.16 314.862 175.16C313.87 175.16 313.118 175.512 312.606 176.216C312.094 176.904 311.838 177.776 311.838 178.832C311.838 179.904 312.094 180.792 312.606 181.496C313.118 182.184 313.87 182.528 314.862 182.528ZM331.136 176.288C331.136 175.488 330.432 175.088 329.024 175.088C327.68 175.088 326.912 175.536 326.72 176.432H323.648C323.776 175.088 324.344 174.072 325.352 173.384C326.36 172.696 327.664 172.352 329.264 172.352C330.864 172.352 332.128 172.688 333.056 173.36C334 174.016 334.472 174.864 334.472 175.904C334.472 177.104 334.056 177.888 333.224 178.256V178.88C334.296 179.232 334.832 180.08 334.832 181.424C334.832 182.56 334.32 183.496 333.296 184.232C332.272 184.952 330.928 185.312 329.264 185.312C327.376 185.312 325.928 184.952 324.92 184.232C323.928 183.496 323.36 182.464 323.216 181.136H326.312C326.584 182.096 327.512 182.576 329.096 182.576C330.68 182.576 331.472 182.136 331.472 181.256C331.472 180.824 331.312 180.512 330.992 180.32C330.688 180.128 330.184 180.032 329.48 180.032H327.464V177.464H329.36C330.544 177.464 331.136 177.072 331.136 176.288ZM345.376 185V183.944H344.752C343.968 184.856 342.816 185.312 341.296 185.312C339.952 185.312 338.888 184.92 338.104 184.136C337.32 183.336 336.928 182.36 336.928 181.208C336.928 180.104 337.344 179.144 338.176 178.328C339.008 177.512 340.264 177.104 341.944 177.104H345.232V176.792C345.232 175.512 344.504 174.872 343.048 174.872C341.752 174.872 341.056 175.312 340.96 176.192H337.624C337.656 175.024 338.16 174.096 339.136 173.408C340.112 172.704 341.36 172.352 342.88 172.352C344.64 172.352 346.008 172.728 346.984 173.48C347.976 174.232 348.472 175.4 348.472 176.984V185H345.376ZM342.472 182.648C343.288 182.648 343.952 182.408 344.464 181.928C344.976 181.448 345.232 180.824 345.232 180.056V179.288H342.592C341.056 179.288 340.288 179.84 340.288 180.944C340.288 182.08 341.016 182.648 342.472 182.648ZM358.118 173.072C359.878 173.072 361.294 173.648 362.366 174.8C363.454 175.936 363.998 177.4 363.998 179.192C363.998 180.984 363.406 182.456 362.222 183.608C361.054 184.744 359.518 185.312 357.614 185.312C355.566 185.312 353.974 184.664 352.838 183.368C351.718 182.072 351.158 180.184 351.158 177.704C351.158 172.392 352.782 169.48 356.03 168.968L359.198 168.464C359.678 168.384 359.998 168.288 360.158 168.176C360.318 168.048 360.414 167.84 360.446 167.552H363.158C363.158 168.432 362.99 169.168 362.654 169.76C362.318 170.352 361.654 170.736 360.662 170.912L356.606 171.56C355.742 171.688 355.086 172 354.638 172.496C354.19 172.992 353.878 173.744 353.702 174.752H354.326C355.11 173.632 356.374 173.072 358.118 173.072ZM355.31 181.544C355.838 182.2 356.598 182.528 357.59 182.528C358.582 182.528 359.334 182.2 359.846 181.544C360.358 180.888 360.614 180.072 360.614 179.096C360.614 178.12 360.358 177.312 359.846 176.672C359.334 176.032 358.582 175.712 357.59 175.712C356.582 175.712 355.822 176.032 355.31 176.672C354.798 177.312 354.542 178.12 354.542 179.096C354.542 180.072 354.798 180.888 355.31 181.544ZM372.542 172.352C374.494 172.352 376.046 172.944 377.198 174.128C378.35 175.312 378.926 176.88 378.926 178.832C378.926 180.784 378.35 182.352 377.198 183.536C376.046 184.72 374.494 185.312 372.542 185.312C370.606 185.312 369.054 184.72 367.886 183.536C366.734 182.336 366.158 180.768 366.158 178.832C366.158 176.896 366.734 175.336 367.886 174.152C369.054 172.952 370.606 172.352 372.542 172.352ZM372.542 182.528C373.55 182.528 374.302 182.184 374.798 181.496C375.31 180.792 375.566 179.904 375.566 178.832C375.566 177.776 375.31 176.904 374.798 176.216C374.302 175.512 373.55 175.16 372.542 175.16C371.55 175.16 370.798 175.512 370.286 176.216C369.774 176.904 369.518 177.776 369.518 178.832C369.518 179.904 369.774 180.792 370.286 181.496C370.798 182.184 371.55 182.528 372.542 182.528ZM380.493 175.472V172.664H391.941V175.472H387.909V185H384.549V175.472H380.493ZM397.704 185H394.44V172.664H397.704V179.624H398.28L403.056 172.664H406.368V185H403.104V178.064H402.528L397.704 185ZM408.853 175.472V172.664H420.301V175.472H416.269V185H412.909V175.472H408.853ZM430.647 180.848H433.959C433.799 182.192 433.199 183.272 432.159 184.088C431.135 184.904 429.855 185.312 428.319 185.312C426.415 185.312 424.903 184.728 423.783 183.56C422.663 182.376 422.103 180.8 422.103 178.832C422.103 176.88 422.663 175.312 423.783 174.128C424.903 172.944 426.415 172.352 428.319 172.352C429.855 172.352 431.119 172.744 432.111 173.528C433.119 174.296 433.703 175.32 433.863 176.6H430.527C430.255 175.64 429.527 175.16 428.343 175.16C427.351 175.16 426.623 175.496 426.159 176.168C425.695 176.84 425.463 177.72 425.463 178.808C425.463 179.896 425.695 180.792 426.159 181.496C426.639 182.184 427.367 182.528 428.343 182.528C429.671 182.528 430.439 181.968 430.647 180.848ZM441.328 172.664H447.592V185H444.232V180.872H441.16L439.576 185H436.264L438.136 180.152C436.92 179.464 436.312 178.344 436.312 176.792C436.312 175.496 436.744 174.488 437.608 173.768C438.488 173.032 439.728 172.664 441.328 172.664ZM444.232 178.4V175.352H441.592C440.872 175.352 440.36 175.48 440.056 175.736C439.768 175.992 439.624 176.368 439.624 176.864C439.624 177.376 439.768 177.76 440.056 178.016C440.36 178.272 440.872 178.4 441.592 178.4H444.232ZM463.48 172.352C465.432 172.352 466.984 172.944 468.136 174.128C469.288 175.312 469.864 176.88 469.864 178.832C469.864 180.784 469.288 182.352 468.136 183.536C466.984 184.72 465.432 185.312 463.48 185.312C461.544 185.312 459.992 184.72 458.824 183.536C457.672 182.336 457.096 180.768 457.096 178.832C457.096 176.896 457.672 175.336 458.824 174.152C459.992 172.952 461.544 172.352 463.48 172.352ZM463.48 182.528C464.488 182.528 465.24 182.184 465.736 181.496C466.248 180.792 466.504 179.904 466.504 178.832C466.504 177.776 466.248 176.904 465.736 176.216C465.24 175.512 464.488 175.16 463.48 175.16C462.488 175.16 461.736 175.512 461.224 176.216C460.712 176.904 460.456 177.776 460.456 178.832C460.456 179.904 460.712 180.792 461.224 181.496C461.736 182.184 462.488 182.528 463.48 182.528ZM488.929 178.16V178.784C489.553 178.944 490.057 179.264 490.441 179.744C490.825 180.224 491.017 180.84 491.017 181.592C491.017 183.864 489.561 185 486.649 185H479.401V172.664H486.457C487.689 172.664 488.641 172.944 489.313 173.504C490.001 174.048 490.345 174.808 490.345 175.784C490.345 176.904 489.873 177.696 488.929 178.16ZM482.689 182.576H485.881C487.049 182.576 487.633 182.12 487.633 181.208C487.633 180.28 487.049 179.816 485.881 179.816H482.689V182.576ZM482.689 175.088V177.464H485.545C486.505 177.464 486.985 177.072 486.985 176.288C486.985 175.488 486.505 175.088 485.545 175.088H482.689ZM501.516 185V183.944H500.892C500.108 184.856 498.956 185.312 497.436 185.312C496.092 185.312 495.028 184.92 494.244 184.136C493.46 183.336 493.068 182.36 493.068 181.208C493.068 180.104 493.484 179.144 494.316 178.328C495.148 177.512 496.404 177.104 498.084 177.104H501.372V176.792C501.372 175.512 500.644 174.872 499.188 174.872C497.892 174.872 497.196 175.312 497.1 176.192H493.764C493.796 175.024 494.3 174.096 495.276 173.408C496.252 172.704 497.5 172.352 499.02 172.352C500.78 172.352 502.148 172.728 503.124 173.48C504.116 174.232 504.612 175.4 504.612 176.984V185H501.516ZM498.612 182.648C499.428 182.648 500.092 182.408 500.604 181.928C501.116 181.448 501.372 180.824 501.372 180.056V179.288H498.732C497.196 179.288 496.428 179.84 496.428 180.944C496.428 182.08 497.156 182.648 498.612 182.648ZM521.843 172.664H525.083V185H507.995V172.664H511.259V182.216H514.931V172.664H518.171V182.216H521.843V172.664ZM540.115 178.208V179.216H531.283C531.379 181.424 532.379 182.528 534.283 182.528C535.499 182.528 536.267 182.096 536.587 181.232H539.995C539.739 182.512 539.123 183.512 538.147 184.232C537.171 184.952 535.867 185.312 534.235 185.312C532.299 185.312 530.763 184.72 529.627 183.536C528.507 182.352 527.947 180.768 527.947 178.784C527.947 176.816 528.507 175.256 529.627 174.104C530.747 172.936 532.259 172.352 534.163 172.352C535.987 172.352 537.427 172.896 538.483 173.984C539.539 175.072 540.083 176.48 540.115 178.208ZM536.683 176.984C536.459 175.576 535.611 174.872 534.139 174.872C532.667 174.872 531.755 175.576 531.403 176.984H536.683ZM542.964 185V172.664H547.428L549.924 177.848H550.548L553.044 172.664H557.484V185H554.22V177.128H553.596L551.628 181.112H548.82L546.852 177.128H546.228V185H542.964ZM51.808 208.288C51.808 207.488 51.104 207.088 49.696 207.088C48.352 207.088 47.584 207.536 47.392 208.432H44.32C44.448 207.088 45.016 206.072 46.024 205.384C47.032 204.696 48.336 204.352 49.936 204.352C51.536 204.352 52.8 204.688 53.728 205.36C54.672 206.016 55.144 206.864 55.144 207.904C55.144 209.104 54.728 209.888 53.896 210.256V210.88C54.968 211.232 55.504 212.08 55.504 213.424C55.504 214.56 54.992 215.496 53.968 216.232C52.944 216.952 51.6 217.312 49.936 217.312C48.048 217.312 46.6 216.952 45.592 216.232C44.6 215.496 44.032 214.464 43.888 213.136H46.984C47.256 214.096 48.184 214.576 49.768 214.576C51.352 214.576 52.144 214.136 52.144 213.256C52.144 212.824 51.984 212.512 51.664 212.32C51.36 212.128 50.856 212.032 50.152 212.032H48.136V209.464H50.032C51.216 209.464 51.808 209.072 51.808 208.288ZM66.0475 217V215.944H65.4235C64.6395 216.856 63.4875 217.312 61.9675 217.312C60.6235 217.312 59.5595 216.92 58.7755 216.136C57.9915 215.336 57.5995 214.36 57.5995 213.208C57.5995 212.104 58.0155 211.144 58.8475 210.328C59.6795 209.512 60.9355 209.104 62.6155 209.104H65.9035V208.792C65.9035 207.512 65.1755 206.872 63.7195 206.872C62.4235 206.872 61.7275 207.312 61.6315 208.192H58.2955C58.3275 207.024 58.8315 206.096 59.8075 205.408C60.7835 204.704 62.0315 204.352 63.5515 204.352C65.3115 204.352 66.6795 204.728 67.6555 205.48C68.6475 206.232 69.1435 207.4 69.1435 208.984V217H66.0475ZM63.1435 214.648C63.9595 214.648 64.6235 214.408 65.1355 213.928C65.6475 213.448 65.9035 212.824 65.9035 212.056V211.288H63.2635C61.7275 211.288 60.9595 211.84 60.9595 212.944C60.9595 214.08 61.6875 214.648 63.1435 214.648ZM81.07 217L78.574 212.08H75.886V217H72.526V204.664H75.886V209.272H78.622L80.974 204.664H84.406L81.382 210.616L84.598 217H81.07ZM94.7819 217V215.944H94.1579C93.3739 216.856 92.2219 217.312 90.7019 217.312C89.3579 217.312 88.2939 216.92 87.5099 216.136C86.7259 215.336 86.3339 214.36 86.3339 213.208C86.3339 212.104 86.7499 211.144 87.5819 210.328C88.4139 209.512 89.6699 209.104 91.3499 209.104H94.6379V208.792C94.6379 207.512 93.9099 206.872 92.4539 206.872C91.1579 206.872 90.4619 207.312 90.3659 208.192H87.0299C87.0619 207.024 87.5659 206.096 88.5419 205.408C89.5179 204.704 90.7659 204.352 92.2859 204.352C94.0459 204.352 95.4139 204.728 96.3899 205.48C97.3819 206.232 97.8779 207.4 97.8779 208.984V217H94.7819ZM91.8779 214.648C92.6939 214.648 93.3579 214.408 93.8699 213.928C94.3819 213.448 94.6379 212.824 94.6379 212.056V211.288H91.9979C90.4619 211.288 89.6939 211.84 89.6939 212.944C89.6939 214.08 90.4219 214.648 91.8779 214.648ZM108.292 208.288C108.292 207.488 107.588 207.088 106.18 207.088C104.836 207.088 104.068 207.536 103.876 208.432H100.804C100.932 207.088 101.5 206.072 102.508 205.384C103.516 204.696 104.82 204.352 106.42 204.352C108.02 204.352 109.284 204.688 110.212 205.36C111.156 206.016 111.628 206.864 111.628 207.904C111.628 209.104 111.212 209.888 110.38 210.256V210.88C111.452 211.232 111.988 212.08 111.988 213.424C111.988 214.56 111.476 215.496 110.452 216.232C109.428 216.952 108.084 217.312 106.42 217.312C104.532 217.312 103.084 216.952 102.076 216.232C101.084 215.496 100.516 214.464 100.372 213.136H103.468C103.74 214.096 104.668 214.576 106.252 214.576C107.836 214.576 108.628 214.136 108.628 213.256C108.628 212.824 108.468 212.512 108.148 212.32C107.844 212.128 107.34 212.032 106.636 212.032H104.62V209.464H106.516C107.7 209.464 108.292 209.072 108.292 208.288ZM126.42 210.208V211.216H117.588C117.684 213.424 118.684 214.528 120.588 214.528C121.804 214.528 122.572 214.096 122.892 213.232H126.3C126.044 214.512 125.428 215.512 124.452 216.232C123.476 216.952 122.172 217.312 120.54 217.312C118.604 217.312 117.068 216.72 115.932 215.536C114.812 214.352 114.252 212.768 114.252 210.784C114.252 208.816 114.812 207.256 115.932 206.104C117.052 204.936 118.564 204.352 120.468 204.352C122.292 204.352 123.732 204.896 124.788 205.984C125.844 207.072 126.388 208.48 126.42 210.208ZM122.988 208.984C122.764 207.576 121.916 206.872 120.444 206.872C118.972 206.872 118.06 207.576 117.708 208.984H122.988ZM139.212 217H135.948V204.664H139.212V211.624H139.788L144.564 204.664H147.876V217H144.612V210.064H144.036L139.212 217ZM169.856 217H166.496V207.472H161.456V217H158.096V204.664H169.856V217ZM179.641 207.16C178.649 207.16 177.897 207.512 177.385 208.216C176.889 208.904 176.641 209.776 176.641 210.832C176.641 211.888 176.889 212.768 177.385 213.472C177.897 214.176 178.649 214.528 179.641 214.528C180.601 214.528 181.329 214.184 181.825 213.496C182.337 212.808 182.593 211.92 182.593 210.832C182.593 209.76 182.337 208.88 181.825 208.192C181.329 207.504 180.601 207.16 179.641 207.16ZM173.401 204.664H176.641V205.792H177.265C178.033 204.832 179.185 204.352 180.721 204.352C182.321 204.352 183.593 204.96 184.537 206.176C185.481 207.376 185.953 208.928 185.953 210.832C185.953 212.752 185.481 214.312 184.537 215.512C183.593 216.712 182.321 217.312 180.721 217.312C179.217 217.312 178.105 216.832 177.385 215.872H176.761V221.8H173.401V204.664ZM200.271 210.208V211.216H191.439C191.535 213.424 192.535 214.528 194.439 214.528C195.655 214.528 196.423 214.096 196.743 213.232H200.151C199.895 214.512 199.279 215.512 198.303 216.232C197.327 216.952 196.023 217.312 194.391 217.312C192.455 217.312 190.919 216.72 189.783 215.536C188.663 214.352 188.103 212.768 188.103 210.784C188.103 208.816 188.663 207.256 189.783 206.104C190.903 204.936 192.415 204.352 194.319 204.352C196.143 204.352 197.583 204.896 198.639 205.984C199.695 207.072 200.239 208.48 200.271 210.208ZM196.839 208.984C196.615 207.576 195.767 206.872 194.295 206.872C192.823 206.872 191.911 207.576 191.559 208.984H196.839ZM215.096 214.216H217.28V220.432H214.112V217H204.968V220.432H201.8V214.216H203.624C204.344 212.376 204.704 210.376 204.704 208.216V204.664H215.096V214.216ZM211.736 214.216V207.472H207.728V208.24C207.728 210.528 207.424 212.52 206.816 214.216H211.736ZM225.448 204.352C227.4 204.352 228.952 204.944 230.104 206.128C231.256 207.312 231.832 208.88 231.832 210.832C231.832 212.784 231.256 214.352 230.104 215.536C228.952 216.72 227.4 217.312 225.448 217.312C223.512 217.312 221.96 216.72 220.792 215.536C219.64 214.336 219.064 212.768 219.064 210.832C219.064 208.896 219.64 207.336 220.792 206.152C221.96 204.952 223.512 204.352 225.448 204.352ZM225.448 214.528C226.456 214.528 227.208 214.184 227.704 213.496C228.216 212.792 228.472 211.904 228.472 210.832C228.472 209.776 228.216 208.904 227.704 208.216C227.208 207.512 226.456 207.16 225.448 207.16C224.456 207.16 223.704 207.512 223.192 208.216C222.68 208.904 222.424 209.776 222.424 210.832C222.424 211.904 222.68 212.792 223.192 213.496C223.704 214.184 224.456 214.528 225.448 214.528ZM242.538 212.848H245.85C245.69 214.192 245.09 215.272 244.05 216.088C243.026 216.904 241.746 217.312 240.21 217.312C238.306 217.312 236.794 216.728 235.674 215.56C234.554 214.376 233.994 212.8 233.994 210.832C233.994 208.88 234.554 207.312 235.674 206.128C236.794 204.944 238.306 204.352 240.21 204.352C241.746 204.352 243.01 204.744 244.002 205.528C245.01 206.296 245.594 207.32 245.754 208.6H242.418C242.146 207.64 241.418 207.16 240.234 207.16C239.242 207.16 238.514 207.496 238.05 208.168C237.586 208.84 237.354 209.72 237.354 210.808C237.354 211.896 237.586 212.792 238.05 213.496C238.53 214.184 239.258 214.528 240.234 214.528C241.562 214.528 242.33 213.968 242.538 212.848ZM247.626 207.472V204.664H259.074V207.472H255.042V217H251.682V207.472H247.626ZM269.157 217V215.944H268.533C267.749 216.856 266.597 217.312 265.077 217.312C263.733 217.312 262.669 216.92 261.885 216.136C261.101 215.336 260.709 214.36 260.709 213.208C260.709 212.104 261.125 211.144 261.957 210.328C262.789 209.512 264.045 209.104 265.725 209.104H269.013V208.792C269.013 207.512 268.285 206.872 266.829 206.872C265.533 206.872 264.837 207.312 264.741 208.192H261.405C261.437 207.024 261.941 206.096 262.917 205.408C263.893 204.704 265.141 204.352 266.661 204.352C268.421 204.352 269.789 204.728 270.765 205.48C271.757 206.232 272.253 207.4 272.253 208.984V217H269.157ZM266.253 214.648C267.069 214.648 267.733 214.408 268.245 213.928C268.757 213.448 269.013 212.824 269.013 212.056V211.288H266.373C264.837 211.288 264.069 211.84 264.069 212.944C264.069 214.08 264.797 214.648 266.253 214.648ZM285.163 210.16V210.784C285.787 210.944 286.291 211.264 286.675 211.744C287.059 212.224 287.251 212.84 287.251 213.592C287.251 215.864 285.795 217 282.883 217H275.635V204.664H282.691C283.923 204.664 284.875 204.944 285.547 205.504C286.235 206.048 286.579 206.808 286.579 207.784C286.579 208.904 286.107 209.696 285.163 210.16ZM278.923 214.576H282.115C283.283 214.576 283.867 214.12 283.867 213.208C283.867 212.28 283.283 211.816 282.115 211.816H278.923V214.576ZM278.923 207.088V209.464H281.779C282.739 209.464 283.219 209.072 283.219 208.288C283.219 207.488 282.739 207.088 281.779 207.088H278.923ZM293.431 217H290.167V204.664H293.431V211.624H294.007L298.783 204.664H302.095V217H298.831V210.064H298.255L293.431 217ZM304.579 207.472V204.664H316.027V207.472H311.995V217H308.635V207.472H304.579ZM333.773 210.16V210.784C334.397 210.944 334.901 211.264 335.285 211.744C335.669 212.224 335.861 212.84 335.861 213.592C335.861 215.864 334.405 217 331.493 217H324.245V204.664H331.301C332.533 204.664 333.485 204.944 334.157 205.504C334.845 206.048 335.189 206.808 335.189 207.784C335.189 208.904 334.717 209.696 333.773 210.16ZM327.533 214.576H330.725C331.893 214.576 332.477 214.12 332.477 213.208C332.477 212.28 331.893 211.816 330.725 211.816H327.533V214.576ZM327.533 207.088V209.464H330.389C331.349 209.464 331.829 209.072 331.829 208.288C331.829 207.488 331.349 207.088 330.389 207.088H327.533ZM346.624 212.848H349.936C349.776 214.192 349.176 215.272 348.136 216.088C347.112 216.904 345.832 217.312 344.296 217.312C342.392 217.312 340.88 216.728 339.76 215.56C338.64 214.376 338.08 212.8 338.08 210.832C338.08 208.88 338.64 207.312 339.76 206.128C340.88 204.944 342.392 204.352 344.296 204.352C345.832 204.352 347.096 204.744 348.088 205.528C349.096 206.296 349.68 207.32 349.84 208.6H346.504C346.232 207.64 345.504 207.16 344.32 207.16C343.328 207.16 342.6 207.496 342.136 208.168C341.672 208.84 341.44 209.72 341.44 210.808C341.44 211.896 341.672 212.792 342.136 213.496C342.616 214.184 343.344 214.528 344.32 214.528C345.648 214.528 346.416 213.968 346.624 212.848ZM364.24 210.208V211.216H355.408C355.504 213.424 356.504 214.528 358.408 214.528C359.624 214.528 360.392 214.096 360.712 213.232H364.12C363.864 214.512 363.248 215.512 362.272 216.232C361.296 216.952 359.992 217.312 358.36 217.312C356.424 217.312 354.888 216.72 353.752 215.536C352.632 214.352 352.072 212.768 352.072 210.784C352.072 208.816 352.632 207.256 353.752 206.104C354.872 204.936 356.384 204.352 358.288 204.352C360.112 204.352 361.552 204.896 362.608 205.984C363.664 207.072 364.208 208.48 364.24 210.208ZM360.808 208.984C360.584 207.576 359.736 206.872 358.264 206.872C356.792 206.872 355.88 207.576 355.528 208.984H360.808ZM385.624 217H382.264V212.08H377.128V217H373.768V204.664H377.128V209.272H382.264V204.664H385.624V217ZM400.639 210.208V211.216H391.807C391.903 213.424 392.903 214.528 394.807 214.528C396.023 214.528 396.791 214.096 397.111 213.232H400.519C400.263 214.512 399.647 215.512 398.671 216.232C397.695 216.952 396.391 217.312 394.759 217.312C392.823 217.312 391.287 216.72 390.151 215.536C389.031 214.352 388.471 212.768 388.471 210.784C388.471 208.816 389.031 207.256 390.151 206.104C391.271 204.936 392.783 204.352 394.687 204.352C396.511 204.352 397.951 204.896 399.007 205.984C400.063 207.072 400.607 208.48 400.639 210.208ZM397.207 208.984C396.983 207.576 396.135 206.872 394.663 206.872C393.191 206.872 392.279 207.576 391.927 208.984H397.207ZM409.175 204.352C411.127 204.352 412.679 204.944 413.831 206.128C414.983 207.312 415.559 208.88 415.559 210.832C415.559 212.784 414.983 214.352 413.831 215.536C412.679 216.72 411.127 217.312 409.175 217.312C407.239 217.312 405.687 216.72 404.519 215.536C403.367 214.336 402.791 212.768 402.791 210.832C402.791 208.896 403.367 207.336 404.519 206.152C405.687 204.952 407.239 204.352 409.175 204.352ZM409.175 214.528C410.183 214.528 410.935 214.184 411.431 213.496C411.943 212.792 412.199 211.904 412.199 210.832C412.199 209.776 411.943 208.904 411.431 208.216C410.935 207.512 410.183 207.16 409.175 207.16C408.183 207.16 407.431 207.512 406.919 208.216C406.407 208.904 406.151 209.776 406.151 210.832C406.151 211.904 406.407 212.792 406.919 213.496C407.431 214.184 408.183 214.528 409.175 214.528ZM424.681 205.072C426.441 205.072 427.857 205.648 428.929 206.8C430.017 207.936 430.561 209.4 430.561 211.192C430.561 212.984 429.969 214.456 428.785 215.608C427.617 216.744 426.081 217.312 424.177 217.312C422.129 217.312 420.537 216.664 419.401 215.368C418.281 214.072 417.721 212.184 417.721 209.704C417.721 204.392 419.345 201.48 422.593 200.968L425.761 200.464C426.241 200.384 426.561 200.288 426.721 200.176C426.881 200.048 426.977 199.84 427.009 199.552H429.721C429.721 200.432 429.553 201.168 429.217 201.76C428.881 202.352 428.217 202.736 427.225 202.912L423.169 203.56C422.305 203.688 421.649 204 421.201 204.496C420.753 204.992 420.441 205.744 420.265 206.752H420.889C421.673 205.632 422.937 205.072 424.681 205.072ZM421.873 213.544C422.401 214.2 423.161 214.528 424.153 214.528C425.145 214.528 425.897 214.2 426.409 213.544C426.921 212.888 427.177 212.072 427.177 211.096C427.177 210.12 426.921 209.312 426.409 208.672C425.897 208.032 425.145 207.712 424.153 207.712C423.145 207.712 422.385 208.032 421.873 208.672C421.361 209.312 421.105 210.12 421.105 211.096C421.105 212.072 421.361 212.888 421.873 213.544ZM441.275 217L438.875 212.464H437.987L435.539 217H431.987L435.515 210.664L432.347 204.664H435.827L438.035 208.912H438.923L441.179 204.664H444.611L441.395 210.616L444.899 217H441.275ZM452.792 204.352C454.744 204.352 456.296 204.944 457.448 206.128C458.6 207.312 459.176 208.88 459.176 210.832C459.176 212.784 458.6 214.352 457.448 215.536C456.296 216.72 454.744 217.312 452.792 217.312C450.856 217.312 449.304 216.72 448.136 215.536C446.984 214.336 446.408 212.768 446.408 210.832C446.408 208.896 446.984 207.336 448.136 206.152C449.304 204.952 450.856 204.352 452.792 204.352ZM452.792 214.528C453.8 214.528 454.552 214.184 455.048 213.496C455.56 212.792 455.816 211.904 455.816 210.832C455.816 209.776 455.56 208.904 455.048 208.216C454.552 207.512 453.8 207.16 452.792 207.16C451.8 207.16 451.048 207.512 450.536 208.216C450.024 208.904 449.768 209.776 449.768 210.832C449.768 211.904 450.024 212.792 450.536 213.496C451.048 214.184 451.8 214.528 452.792 214.528ZM474.01 214.216H476.194V220.432H473.026V217H463.882V220.432H460.714V214.216H462.538C463.258 212.376 463.618 210.376 463.618 208.216V204.664H474.01V214.216ZM470.65 214.216V207.472H466.642V208.24C466.642 210.528 466.338 212.52 465.73 214.216H470.65ZM481.938 217H478.674V204.664H481.938V211.624H482.514L487.29 204.664H490.602V217H487.338V210.064H486.762L481.938 217ZM494.143 217V204.664H498.607L501.103 209.848H501.727L504.223 204.664H508.663V217H505.399V209.128H504.775L502.807 213.112H499.999L498.031 209.128H497.407V217H494.143ZM512.214 204.664H515.574V208.264H518.358C519.942 208.264 521.158 208.648 522.006 209.416C522.87 210.168 523.302 211.224 523.302 212.584C523.302 213.96 522.87 215.04 522.006 215.824C521.158 216.608 519.942 217 518.358 217H512.214V204.664ZM515.574 210.904V214.216H517.878C518.646 214.216 519.182 214.08 519.486 213.808C519.79 213.52 519.942 213.104 519.942 212.56C519.942 212 519.79 211.584 519.486 211.312C519.182 211.04 518.646 210.904 517.878 210.904H515.574ZM525.15 204.664H528.51V217H525.15V204.664ZM543.537 210.208V211.216H534.705C534.801 213.424 535.801 214.528 537.705 214.528C538.921 214.528 539.689 214.096 540.009 213.232H543.417C543.161 214.512 542.545 215.512 541.569 216.232C540.593 216.952 539.289 217.312 537.657 217.312C535.721 217.312 534.185 216.72 533.049 215.536C531.929 214.352 531.369 212.768 531.369 210.784C531.369 208.816 531.929 207.256 533.049 206.104C534.169 204.936 535.681 204.352 537.585 204.352C539.409 204.352 540.849 204.896 541.905 205.984C542.961 207.072 543.505 208.48 543.537 210.208ZM540.105 208.984C539.881 207.576 539.033 206.872 537.561 206.872C536.089 206.872 535.177 207.576 534.825 208.984H540.105ZM56.752 246.216H58.936V252.432H55.768V249H46.624V252.432H43.456V246.216H45.28C46 244.376 46.36 242.376 46.36 240.216V236.664H56.752V246.216ZM53.392 246.216V239.472H49.384V240.24C49.384 242.528 49.08 244.52 48.472 246.216H53.392ZM67.1046 236.352C69.0566 236.352 70.6086 236.944 71.7606 238.128C72.9126 239.312 73.4886 240.88 73.4886 242.832C73.4886 244.784 72.9126 246.352 71.7606 247.536C70.6086 248.72 69.0566 249.312 67.1046 249.312C65.1686 249.312 63.6166 248.72 62.4486 247.536C61.2966 246.336 60.7206 244.768 60.7206 242.832C60.7206 240.896 61.2966 239.336 62.4486 238.152C63.6166 236.952 65.1686 236.352 67.1046 236.352ZM67.1046 246.528C68.1126 246.528 68.8646 246.184 69.3606 245.496C69.8726 244.792 70.1286 243.904 70.1286 242.832C70.1286 241.776 69.8726 240.904 69.3606 240.216C68.8646 239.512 68.1126 239.16 67.1046 239.16C66.1126 239.16 65.3606 239.512 64.8486 240.216C64.3366 240.904 64.0806 241.776 64.0806 242.832C64.0806 243.904 64.3366 244.792 64.8486 245.496C65.3606 246.184 66.1126 246.528 67.1046 246.528ZM84.8903 249L82.3943 244.08H79.7063V249H76.3463V236.664H79.7063V241.272H82.4423L84.7943 236.664H88.2263L85.2023 242.616L88.4183 249H84.8903ZM95.6502 253.8H92.2902L94.9062 247.728L89.6742 236.664H93.1782L96.2502 243.24H96.8742L99.7062 236.664H103.09L95.6502 253.8ZM105.268 249V236.664H109.732L112.228 241.848H112.852L115.348 236.664H119.788V249H116.524V241.128H115.9L113.932 245.112H111.124L109.156 241.128H108.532V249H105.268ZM134.811 242.208V243.216H125.979C126.075 245.424 127.075 246.528 128.979 246.528C130.195 246.528 130.963 246.096 131.283 245.232H134.691C134.435 246.512 133.819 247.512 132.843 248.232C131.867 248.952 130.563 249.312 128.931 249.312C126.995 249.312 125.459 248.72 124.323 247.536C123.203 246.352 122.643 244.768 122.643 242.784C122.643 240.816 123.203 239.256 124.323 238.104C125.443 236.936 126.955 236.352 128.859 236.352C130.683 236.352 132.123 236.896 133.179 237.984C134.235 239.072 134.779 240.48 134.811 242.208ZM131.379 240.984C131.155 239.576 130.307 238.872 128.835 238.872C127.363 238.872 126.451 239.576 126.099 240.984H131.379ZM149.515 249H146.155V244.08H141.019V249H137.659V236.664H141.019V241.272H146.155V236.664H149.515V249ZM152.001 239.472V236.664H163.449V239.472H159.417V249H156.057V239.472H152.001ZM165.948 236.664H169.308V240.264H172.092C173.676 240.264 174.892 240.648 175.74 241.416C176.604 242.168 177.036 243.224 177.036 244.584C177.036 245.96 176.604 247.04 175.74 247.824C174.892 248.608 173.676 249 172.092 249H165.948V236.664ZM169.308 242.904V246.216H171.612C172.38 246.216 172.916 246.08 173.22 245.808C173.524 245.52 173.676 245.104 173.676 244.56C173.676 244 173.524 243.584 173.22 243.312C172.916 243.04 172.38 242.904 171.612 242.904H169.308ZM178.884 236.664H182.244V249H178.884V236.664ZM204.455 246.216H206.639V252.432H203.471V249H194.327V252.432H191.159V246.216H192.983C193.703 244.376 194.063 242.376 194.063 240.216V236.664H204.455V246.216ZM201.095 246.216V239.472H197.087V240.24C197.087 242.528 196.783 244.52 196.175 246.216H201.095ZM208.598 249V245.784H209.03C209.83 245.784 210.406 245.504 210.758 244.944C211.11 244.368 211.286 243.336 211.286 241.848V236.664H221.822V249H218.462V239.472H214.382V241.968C214.382 244.544 213.958 246.36 213.11 247.416C212.262 248.472 210.902 249 209.03 249H208.598ZM229.921 236.664H236.185V249H232.825V244.872H229.753L228.169 249H224.857L226.729 244.152C225.513 243.464 224.905 242.344 224.905 240.792C224.905 239.496 225.337 238.488 226.201 237.768C227.081 237.032 228.321 236.664 229.921 236.664ZM232.825 242.4V239.352H230.185C229.465 239.352 228.953 239.48 228.649 239.736C228.361 239.992 228.217 240.368 228.217 240.864C228.217 241.376 228.361 241.76 228.649 242.016C228.953 242.272 229.465 242.4 230.185 242.4H232.825ZM255.913 242.16V242.784C256.537 242.944 257.041 243.264 257.425 243.744C257.809 244.224 258.001 244.84 258.001 245.592C258.001 247.864 256.545 249 253.633 249H246.385V236.664H253.441C254.673 236.664 255.625 236.944 256.297 237.504C256.985 238.048 257.329 238.808 257.329 239.784C257.329 240.904 256.857 241.696 255.913 242.16ZM249.673 246.576H252.865C254.033 246.576 254.617 246.12 254.617 245.208C254.617 244.28 254.033 243.816 252.865 243.816H249.673V246.576ZM249.673 239.088V241.464H252.529C253.489 241.464 253.969 241.072 253.969 240.288C253.969 239.488 253.489 239.088 252.529 239.088H249.673ZM270.445 242.16V242.784C271.069 242.944 271.573 243.264 271.957 243.744C272.341 244.224 272.533 244.84 272.533 245.592C272.533 247.864 271.077 249 268.165 249H260.917V236.664H267.973C269.205 236.664 270.157 236.944 270.829 237.504C271.517 238.048 271.861 238.808 271.861 239.784C271.861 240.904 271.389 241.696 270.445 242.16ZM264.205 246.576H267.397C268.565 246.576 269.149 246.12 269.149 245.208C269.149 244.28 268.565 243.816 267.397 243.816H264.205V246.576ZM264.205 239.088V241.464H267.061C268.021 241.464 268.501 241.072 268.501 240.288C268.501 239.488 268.021 239.088 267.061 239.088H264.205ZM281.136 236.352C283.088 236.352 284.64 236.944 285.792 238.128C286.944 239.312 287.52 240.88 287.52 242.832C287.52 244.784 286.944 246.352 285.792 247.536C284.64 248.72 283.088 249.312 281.136 249.312C279.2 249.312 277.648 248.72 276.48 247.536C275.328 246.336 274.752 244.768 274.752 242.832C274.752 240.896 275.328 239.336 276.48 238.152C277.648 236.952 279.2 236.352 281.136 236.352ZM281.136 246.528C282.144 246.528 282.896 246.184 283.392 245.496C283.904 244.792 284.16 243.904 284.16 242.832C284.16 241.776 283.904 240.904 283.392 240.216C282.896 239.512 282.144 239.16 281.136 239.16C280.144 239.16 279.392 239.512 278.88 240.216C278.368 240.904 278.112 241.776 278.112 242.832C278.112 243.904 278.368 244.792 278.88 245.496C279.392 246.184 280.144 246.528 281.136 246.528ZM297.41 240.288C297.41 239.488 296.706 239.088 295.298 239.088C293.954 239.088 293.186 239.536 292.994 240.432H289.922C290.05 239.088 290.618 238.072 291.626 237.384C292.634 236.696 293.938 236.352 295.538 236.352C297.138 236.352 298.402 236.688 299.33 237.36C300.274 238.016 300.746 238.864 300.746 239.904C300.746 241.104 300.33 241.888 299.498 242.256V242.88C300.57 243.232 301.106 244.08 301.106 245.424C301.106 246.56 300.594 247.496 299.57 248.232C298.546 248.952 297.202 249.312 295.538 249.312C293.65 249.312 292.202 248.952 291.194 248.232C290.202 247.496 289.634 246.464 289.49 245.136H292.586C292.858 246.096 293.786 246.576 295.37 246.576C296.954 246.576 297.746 246.136 297.746 245.256C297.746 244.824 297.586 244.512 297.266 244.32C296.962 244.128 296.458 244.032 295.754 244.032H293.738V241.464H295.634C296.818 241.464 297.41 241.072 297.41 240.288ZM311.649 249V247.944H311.025C310.241 248.856 309.089 249.312 307.569 249.312C306.225 249.312 305.161 248.92 304.377 248.136C303.593 247.336 303.201 246.36 303.201 245.208C303.201 244.104 303.617 243.144 304.449 242.328C305.281 241.512 306.537 241.104 308.217 241.104H311.505V240.792C311.505 239.512 310.777 238.872 309.321 238.872C308.025 238.872 307.329 239.312 307.233 240.192H303.897C303.929 239.024 304.433 238.096 305.409 237.408C306.385 236.704 307.633 236.352 309.153 236.352C310.913 236.352 312.281 236.728 313.257 237.48C314.249 238.232 314.745 239.4 314.745 240.984V249H311.649ZM308.745 246.648C309.561 246.648 310.225 246.408 310.737 245.928C311.249 245.448 311.505 244.824 311.505 244.056V243.288H308.865C307.329 243.288 306.561 243.84 306.561 244.944C306.561 246.08 307.289 246.648 308.745 246.648ZM334.335 242.16V242.784C334.959 242.944 335.463 243.264 335.847 243.744C336.231 244.224 336.423 244.84 336.423 245.592C336.423 247.864 334.967 249 332.055 249H324.807V236.664H331.863C333.095 236.664 334.047 236.944 334.719 237.504C335.407 238.048 335.751 238.808 335.751 239.784C335.751 240.904 335.279 241.696 334.335 242.16ZM328.095 246.576H331.287C332.455 246.576 333.039 246.12 333.039 245.208C333.039 244.28 332.455 243.816 331.287 243.816H328.095V246.576ZM328.095 239.088V241.464H330.951C331.911 241.464 332.391 241.072 332.391 240.288C332.391 239.488 331.911 239.088 330.951 239.088H328.095ZM346.234 231.864H354.058C356.026 231.864 357.546 232.344 358.618 233.304C359.706 234.264 360.25 235.6 360.25 237.312C360.25 239.056 359.706 240.416 358.618 241.392C357.546 242.368 356.026 242.856 354.058 242.856H349.81V249H346.234V231.864ZM349.81 239.712H353.554C354.626 239.712 355.394 239.52 355.858 239.136C356.338 238.736 356.578 238.144 356.578 237.36C356.578 236.576 356.338 235.992 355.858 235.608C355.394 235.208 354.626 235.008 353.554 235.008H349.81V239.712ZM368.136 236.352C370.088 236.352 371.64 236.944 372.792 238.128C373.944 239.312 374.52 240.88 374.52 242.832C374.52 244.784 373.944 246.352 372.792 247.536C371.64 248.72 370.088 249.312 368.136 249.312C366.2 249.312 364.648 248.72 363.48 247.536C362.328 246.336 361.752 244.768 361.752 242.832C361.752 240.896 362.328 239.336 363.48 238.152C364.648 236.952 366.2 236.352 368.136 236.352ZM368.136 246.528C369.144 246.528 369.896 246.184 370.392 245.496C370.904 244.792 371.16 243.904 371.16 242.832C371.16 241.776 370.904 240.904 370.392 240.216C369.896 239.512 369.144 239.16 368.136 239.16C367.144 239.16 366.392 239.512 365.88 240.216C365.368 240.904 365.112 241.776 365.112 242.832C365.112 243.904 365.368 244.792 365.88 245.496C366.392 246.184 367.144 246.528 368.136 246.528ZM385.226 244.848H388.538C388.378 246.192 387.778 247.272 386.738 248.088C385.714 248.904 384.434 249.312 382.898 249.312C380.994 249.312 379.482 248.728 378.362 247.56C377.242 246.376 376.682 244.8 376.682 242.832C376.682 240.88 377.242 239.312 378.362 238.128C379.482 236.944 380.994 236.352 382.898 236.352C384.434 236.352 385.698 236.744 386.69 237.528C387.698 238.296 388.282 239.32 388.442 240.6H385.106C384.834 239.64 384.106 239.16 382.922 239.16C381.93 239.16 381.202 239.496 380.738 240.168C380.274 240.84 380.042 241.72 380.042 242.808C380.042 243.896 380.274 244.792 380.738 245.496C381.218 246.184 381.946 246.528 382.922 246.528C384.25 246.528 385.018 245.968 385.226 244.848ZM399.218 244.848H402.53C402.37 246.192 401.77 247.272 400.73 248.088C399.706 248.904 398.426 249.312 396.89 249.312C394.986 249.312 393.474 248.728 392.354 247.56C391.234 246.376 390.674 244.8 390.674 242.832C390.674 240.88 391.234 239.312 392.354 238.128C393.474 236.944 394.986 236.352 396.89 236.352C398.426 236.352 399.69 236.744 400.682 237.528C401.69 238.296 402.274 239.32 402.434 240.6H399.098C398.826 239.64 398.098 239.16 396.914 239.16C395.922 239.16 395.194 239.496 394.73 240.168C394.266 240.84 394.034 241.72 394.034 242.808C394.034 243.896 394.266 244.792 394.73 245.496C395.21 246.184 395.938 246.528 396.914 246.528C398.242 246.528 399.01 245.968 399.218 244.848ZM408.626 249H405.362V236.664H408.626V243.624H409.202L413.978 236.664H417.29V249H414.026V242.064H413.45L408.626 249ZM432.567 236.352C434.439 236.352 435.959 236.968 437.127 238.2C438.295 239.416 438.879 240.96 438.879 242.832C438.879 244.72 438.295 246.272 437.127 247.488C435.959 248.704 434.439 249.312 432.567 249.312C430.887 249.312 429.487 248.84 428.367 247.896C427.263 246.936 426.599 245.664 426.375 244.08H424.119V249H420.831V236.664H424.119V241.272H426.447C426.735 239.768 427.423 238.576 428.511 237.696C429.615 236.8 430.967 236.352 432.567 236.352ZM432.543 246.528C433.519 246.528 434.255 246.184 434.751 245.496C435.263 244.792 435.519 243.904 435.519 242.832C435.519 241.776 435.263 240.904 434.751 240.216C434.255 239.512 433.519 239.16 432.543 239.16C431.551 239.16 430.799 239.512 430.287 240.216C429.791 240.904 429.543 241.776 429.543 242.832C429.543 243.904 429.791 244.792 430.287 245.496C430.799 246.184 431.551 246.528 432.543 246.528Z" fill="#111827"/>
<path d="M52.504 261.864L58.648 279H56.944L55 273.456H47.104L45.16 279H43.504L49.624 261.864H52.504ZM50.584 263.544L47.608 272.016H54.496L51.52 263.544H50.584ZM59.7724 279V277.608H60.1804C61.0604 277.608 61.6844 277.168 62.0524 276.288C62.4204 275.408 62.6044 273.808 62.6044 271.488V267H71.3404V279H69.8284V268.344H64.0204V271.488C64.0204 274.288 63.7244 276.24 63.1324 277.344C62.5404 278.448 61.5564 279 60.1804 279H59.7724ZM85.495 272.256V272.736H76.159V273.072C76.159 274.56 76.535 275.752 77.287 276.648C78.055 277.528 79.079 277.968 80.359 277.968C82.199 277.968 83.327 277.256 83.743 275.832H85.255C85.047 276.856 84.527 277.696 83.695 278.352C82.863 278.992 81.751 279.312 80.359 279.312C78.567 279.312 77.167 278.704 76.159 277.488C75.151 276.272 74.647 274.728 74.647 272.856C74.647 271 75.151 269.512 76.159 268.392C77.183 267.256 78.575 266.688 80.335 266.688C81.983 266.688 83.255 267.232 84.151 268.32C85.047 269.408 85.495 270.72 85.495 272.256ZM80.287 268.032C79.135 268.032 78.207 268.36 77.503 269.016C76.815 269.672 76.399 270.464 76.255 271.392H83.935C83.871 270.464 83.519 269.672 82.879 269.016C82.239 268.36 81.375 268.032 80.287 268.032ZM97.0778 279L94.3178 273.48H90.3098V279H88.7978V267H90.3098V272.136H94.3418L96.9338 267H98.5658L95.6378 272.784L98.7338 279H97.0778ZM109.712 275.568H111.224C110.968 276.704 110.416 277.616 109.568 278.304C108.736 278.976 107.664 279.312 106.352 279.312C104.56 279.312 103.152 278.712 102.128 277.512C101.12 276.312 100.616 274.808 100.616 273C100.616 271.16 101.12 269.648 102.128 268.464C103.136 267.28 104.544 266.688 106.352 266.688C107.696 266.688 108.776 267.024 109.592 267.696C110.408 268.352 110.936 269.232 111.176 270.336H109.664C109.152 268.8 108.048 268.032 106.352 268.032C104.944 268.032 103.888 268.496 103.184 269.424C102.48 270.352 102.128 271.528 102.128 272.952C102.128 274.376 102.48 275.568 103.184 276.528C103.904 277.488 104.96 277.968 106.352 277.968C108.192 277.968 109.312 277.168 109.712 275.568ZM124.448 272.256V272.736H115.112V273.072C115.112 274.56 115.488 275.752 116.24 276.648C117.008 277.528 118.032 277.968 119.312 277.968C121.152 277.968 122.28 277.256 122.696 275.832H124.208C124 276.856 123.48 277.696 122.648 278.352C121.816 278.992 120.704 279.312 119.312 279.312C117.52 279.312 116.12 278.704 115.112 277.488C114.104 276.272 113.6 274.728 113.6 272.856C113.6 271 114.104 269.512 115.112 268.392C116.136 267.256 117.528 266.688 119.288 266.688C120.936 266.688 122.208 267.232 123.104 268.32C124 269.408 124.448 270.72 124.448 272.256ZM119.24 268.032C118.088 268.032 117.16 268.36 116.456 269.016C115.768 269.672 115.352 270.464 115.208 271.392H122.888C122.824 270.464 122.472 269.672 121.832 269.016C121.192 268.36 120.328 268.032 119.24 268.032ZM130.415 279H127.751V267H129.263V277.512H129.743L135.311 267H138.095V279H136.583V268.488H136.103L130.415 279ZM135.071 261.552H136.343V261.84C136.343 262.832 136.015 263.616 135.359 264.192C134.703 264.752 133.871 265.032 132.863 265.032C131.855 265.032 131.023 264.752 130.367 264.192C129.727 263.632 129.407 262.848 129.407 261.84V261.552H130.679V261.84C130.679 262.464 130.879 262.96 131.279 263.328C131.679 263.68 132.207 263.856 132.863 263.856C133.535 263.856 134.071 263.68 134.471 263.328C134.871 262.96 135.071 262.464 135.071 261.84V261.552Z" fill="#6B7280"/>
<path d="M566.539 267.589C566.539 272.232 565.834 276.22 564.426 279.554C563.018 283.006 561.198 285.804 558.968 287.946C556.738 290.208 554.215 291.815 551.398 292.768C548.464 293.839 545.588 294.375 542.771 294.375L542.771 288.125C545.823 288.125 548.698 287.054 551.398 284.911C553.98 282.887 555.506 280.089 555.975 276.518C555.623 276.637 555.212 276.756 554.743 276.875C554.391 276.994 553.98 277.113 553.511 277.232C552.924 277.351 552.278 277.411 551.574 277.411C548.053 277.411 545.119 276.042 542.771 273.304C540.424 270.685 539.25 267.589 539.25 264.018C539.25 260.446 540.482 257.292 542.947 254.554C545.295 251.935 548.464 250.625 552.454 250.625C556.914 250.625 560.377 252.292 562.842 255.625C565.306 259.077 566.539 263.065 566.539 267.589ZM601.75 267.589C601.75 272.232 601.046 276.22 599.637 279.554C598.229 283.006 596.41 285.804 594.18 287.946C591.95 290.208 589.426 291.815 586.609 292.768C583.675 293.839 580.799 294.375 577.982 294.375L577.982 288.125C581.034 288.125 583.91 287.054 586.609 284.911C589.191 282.887 590.717 280.089 591.187 276.518C590.835 276.637 590.424 276.756 589.954 276.875C589.602 276.994 589.191 277.113 588.722 277.232C588.135 277.351 587.489 277.411 586.785 277.411C583.264 277.411 580.33 276.042 577.982 273.304C575.635 270.685 574.461 267.589 574.461 264.018C574.461 260.446 575.694 257.292 578.158 254.554C580.506 251.935 583.675 250.625 587.665 250.625C592.126 250.625 595.588 252.292 598.053 255.625C600.518 259.077 601.75 263.065 601.75 267.589Z" fill="#EDE9FE"/>
</svg>
