<svg width="626" height="318" viewBox="0 0 626 318" fill="none" xmlns="http://www.w3.org/2000/svg">
<rect width="626" height="318" rx="16" fill="#F9FAFB"/>
<path d="M54.184 44.688C54.184 44.064 53.92 43.584 53.392 43.248C52.88 42.912 52.216 42.744 51.4 42.744C49.576 42.744 48.536 43.4 48.28 44.712H44.584C44.76 43.08 45.448 41.816 46.648 40.92C47.864 40.008 49.464 39.552 51.448 39.552C53.432 39.552 54.992 39.992 56.128 40.872C57.28 41.736 57.856 42.864 57.856 44.256C57.856 45.856 57.28 46.968 56.128 47.592V48.216C57.696 48.792 58.48 50.064 58.48 52.032C58.48 53.552 57.848 54.816 56.584 55.824C55.336 56.816 53.632 57.312 51.472 57.312C49.168 57.312 47.384 56.832 46.12 55.872C44.872 54.912 44.144 53.552 43.936 51.792H47.704C48.104 53.344 49.36 54.12 51.472 54.12C52.48 54.12 53.272 53.92 53.848 53.52C54.44 53.12 54.736 52.576 54.736 51.888C54.736 50.464 53.736 49.752 51.736 49.752H49.216V46.632H51.736C53.368 46.632 54.184 45.984 54.184 44.688ZM69.0709 57V55.944H68.4469C67.6629 56.856 66.5109 57.312 64.9909 57.312C63.6469 57.312 62.5829 56.92 61.7989 56.136C61.0149 55.336 60.6229 54.36 60.6229 53.208C60.6229 52.104 61.0389 51.144 61.8709 50.328C62.7029 49.512 63.9589 49.104 65.6389 49.104H68.9269V48.792C68.9269 47.512 68.1989 46.872 66.7429 46.872C65.4469 46.872 64.7509 47.312 64.6549 48.192H61.3189C61.3509 47.024 61.8549 46.096 62.8309 45.408C63.8069 44.704 65.0549 44.352 66.5749 44.352C68.3349 44.352 69.7029 44.728 70.6789 45.48C71.6709 46.232 72.1669 47.4 72.1669 48.984V57H69.0709ZM66.1669 54.648C66.9829 54.648 67.6469 54.408 68.1589 53.928C68.6709 53.448 68.9269 52.824 68.9269 52.056V51.288H66.2869C64.7509 51.288 63.9829 51.84 63.9829 52.944C63.9829 54.08 64.7109 54.648 66.1669 54.648ZM84.0934 57L81.5974 52.08H78.9094V57H75.5494V44.664H78.9094V49.272H81.6454L83.9974 44.664H87.4294L84.4054 50.616L87.6214 57H84.0934ZM97.8053 57V55.944H97.1813C96.3973 56.856 95.2453 57.312 93.7253 57.312C92.3813 57.312 91.3173 56.92 90.5333 56.136C89.7493 55.336 89.3573 54.36 89.3573 53.208C89.3573 52.104 89.7733 51.144 90.6053 50.328C91.4373 49.512 92.6933 49.104 94.3733 49.104H97.6613V48.792C97.6613 47.512 96.9333 46.872 95.4773 46.872C94.1813 46.872 93.4853 47.312 93.3893 48.192H90.0533C90.0853 47.024 90.5893 46.096 91.5653 45.408C92.5413 44.704 93.7893 44.352 95.3093 44.352C97.0693 44.352 98.4373 44.728 99.4133 45.48C100.405 46.232 100.901 47.4 100.901 48.984V57H97.8053ZM94.9013 54.648C95.7173 54.648 96.3813 54.408 96.8933 53.928C97.4053 53.448 97.6613 52.824 97.6613 52.056V51.288H95.0213C93.4853 51.288 92.7173 51.84 92.7173 52.944C92.7173 54.08 93.4453 54.648 94.9013 54.648ZM111.316 48.288C111.316 47.488 110.612 47.088 109.204 47.088C107.86 47.088 107.092 47.536 106.9 48.432H103.828C103.956 47.088 104.524 46.072 105.532 45.384C106.54 44.696 107.844 44.352 109.444 44.352C111.044 44.352 112.308 44.688 113.236 45.36C114.18 46.016 114.652 46.864 114.652 47.904C114.652 49.104 114.236 49.888 113.404 50.256V50.88C114.476 51.232 115.012 52.08 115.012 53.424C115.012 54.56 114.5 55.496 113.476 56.232C112.452 56.952 111.108 57.312 109.444 57.312C107.556 57.312 106.108 56.952 105.1 56.232C104.108 55.496 103.54 54.464 103.396 53.136H106.492C106.764 54.096 107.692 54.576 109.276 54.576C110.86 54.576 111.652 54.136 111.652 53.256C111.652 52.824 111.492 52.512 111.172 52.32C110.868 52.128 110.364 52.032 109.66 52.032H107.644V49.464H109.54C110.724 49.464 111.316 49.072 111.316 48.288ZM125.555 57V55.944H124.931C124.147 56.856 122.995 57.312 121.475 57.312C120.131 57.312 119.067 56.92 118.283 56.136C117.499 55.336 117.107 54.36 117.107 53.208C117.107 52.104 117.523 51.144 118.355 50.328C119.187 49.512 120.443 49.104 122.123 49.104H125.411V48.792C125.411 47.512 124.683 46.872 123.227 46.872C121.931 46.872 121.235 47.312 121.139 48.192H117.803C117.835 47.024 118.339 46.096 119.315 45.408C120.291 44.704 121.539 44.352 123.059 44.352C124.819 44.352 126.187 44.728 127.163 45.48C128.155 46.232 128.651 47.4 128.651 48.984V57H125.555ZM122.651 54.648C123.467 54.648 124.131 54.408 124.643 53.928C125.155 53.448 125.411 52.824 125.411 52.056V51.288H122.771C121.235 51.288 120.467 51.84 120.467 52.944C120.467 54.08 121.195 54.648 122.651 54.648ZM130.786 57V53.784H131.218C132.018 53.784 132.594 53.504 132.946 52.944C133.298 52.368 133.474 51.336 133.474 49.848V44.664H144.01V57H140.65V47.472H136.57V49.968C136.57 52.544 136.146 54.36 135.298 55.416C134.45 56.472 133.09 57 131.218 57H130.786ZM168.101 44.664H171.341V57H154.253V44.664H157.517V54.216H161.189V44.664H164.429V54.216H168.101V44.664ZM178.165 57H174.901V44.664H178.165V51.624H178.741L183.517 44.664H186.829V57H183.565V50.064H182.989L178.165 57ZM198.914 57L196.418 52.08H193.73V57H190.37V44.664H193.73V49.272H196.466L198.818 44.664H202.25L199.226 50.616L202.442 57H198.914ZM212.626 57V55.944H212.002C211.218 56.856 210.066 57.312 208.546 57.312C207.202 57.312 206.138 56.92 205.354 56.136C204.57 55.336 204.178 54.36 204.178 53.208C204.178 52.104 204.594 51.144 205.426 50.328C206.258 49.512 207.514 49.104 209.194 49.104H212.482V48.792C212.482 47.512 211.754 46.872 210.298 46.872C209.002 46.872 208.306 47.312 208.21 48.192H204.874C204.906 47.024 205.41 46.096 206.386 45.408C207.362 44.704 208.61 44.352 210.13 44.352C211.89 44.352 213.258 44.728 214.234 45.48C215.226 46.232 215.722 47.4 215.722 48.984V57H212.626ZM209.722 54.648C210.538 54.648 211.202 54.408 211.714 53.928C212.226 53.448 212.482 52.824 212.482 52.056V51.288H209.842C208.306 51.288 207.538 51.84 207.538 52.944C207.538 54.08 208.266 54.648 209.722 54.648ZM225.344 47.16C224.352 47.16 223.6 47.512 223.088 48.216C222.592 48.904 222.344 49.776 222.344 50.832C222.344 51.888 222.592 52.768 223.088 53.472C223.6 54.176 224.352 54.528 225.344 54.528C226.304 54.528 227.032 54.184 227.528 53.496C228.04 52.808 228.296 51.92 228.296 50.832C228.296 49.76 228.04 48.88 227.528 48.192C227.032 47.504 226.304 47.16 225.344 47.16ZM219.104 44.664H222.344V45.792H222.968C223.736 44.832 224.888 44.352 226.424 44.352C228.024 44.352 229.296 44.96 230.24 46.176C231.184 47.376 231.656 48.928 231.656 50.832C231.656 52.752 231.184 54.312 230.24 55.512C229.296 56.712 228.024 57.312 226.424 57.312C224.92 57.312 223.808 56.832 223.088 55.872H222.464V61.8H219.104V44.664ZM246.359 57H242.999V52.08H237.863V57H234.503V44.664H237.863V49.272H242.999V44.664H246.359V57ZM249.901 44.664H253.261V48.264H256.045C257.629 48.264 258.845 48.648 259.693 49.416C260.557 50.168 260.989 51.224 260.989 52.584C260.989 53.96 260.557 55.04 259.693 55.824C258.845 56.608 257.629 57 256.045 57H249.901V44.664ZM253.261 50.904V54.216H255.565C256.333 54.216 256.869 54.08 257.173 53.808C257.477 53.52 257.629 53.104 257.629 52.56C257.629 52 257.477 51.584 257.173 51.312C256.869 51.04 256.333 50.904 255.565 50.904H253.261ZM262.837 44.664H266.197V57H262.837V44.664ZM281.225 50.208V51.216H272.393C272.489 53.424 273.489 54.528 275.393 54.528C276.609 54.528 277.377 54.096 277.697 53.232H281.105C280.849 54.512 280.233 55.512 279.257 56.232C278.281 56.952 276.977 57.312 275.345 57.312C273.409 57.312 271.873 56.72 270.737 55.536C269.617 54.352 269.057 52.768 269.057 50.784C269.057 48.816 269.617 47.256 270.737 46.104C271.857 44.936 273.369 44.352 275.273 44.352C277.097 44.352 278.537 44.896 279.593 45.984C280.649 47.072 281.193 48.48 281.225 50.208ZM277.793 48.984C277.569 47.576 276.721 46.872 275.249 46.872C273.777 46.872 272.865 47.576 272.513 48.984H277.793ZM290.057 44.664H293.441V48.264C293.441 48.536 293.457 48.768 293.489 48.96C293.537 49.136 293.633 49.328 293.777 49.536C293.921 49.728 294.161 49.88 294.497 49.992C294.833 50.088 295.257 50.136 295.769 50.136C296.585 50.136 297.361 50.048 298.097 49.872V44.664H301.457V57H298.097V52.584C297.025 52.808 295.881 52.92 294.665 52.92C293.673 52.92 292.849 52.816 292.193 52.608C291.553 52.384 291.081 52.064 290.777 51.648C290.489 51.232 290.297 50.816 290.201 50.4C290.105 49.984 290.057 49.488 290.057 48.912V44.664ZM312.423 57V55.944H311.799C311.015 56.856 309.863 57.312 308.343 57.312C306.999 57.312 305.935 56.92 305.151 56.136C304.367 55.336 303.975 54.36 303.975 53.208C303.975 52.104 304.391 51.144 305.223 50.328C306.055 49.512 307.311 49.104 308.991 49.104H312.279V48.792C312.279 47.512 311.551 46.872 310.095 46.872C308.799 46.872 308.103 47.312 308.007 48.192H304.671C304.703 47.024 305.207 46.096 306.183 45.408C307.159 44.704 308.407 44.352 309.927 44.352C311.687 44.352 313.055 44.728 314.031 45.48C315.023 46.232 315.519 47.4 315.519 48.984V57H312.423ZM309.519 54.648C310.335 54.648 310.999 54.408 311.511 53.928C312.023 53.448 312.279 52.824 312.279 52.056V51.288H309.639C308.103 51.288 307.335 51.84 307.335 52.944C307.335 54.08 308.063 54.648 309.519 54.648ZM326.749 52.848H330.061C329.901 54.192 329.301 55.272 328.261 56.088C327.237 56.904 325.957 57.312 324.421 57.312C322.517 57.312 321.005 56.728 319.885 55.56C318.765 54.376 318.205 52.8 318.205 50.832C318.205 48.88 318.765 47.312 319.885 46.128C321.005 44.944 322.517 44.352 324.421 44.352C325.957 44.352 327.221 44.744 328.213 45.528C329.221 46.296 329.805 47.32 329.965 48.6H326.629C326.357 47.64 325.629 47.16 324.445 47.16C323.453 47.16 322.725 47.496 322.261 48.168C321.797 48.84 321.565 49.72 321.565 50.808C321.565 51.896 321.797 52.792 322.261 53.496C322.741 54.184 323.469 54.528 324.445 54.528C325.773 54.528 326.541 53.968 326.749 52.848ZM332.893 44.664H336.253V48.264H339.037C340.621 48.264 341.837 48.648 342.685 49.416C343.549 50.168 343.981 51.224 343.981 52.584C343.981 53.96 343.549 55.04 342.685 55.824C341.837 56.608 340.621 57 339.037 57H332.893V44.664ZM336.253 50.904V54.216H338.557C339.325 54.216 339.861 54.08 340.165 53.808C340.469 53.52 340.621 53.104 340.621 52.56C340.621 52 340.469 51.584 340.165 51.312C339.861 51.04 339.325 50.904 338.557 50.904H336.253ZM345.829 44.664H349.189V57H345.829V44.664ZM362.688 57H359.424V44.664H362.688V51.624H363.264L368.04 44.664H371.352V57H368.088V50.064H367.512L362.688 57ZM381.925 48.288C381.925 47.488 381.221 47.088 379.813 47.088C378.469 47.088 377.701 47.536 377.509 48.432H374.437C374.565 47.088 375.133 46.072 376.141 45.384C377.149 44.696 378.453 44.352 380.053 44.352C381.653 44.352 382.917 44.688 383.845 45.36C384.789 46.016 385.261 46.864 385.261 47.904C385.261 49.104 384.845 49.888 384.013 50.256V50.88C385.085 51.232 385.621 52.08 385.621 53.424C385.621 54.56 385.109 55.496 384.085 56.232C383.061 56.952 381.717 57.312 380.053 57.312C378.165 57.312 376.717 56.952 375.709 56.232C374.717 55.496 374.149 54.464 374.005 53.136H377.101C377.373 54.096 378.301 54.576 379.885 54.576C381.469 54.576 382.261 54.136 382.261 53.256C382.261 52.824 382.101 52.512 381.781 52.32C381.477 52.128 380.973 52.032 380.269 52.032H378.253V49.464H380.149C381.333 49.464 381.925 49.072 381.925 48.288ZM404.38 53.808V39.864H407.86V53.808H413.284V39.864H416.764V57H395.476V39.864H398.956V53.808H404.38ZM430.031 50.16V50.784C430.655 50.944 431.159 51.264 431.543 51.744C431.927 52.224 432.119 52.84 432.119 53.592C432.119 55.864 430.663 57 427.751 57H420.503V44.664H427.559C428.791 44.664 429.743 44.944 430.415 45.504C431.103 46.048 431.447 46.808 431.447 47.784C431.447 48.904 430.975 49.696 430.031 50.16ZM423.791 54.576H426.983C428.151 54.576 428.735 54.12 428.735 53.208C428.735 52.28 428.151 51.816 426.983 51.816H423.791V54.576ZM423.791 47.088V49.464H426.647C427.607 49.464 428.087 49.072 428.087 48.288C428.087 47.488 427.607 47.088 426.647 47.088H423.791ZM446.506 50.208V51.216H437.674C437.77 53.424 438.77 54.528 440.674 54.528C441.89 54.528 442.658 54.096 442.978 53.232H446.386C446.13 54.512 445.514 55.512 444.538 56.232C443.562 56.952 442.258 57.312 440.626 57.312C438.69 57.312 437.154 56.72 436.018 55.536C434.898 54.352 434.338 52.768 434.338 50.784C434.338 48.816 434.898 47.256 436.018 46.104C437.138 44.936 438.65 44.352 440.554 44.352C442.378 44.352 443.818 44.896 444.874 45.984C445.93 47.072 446.474 48.48 446.506 50.208ZM443.074 48.984C442.85 47.576 442.002 46.872 440.53 46.872C439.058 46.872 438.146 47.576 437.794 48.984H443.074ZM452.618 57H449.354V44.664H452.618V51.624H453.194L457.97 44.664H461.282V57H458.018V50.064H457.442L452.618 57ZM457.082 39.768H459.674C459.578 40.904 459.154 41.792 458.402 42.432C457.666 43.056 456.634 43.368 455.306 43.368C453.978 43.368 452.946 43.056 452.21 42.432C451.474 41.792 451.058 40.904 450.962 39.768H453.554C453.602 40.2 453.77 40.552 454.058 40.824C454.346 41.096 454.762 41.232 455.306 41.232C456.378 41.232 456.97 40.744 457.082 39.768ZM473.127 44.664H476.487V54.216H478.671V60.432H475.503V57H464.823V44.664H468.183V54.216H473.127V44.664ZM488.719 57V55.944H488.095C487.311 56.856 486.159 57.312 484.639 57.312C483.295 57.312 482.231 56.92 481.447 56.136C480.663 55.336 480.271 54.36 480.271 53.208C480.271 52.104 480.687 51.144 481.519 50.328C482.351 49.512 483.607 49.104 485.287 49.104H488.575V48.792C488.575 47.512 487.847 46.872 486.391 46.872C485.095 46.872 484.399 47.312 484.303 48.192H480.967C480.999 47.024 481.503 46.096 482.479 45.408C483.455 44.704 484.703 44.352 486.223 44.352C487.983 44.352 489.351 44.728 490.327 45.48C491.319 46.232 491.815 47.4 491.815 48.984V57H488.719ZM485.815 54.648C486.631 54.648 487.295 54.408 487.807 53.928C488.319 53.448 488.575 52.824 488.575 52.056V51.288H485.935C484.399 51.288 483.631 51.84 483.631 52.944C483.631 54.08 484.359 54.648 485.815 54.648ZM501.438 47.16C500.446 47.16 499.694 47.512 499.182 48.216C498.686 48.904 498.438 49.776 498.438 50.832C498.438 51.888 498.686 52.768 499.182 53.472C499.694 54.176 500.446 54.528 501.438 54.528C502.398 54.528 503.126 54.184 503.622 53.496C504.134 52.808 504.39 51.92 504.39 50.832C504.39 49.76 504.134 48.88 503.622 48.192C503.126 47.504 502.398 47.16 501.438 47.16ZM495.198 44.664H498.438V45.792H499.062C499.83 44.832 500.982 44.352 502.518 44.352C504.118 44.352 505.39 44.96 506.334 46.176C507.278 47.376 507.75 48.928 507.75 50.832C507.75 52.752 507.278 54.312 506.334 55.512C505.39 56.712 504.118 57.312 502.518 57.312C501.014 57.312 499.902 56.832 499.182 55.872H498.558V61.8H495.198V44.664ZM513.86 57H510.596V44.664H513.86V51.624H514.436L519.212 44.664H522.524V57H519.26V50.064H518.684L513.86 57ZM529.329 57H526.065V44.664H529.329V51.624H529.905L534.681 44.664H537.993V57H534.729V50.064H534.153L529.329 57ZM543.046 57H541.414V53.352H545.11V57.6L543.262 60.408H541.222L543.046 57.6V57ZM558.509 57H555.245V44.664H558.509V51.624H559.085L563.861 44.664H567.173V57H563.909V50.064H563.333L558.509 57ZM56.752 86.216H58.936V92.432H55.768V89H46.624V92.432H43.456V86.216H45.28C46 84.376 46.36 82.376 46.36 80.216V76.664H56.752V86.216ZM53.392 86.216V79.472H49.384V80.24C49.384 82.528 49.08 84.52 48.472 86.216H53.392ZM67.1046 76.352C69.0566 76.352 70.6086 76.944 71.7606 78.128C72.9126 79.312 73.4886 80.88 73.4886 82.832C73.4886 84.784 72.9126 86.352 71.7606 87.536C70.6086 88.72 69.0566 89.312 67.1046 89.312C65.1686 89.312 63.6166 88.72 62.4486 87.536C61.2966 86.336 60.7206 84.768 60.7206 82.832C60.7206 80.896 61.2966 79.336 62.4486 78.152C63.6166 76.952 65.1686 76.352 67.1046 76.352ZM67.1046 86.528C68.1126 86.528 68.8646 86.184 69.3606 85.496C69.8726 84.792 70.1286 83.904 70.1286 82.832C70.1286 81.776 69.8726 80.904 69.3606 80.216C68.8646 79.512 68.1126 79.16 67.1046 79.16C66.1126 79.16 65.3606 79.512 64.8486 80.216C64.3366 80.904 64.0806 81.776 64.0806 82.832C64.0806 83.904 64.3366 84.792 64.8486 85.496C65.3606 86.184 66.1126 86.528 67.1046 86.528ZM84.1943 84.848H87.5063C87.3463 86.192 86.7463 87.272 85.7063 88.088C84.6823 88.904 83.4023 89.312 81.8663 89.312C79.9623 89.312 78.4503 88.728 77.3303 87.56C76.2103 86.376 75.6503 84.8 75.6503 82.832C75.6503 80.88 76.2103 79.312 77.3303 78.128C78.4503 76.944 79.9623 76.352 81.8663 76.352C83.4023 76.352 84.6663 76.744 85.6583 77.528C86.6663 78.296 87.2503 79.32 87.4103 80.6H84.0743C83.8023 79.64 83.0743 79.16 81.8903 79.16C80.8983 79.16 80.1703 79.496 79.7063 80.168C79.2423 80.84 79.0103 81.72 79.0103 82.808C79.0103 83.896 79.2423 84.792 79.7063 85.496C80.1863 86.184 80.9143 86.528 81.8903 86.528C83.2183 86.528 83.9863 85.968 84.1943 84.848ZM89.2825 79.472V76.664H100.731V79.472H96.6985V89H93.3385V79.472H89.2825ZM110.813 89V87.944H110.189C109.405 88.856 108.253 89.312 106.733 89.312C105.389 89.312 104.325 88.92 103.541 88.136C102.757 87.336 102.365 86.36 102.365 85.208C102.365 84.104 102.781 83.144 103.613 82.328C104.445 81.512 105.701 81.104 107.381 81.104H110.669V80.792C110.669 79.512 109.941 78.872 108.485 78.872C107.189 78.872 106.493 79.312 106.397 80.192H103.061C103.093 79.024 103.597 78.096 104.573 77.408C105.549 76.704 106.797 76.352 108.317 76.352C110.077 76.352 111.445 76.728 112.421 77.48C113.413 78.232 113.909 79.4 113.909 80.984V89H110.813ZM107.909 86.648C108.725 86.648 109.389 86.408 109.901 85.928C110.413 85.448 110.669 84.824 110.669 84.056V83.288H108.029C106.493 83.288 105.725 83.84 105.725 84.944C105.725 86.08 106.453 86.648 107.909 86.648ZM126.82 82.16V82.784C127.444 82.944 127.948 83.264 128.332 83.744C128.716 84.224 128.908 84.84 128.908 85.592C128.908 87.864 127.452 89 124.54 89H117.292V76.664H124.348C125.58 76.664 126.532 76.944 127.204 77.504C127.892 78.048 128.236 78.808 128.236 79.784C128.236 80.904 127.764 81.696 126.82 82.16ZM120.58 86.576H123.772C124.94 86.576 125.524 86.12 125.524 85.208C125.524 84.28 124.94 83.816 123.772 83.816H120.58V86.576ZM120.58 79.088V81.464H123.436C124.396 81.464 124.876 81.072 124.876 80.288C124.876 79.488 124.396 79.088 123.436 79.088H120.58ZM140.367 89L137.871 84.08H135.183V89H131.823V76.664H135.183V81.272H137.919L140.271 76.664H143.703L140.679 82.616L143.895 89H140.367ZM154.079 89V87.944H153.455C152.671 88.856 151.519 89.312 149.999 89.312C148.655 89.312 147.591 88.92 146.807 88.136C146.023 87.336 145.631 86.36 145.631 85.208C145.631 84.104 146.047 83.144 146.879 82.328C147.711 81.512 148.967 81.104 150.647 81.104H153.935V80.792C153.935 79.512 153.207 78.872 151.751 78.872C150.455 78.872 149.759 79.312 149.663 80.192H146.327C146.359 79.024 146.863 78.096 147.839 77.408C148.815 76.704 150.063 76.352 151.583 76.352C153.343 76.352 154.711 76.728 155.687 77.48C156.679 78.232 157.175 79.4 157.175 80.984V89H154.079ZM151.175 86.648C151.991 86.648 152.655 86.408 153.167 85.928C153.679 85.448 153.935 84.824 153.935 84.056V83.288H151.295C149.759 83.288 148.991 83.84 148.991 84.944C148.991 86.08 149.719 86.648 151.175 86.648ZM173.501 77.072C175.261 77.072 176.677 77.648 177.749 78.8C178.837 79.936 179.381 81.4 179.381 83.192C179.381 84.984 178.789 86.456 177.605 87.608C176.437 88.744 174.901 89.312 172.997 89.312C170.949 89.312 169.357 88.664 168.221 87.368C167.101 86.072 166.541 84.184 166.541 81.704C166.541 76.392 168.165 73.48 171.413 72.968L174.581 72.464C175.061 72.384 175.381 72.288 175.541 72.176C175.701 72.048 175.797 71.84 175.829 71.552H178.541C178.541 72.432 178.373 73.168 178.037 73.76C177.701 74.352 177.037 74.736 176.045 74.912L171.989 75.56C171.125 75.688 170.469 76 170.021 76.496C169.573 76.992 169.261 77.744 169.085 78.752H169.709C170.493 77.632 171.757 77.072 173.501 77.072ZM170.693 85.544C171.221 86.2 171.981 86.528 172.973 86.528C173.965 86.528 174.717 86.2 175.229 85.544C175.741 84.888 175.997 84.072 175.997 83.096C175.997 82.12 175.741 81.312 175.229 80.672C174.717 80.032 173.965 79.712 172.973 79.712C171.965 79.712 171.205 80.032 170.693 80.672C170.181 81.312 169.925 82.12 169.925 83.096C169.925 84.072 170.181 84.888 170.693 85.544ZM182.237 76.664H185.597V80.264H188.381C189.965 80.264 191.181 80.648 192.029 81.416C192.893 82.168 193.325 83.224 193.325 84.584C193.325 85.96 192.893 87.04 192.029 87.824C191.181 88.608 189.965 89 188.381 89H182.237V76.664ZM185.597 82.904V86.216H187.901C188.669 86.216 189.205 86.08 189.509 85.808C189.813 85.52 189.965 85.104 189.965 84.56C189.965 84 189.813 83.584 189.509 83.312C189.205 83.04 188.669 82.904 187.901 82.904H185.597ZM195.173 76.664H198.533V89H195.173V76.664ZM200.841 89V85.784H201.273C202.073 85.784 202.649 85.504 203.001 84.944C203.353 84.368 203.529 83.336 203.529 81.848V76.664H214.065V89H210.705V79.472H206.625V81.968C206.625 84.544 206.201 86.36 205.353 87.416C204.505 88.472 203.145 89 201.273 89H200.841ZM225.212 89V87.944H224.588C223.804 88.856 222.652 89.312 221.132 89.312C219.788 89.312 218.724 88.92 217.94 88.136C217.156 87.336 216.764 86.36 216.764 85.208C216.764 84.104 217.18 83.144 218.012 82.328C218.844 81.512 220.1 81.104 221.78 81.104H225.068V80.792C225.068 79.512 224.34 78.872 222.884 78.872C221.588 78.872 220.892 79.312 220.796 80.192H217.46C217.492 79.024 217.996 78.096 218.972 77.408C219.948 76.704 221.196 76.352 222.716 76.352C224.476 76.352 225.844 76.728 226.82 77.48C227.812 78.232 228.308 79.4 228.308 80.984V89H225.212ZM222.308 86.648C223.124 86.648 223.788 86.408 224.3 85.928C224.812 85.448 225.068 84.824 225.068 84.056V83.288H222.428C220.892 83.288 220.124 83.84 220.124 84.944C220.124 86.08 220.852 86.648 222.308 86.648ZM250.226 89H246.866V84.08H241.73V89H238.37V76.664H241.73V81.272H246.866V76.664H250.226V89ZM265.24 82.208V83.216H256.408C256.504 85.424 257.504 86.528 259.408 86.528C260.624 86.528 261.392 86.096 261.712 85.232H265.12C264.864 86.512 264.248 87.512 263.272 88.232C262.296 88.952 260.992 89.312 259.36 89.312C257.424 89.312 255.888 88.72 254.752 87.536C253.632 86.352 253.072 84.768 253.072 82.784C253.072 80.816 253.632 79.256 254.752 78.104C255.872 76.936 257.384 76.352 259.288 76.352C261.112 76.352 262.552 76.896 263.608 77.984C264.664 79.072 265.208 80.48 265.24 82.208ZM261.808 80.984C261.584 79.576 260.736 78.872 259.264 78.872C257.792 78.872 256.88 79.576 256.528 80.984H261.808ZM277.617 82.16V82.784C278.241 82.944 278.745 83.264 279.129 83.744C279.513 84.224 279.705 84.84 279.705 85.592C279.705 87.864 278.249 89 275.337 89H268.089V76.664H275.145C276.377 76.664 277.329 76.944 278.001 77.504C278.689 78.048 279.033 78.808 279.033 79.784C279.033 80.904 278.561 81.696 277.617 82.16ZM271.377 86.576H274.569C275.737 86.576 276.321 86.12 276.321 85.208C276.321 84.28 275.737 83.816 274.569 83.816H271.377V86.576ZM271.377 79.088V81.464H274.233C275.193 81.464 275.673 81.072 275.673 80.288C275.673 79.488 275.193 79.088 274.233 79.088H271.377ZM294.092 82.208V83.216H285.26C285.356 85.424 286.356 86.528 288.26 86.528C289.476 86.528 290.244 86.096 290.564 85.232H293.972C293.716 86.512 293.1 87.512 292.124 88.232C291.148 88.952 289.844 89.312 288.212 89.312C286.276 89.312 284.74 88.72 283.604 87.536C282.484 86.352 281.924 84.768 281.924 82.784C281.924 80.816 282.484 79.256 283.604 78.104C284.724 76.936 286.236 76.352 288.14 76.352C289.964 76.352 291.404 76.896 292.46 77.984C293.516 79.072 294.06 80.48 294.092 82.208ZM290.66 80.984C290.436 79.576 289.588 78.872 288.116 78.872C286.644 78.872 285.732 79.576 285.38 80.984H290.66ZM303.18 79.16C302.188 79.16 301.436 79.512 300.924 80.216C300.428 80.904 300.18 81.776 300.18 82.832C300.18 83.888 300.428 84.768 300.924 85.472C301.436 86.176 302.188 86.528 303.18 86.528C304.14 86.528 304.868 86.184 305.364 85.496C305.876 84.808 306.132 83.92 306.132 82.832C306.132 81.76 305.876 80.88 305.364 80.192C304.868 79.504 304.14 79.16 303.18 79.16ZM296.94 76.664H300.18V77.792H300.804C301.572 76.832 302.724 76.352 304.26 76.352C305.86 76.352 307.132 76.96 308.076 78.176C309.02 79.376 309.492 80.928 309.492 82.832C309.492 84.752 309.02 86.312 308.076 87.512C307.132 88.712 305.86 89.312 304.26 89.312C302.756 89.312 301.644 88.832 300.924 87.872H300.3V93.8H296.94V76.664ZM318.027 76.352C319.979 76.352 321.531 76.944 322.682 78.128C323.835 79.312 324.411 80.88 324.411 82.832C324.411 84.784 323.835 86.352 322.682 87.536C321.531 88.72 319.979 89.312 318.027 89.312C316.091 89.312 314.539 88.72 313.371 87.536C312.219 86.336 311.643 84.768 311.643 82.832C311.643 80.896 312.219 79.336 313.371 78.152C314.539 76.952 316.091 76.352 318.027 76.352ZM318.027 86.528C319.035 86.528 319.787 86.184 320.283 85.496C320.795 84.792 321.051 83.904 321.051 82.832C321.051 81.776 320.795 80.904 320.283 80.216C319.787 79.512 319.035 79.16 318.027 79.16C317.035 79.16 316.283 79.512 315.771 80.216C315.259 80.904 315.003 81.776 315.003 82.832C315.003 83.904 315.259 84.792 315.771 85.496C316.283 86.184 317.035 86.528 318.027 86.528ZM331.804 76.664H338.068V89H334.708V84.872H331.636L330.052 89H326.74L328.612 84.152C327.396 83.464 326.788 82.344 326.788 80.792C326.788 79.496 327.22 78.488 328.084 77.768C328.964 77.032 330.204 76.664 331.804 76.664ZM334.708 82.4V79.352H332.068C331.348 79.352 330.836 79.48 330.532 79.736C330.244 79.992 330.1 80.368 330.1 80.864C330.1 81.376 330.244 81.76 330.532 82.016C330.836 82.272 331.348 82.4 332.068 82.4H334.708ZM340.533 79.472V76.664H351.981V79.472H347.949V89H344.589V79.472H340.533ZM366.335 89H362.975V84.08H357.839V89H354.479V76.664H357.839V81.272H362.975V76.664H366.335V89ZM375.566 76.352C377.518 76.352 379.07 76.944 380.222 78.128C381.374 79.312 381.95 80.88 381.95 82.832C381.95 84.784 381.374 86.352 380.222 87.536C379.07 88.72 377.518 89.312 375.566 89.312C373.63 89.312 372.078 88.72 370.91 87.536C369.758 86.336 369.182 84.768 369.182 82.832C369.182 80.896 369.758 79.336 370.91 78.152C372.078 76.952 373.63 76.352 375.566 76.352ZM375.566 86.528C376.574 86.528 377.326 86.184 377.822 85.496C378.334 84.792 378.59 83.904 378.59 82.832C378.59 81.776 378.334 80.904 377.822 80.216C377.326 79.512 376.574 79.16 375.566 79.16C374.574 79.16 373.822 79.512 373.31 80.216C372.798 80.904 372.542 81.776 372.542 82.832C372.542 83.904 372.798 84.792 373.31 85.496C373.822 86.184 374.574 86.528 375.566 86.528ZM397.751 77.072C399.511 77.072 400.927 77.648 401.999 78.8C403.087 79.936 403.631 81.4 403.631 83.192C403.631 84.984 403.039 86.456 401.855 87.608C400.687 88.744 399.151 89.312 397.247 89.312C395.199 89.312 393.607 88.664 392.471 87.368C391.351 86.072 390.791 84.184 390.791 81.704C390.791 76.392 392.415 73.48 395.663 72.968L398.831 72.464C399.311 72.384 399.631 72.288 399.791 72.176C399.951 72.048 400.047 71.84 400.079 71.552H402.791C402.791 72.432 402.623 73.168 402.287 73.76C401.951 74.352 401.287 74.736 400.295 74.912L396.239 75.56C395.375 75.688 394.719 76 394.271 76.496C393.823 76.992 393.511 77.744 393.335 78.752H393.959C394.743 77.632 396.007 77.072 397.751 77.072ZM394.943 85.544C395.471 86.2 396.231 86.528 397.223 86.528C398.215 86.528 398.967 86.2 399.479 85.544C399.991 84.888 400.247 84.072 400.247 83.096C400.247 82.12 399.991 81.312 399.479 80.672C398.967 80.032 398.215 79.712 397.223 79.712C396.215 79.712 395.455 80.032 394.943 80.672C394.431 81.312 394.175 82.12 394.175 83.096C394.175 84.072 394.431 84.888 394.943 85.544ZM406.487 76.664H409.847V80.264H412.631C414.215 80.264 415.431 80.648 416.279 81.416C417.143 82.168 417.575 83.224 417.575 84.584C417.575 85.96 417.143 87.04 416.279 87.824C415.431 88.608 414.215 89 412.631 89H406.487V76.664ZM409.847 82.904V86.216H412.151C412.919 86.216 413.455 86.08 413.759 85.808C414.063 85.52 414.215 85.104 414.215 84.56C414.215 84 414.063 83.584 413.759 83.312C413.455 83.04 412.919 82.904 412.151 82.904H409.847ZM419.423 76.664H422.783V89H419.423V76.664ZM434.187 84.848H437.499C437.339 86.192 436.739 87.272 435.699 88.088C434.675 88.904 433.395 89.312 431.859 89.312C429.955 89.312 428.443 88.728 427.323 87.56C426.203 86.376 425.643 84.8 425.643 82.832C425.643 80.88 426.203 79.312 427.323 78.128C428.443 76.944 429.955 76.352 431.859 76.352C433.395 76.352 434.659 76.744 435.651 77.528C436.659 78.296 437.243 79.32 437.403 80.6H434.067C433.795 79.64 433.067 79.16 431.883 79.16C430.891 79.16 430.163 79.496 429.699 80.168C429.235 80.84 429.003 81.72 429.003 82.808C429.003 83.896 429.235 84.792 429.699 85.496C430.179 86.184 430.907 86.528 431.883 86.528C433.211 86.528 433.979 85.968 434.187 84.848ZM439.275 79.472V76.664H450.723V79.472H446.691V89H443.331V79.472H439.275ZM459.461 79.16C458.469 79.16 457.717 79.512 457.205 80.216C456.709 80.904 456.461 81.776 456.461 82.832C456.461 83.888 456.709 84.768 457.205 85.472C457.717 86.176 458.469 86.528 459.461 86.528C460.421 86.528 461.149 86.184 461.645 85.496C462.157 84.808 462.413 83.92 462.413 82.832C462.413 81.76 462.157 80.88 461.645 80.192C461.149 79.504 460.421 79.16 459.461 79.16ZM453.221 76.664H456.461V77.792H457.085C457.853 76.832 459.005 76.352 460.541 76.352C462.141 76.352 463.413 76.96 464.357 78.176C465.301 79.376 465.773 80.928 465.773 82.832C465.773 84.752 465.301 86.312 464.357 87.512C463.413 88.712 462.141 89.312 460.541 89.312C459.037 89.312 457.925 88.832 457.205 87.872H456.581V93.8H453.221V76.664ZM474.308 76.352C476.26 76.352 477.812 76.944 478.964 78.128C480.116 79.312 480.692 80.88 480.692 82.832C480.692 84.784 480.116 86.352 478.964 87.536C477.812 88.72 476.26 89.312 474.308 89.312C472.372 89.312 470.82 88.72 469.652 87.536C468.5 86.336 467.924 84.768 467.924 82.832C467.924 80.896 468.5 79.336 469.652 78.152C470.82 76.952 472.372 76.352 474.308 76.352ZM474.308 86.528C475.316 86.528 476.068 86.184 476.564 85.496C477.076 84.792 477.332 83.904 477.332 82.832C477.332 81.776 477.076 80.904 476.564 80.216C476.068 79.512 475.316 79.16 474.308 79.16C473.316 79.16 472.564 79.512 472.052 80.216C471.54 80.904 471.284 81.776 471.284 82.832C471.284 83.904 471.54 84.792 472.052 85.496C472.564 86.184 473.316 86.528 474.308 86.528ZM486.813 89H483.549V76.664H486.813V83.624H487.389L492.165 76.664H495.477V89H492.213V82.064H491.637L486.813 89ZM491.277 71.768H493.869C493.773 72.904 493.349 73.792 492.597 74.432C491.861 75.056 490.829 75.368 489.501 75.368C488.173 75.368 487.141 75.056 486.405 74.432C485.669 73.792 485.253 72.904 485.157 71.768H487.749C487.797 72.2 487.965 72.552 488.253 72.824C488.541 73.096 488.957 73.232 489.501 73.232C490.573 73.232 491.165 72.744 491.277 71.768ZM502.594 89H498.898V85.352H502.594V89ZM524.873 79.784V80.408C525.513 80.696 526.041 81.168 526.457 81.824C526.889 82.48 527.105 83.216 527.105 84.032C527.105 85.536 526.609 86.744 525.617 87.656C524.625 88.552 523.153 89 521.201 89H512.945V71.864H520.985C522.793 71.864 524.185 72.296 525.161 73.16C526.137 74.024 526.625 75.104 526.625 76.4C526.625 77.168 526.465 77.856 526.145 78.464C525.841 79.056 525.417 79.496 524.873 79.784ZM516.521 78.656H520.553C522.153 78.656 522.953 78.016 522.953 76.736C522.953 75.472 522.145 74.84 520.529 74.84H516.521V78.656ZM516.521 85.952H520.673C522.513 85.952 523.433 85.248 523.433 83.84C523.433 82.384 522.529 81.656 520.721 81.656H516.521V85.952ZM537.68 89V87.944H537.056C536.272 88.856 535.12 89.312 533.6 89.312C532.256 89.312 531.192 88.92 530.408 88.136C529.624 87.336 529.232 86.36 529.232 85.208C529.232 84.104 529.648 83.144 530.48 82.328C531.312 81.512 532.568 81.104 534.248 81.104H537.536V80.792C537.536 79.512 536.808 78.872 535.352 78.872C534.056 78.872 533.36 79.312 533.264 80.192H529.928C529.96 79.024 530.464 78.096 531.44 77.408C532.416 76.704 533.664 76.352 535.184 76.352C536.944 76.352 538.312 76.728 539.288 77.48C540.28 78.232 540.776 79.4 540.776 80.984V89H537.68ZM534.776 86.648C535.592 86.648 536.256 86.408 536.768 85.928C537.28 85.448 537.536 84.824 537.536 84.056V83.288H534.896C533.36 83.288 532.592 83.84 532.592 84.944C532.592 86.08 533.32 86.648 534.776 86.648ZM558.007 76.664H561.247V89H544.159V76.664H547.423V86.216H551.095V76.664H554.335V86.216H558.007V76.664ZM52.624 116.848H55.936C55.776 118.192 55.176 119.272 54.136 120.088C53.112 120.904 51.832 121.312 50.296 121.312C48.392 121.312 46.88 120.728 45.76 119.56C44.64 118.376 44.08 116.8 44.08 114.832C44.08 112.88 44.64 111.312 45.76 110.128C46.88 108.944 48.392 108.352 50.296 108.352C51.832 108.352 53.096 108.744 54.088 109.528C55.096 110.296 55.68 111.32 55.84 112.6H52.504C52.232 111.64 51.504 111.16 50.32 111.16C49.328 111.16 48.6 111.496 48.136 112.168C47.672 112.84 47.44 113.72 47.44 114.808C47.44 115.896 47.672 116.792 48.136 117.496C48.616 118.184 49.344 118.528 50.32 118.528C51.648 118.528 52.416 117.968 52.624 116.848ZM70.2402 114.208V115.216H61.4082C61.5042 117.424 62.5042 118.528 64.4082 118.528C65.6242 118.528 66.3922 118.096 66.7122 117.232H70.1202C69.8642 118.512 69.2482 119.512 68.2722 120.232C67.2962 120.952 65.9922 121.312 64.3602 121.312C62.4242 121.312 60.8882 120.72 59.7522 119.536C58.6322 118.352 58.0722 116.768 58.0722 114.784C58.0722 112.816 58.6322 111.256 59.7522 110.104C60.8722 108.936 62.3842 108.352 64.2882 108.352C66.1122 108.352 67.5522 108.896 68.6082 109.984C69.6642 111.072 70.2082 112.48 70.2402 114.208ZM66.8082 112.984C66.5842 111.576 65.7362 110.872 64.2642 110.872C62.7922 110.872 61.8802 111.576 61.5282 112.984H66.8082ZM79.3285 111.16C78.3365 111.16 77.5845 111.512 77.0725 112.216C76.5765 112.904 76.3285 113.776 76.3285 114.832C76.3285 115.888 76.5765 116.768 77.0725 117.472C77.5845 118.176 78.3365 118.528 79.3285 118.528C80.2885 118.528 81.0165 118.184 81.5125 117.496C82.0245 116.808 82.2805 115.92 82.2805 114.832C82.2805 113.76 82.0245 112.88 81.5125 112.192C81.0165 111.504 80.2885 111.16 79.3285 111.16ZM73.0885 108.664H76.3285V109.792H76.9525C77.7205 108.832 78.8725 108.352 80.4085 108.352C82.0085 108.352 83.2805 108.96 84.2245 110.176C85.1685 111.376 85.6405 112.928 85.6405 114.832C85.6405 116.752 85.1685 118.312 84.2245 119.512C83.2805 120.712 82.0085 121.312 80.4085 121.312C78.9045 121.312 77.7925 120.832 77.0725 119.872H76.4485V125.8H73.0885V108.664ZM98.0149 114.16V114.784C98.6389 114.944 99.1429 115.264 99.5269 115.744C99.9109 116.224 100.103 116.84 100.103 117.592C100.103 119.864 98.6469 121 95.7349 121H88.4869V108.664H95.5429C96.7749 108.664 97.7269 108.944 98.3989 109.504C99.0869 110.048 99.4309 110.808 99.4309 111.784C99.4309 112.904 98.9589 113.696 98.0149 114.16ZM91.7749 118.576H94.9669C96.1349 118.576 96.7189 118.12 96.7189 117.208C96.7189 116.28 96.1349 115.816 94.9669 115.816H91.7749V118.576ZM91.7749 111.088V113.464H94.6309C95.5909 113.464 96.0709 113.072 96.0709 112.288C96.0709 111.488 95.5909 111.088 94.6309 111.088H91.7749ZM106.282 121H103.018V108.664H106.282V115.624H106.858L111.634 108.664H114.946V121H111.682V114.064H111.106L106.282 121ZM126.335 116.848H129.647C129.487 118.192 128.887 119.272 127.847 120.088C126.823 120.904 125.543 121.312 124.007 121.312C122.103 121.312 120.591 120.728 119.471 119.56C118.351 118.376 117.791 116.8 117.791 114.832C117.791 112.88 118.351 111.312 119.471 110.128C120.591 108.944 122.103 108.352 124.007 108.352C125.543 108.352 126.807 108.744 127.799 109.528C128.807 110.296 129.391 111.32 129.551 112.6H126.215C125.943 111.64 125.215 111.16 124.031 111.16C123.039 111.16 122.311 111.496 121.847 112.168C121.383 112.84 121.151 113.72 121.151 114.808C121.151 115.896 121.383 116.792 121.847 117.496C122.327 118.184 123.055 118.528 124.031 118.528C125.359 118.528 126.127 117.968 126.335 116.848ZM151.135 118.216H153.319V124.432H150.151V121H141.007V124.432H137.839V118.216H139.663C140.383 116.376 140.743 114.376 140.743 112.216V108.664H151.135V118.216ZM147.775 118.216V111.472H143.767V112.24C143.767 114.528 143.463 116.52 142.855 118.216H147.775ZM167.271 114.208V115.216H158.439C158.535 117.424 159.535 118.528 161.439 118.528C162.655 118.528 163.423 118.096 163.743 117.232H167.151C166.895 118.512 166.279 119.512 165.303 120.232C164.327 120.952 163.023 121.312 161.391 121.312C159.455 121.312 157.919 120.72 156.783 119.536C155.663 118.352 155.103 116.768 155.103 114.784C155.103 112.816 155.663 111.256 156.783 110.104C157.903 108.936 159.415 108.352 161.319 108.352C163.143 108.352 164.583 108.896 165.639 109.984C166.695 111.072 167.239 112.48 167.271 114.208ZM163.839 112.984C163.615 111.576 162.767 110.872 161.295 110.872C159.823 110.872 158.911 111.576 158.559 112.984H163.839ZM168.872 121V117.784H169.304C170.104 117.784 170.68 117.504 171.032 116.944C171.384 116.368 171.56 115.336 171.56 113.848V108.664H182.096V121H178.736V111.472H174.656V113.968C174.656 116.544 174.232 118.36 173.384 119.416C172.536 120.472 171.176 121 169.304 121H168.872ZM193.243 121V119.944H192.619C191.835 120.856 190.683 121.312 189.163 121.312C187.819 121.312 186.755 120.92 185.971 120.136C185.187 119.336 184.795 118.36 184.795 117.208C184.795 116.104 185.211 115.144 186.043 114.328C186.875 113.512 188.131 113.104 189.811 113.104H193.099V112.792C193.099 111.512 192.371 110.872 190.915 110.872C189.619 110.872 188.923 111.312 188.827 112.192H185.491C185.523 111.024 186.027 110.096 187.003 109.408C187.979 108.704 189.227 108.352 190.747 108.352C192.507 108.352 193.875 108.728 194.851 109.48C195.843 110.232 196.339 111.4 196.339 112.984V121H193.243ZM190.339 118.648C191.155 118.648 191.819 118.408 192.331 117.928C192.843 117.448 193.099 116.824 193.099 116.056V115.288H190.459C188.923 115.288 188.155 115.84 188.155 116.944C188.155 118.08 188.883 118.648 190.339 118.648ZM211.193 114.208V115.216H202.361C202.457 117.424 203.457 118.528 205.361 118.528C206.577 118.528 207.345 118.096 207.665 117.232H211.073C210.817 118.512 210.201 119.512 209.225 120.232C208.249 120.952 206.945 121.312 205.313 121.312C203.377 121.312 201.841 120.72 200.705 119.536C199.585 118.352 199.025 116.768 199.025 114.784C199.025 112.816 199.585 111.256 200.705 110.104C201.825 108.936 203.337 108.352 205.241 108.352C207.065 108.352 208.505 108.896 209.561 109.984C210.617 111.072 211.161 112.48 211.193 114.208ZM207.761 112.984C207.537 111.576 206.689 110.872 205.217 110.872C203.745 110.872 202.833 111.576 202.481 112.984H207.761ZM212.822 111.472V108.664H224.27V111.472H220.238V121H216.878V111.472H212.822ZM235.751 121H232.487V108.664H235.751V115.624H236.327L241.103 108.664H244.415V121H241.151V114.064H240.575L235.751 121ZM259.812 121H256.452V116.08H251.316V121H247.956V108.664H251.316V113.272H256.452V108.664H259.812V121ZM262.298 111.472V108.664H273.746V111.472H269.714V121H266.354V111.472H262.298ZM287.717 114.208V115.216H278.885C278.981 117.424 279.981 118.528 281.885 118.528C283.101 118.528 283.869 118.096 284.189 117.232H287.597C287.341 118.512 286.725 119.512 285.749 120.232C284.773 120.952 283.469 121.312 281.837 121.312C279.901 121.312 278.365 120.72 277.229 119.536C276.109 118.352 275.549 116.768 275.549 114.784C275.549 112.816 276.109 111.256 277.229 110.104C278.349 108.936 279.861 108.352 281.765 108.352C283.589 108.352 285.029 108.896 286.085 109.984C287.141 111.072 287.685 112.48 287.717 114.208ZM284.285 112.984C284.061 111.576 283.213 110.872 281.741 110.872C280.269 110.872 279.357 111.576 279.005 112.984H284.285ZM296.805 111.16C295.813 111.16 295.061 111.512 294.549 112.216C294.053 112.904 293.805 113.776 293.805 114.832C293.805 115.888 294.053 116.768 294.549 117.472C295.061 118.176 295.813 118.528 296.805 118.528C297.765 118.528 298.493 118.184 298.989 117.496C299.501 116.808 299.757 115.92 299.757 114.832C299.757 113.76 299.501 112.88 298.989 112.192C298.493 111.504 297.765 111.16 296.805 111.16ZM290.565 108.664H293.805V109.792H294.429C295.197 108.832 296.349 108.352 297.885 108.352C299.485 108.352 300.757 108.96 301.701 110.176C302.645 111.376 303.117 112.928 303.117 114.832C303.117 116.752 302.645 118.312 301.701 119.512C300.757 120.712 299.485 121.312 297.885 121.312C296.381 121.312 295.269 120.832 294.549 119.872H293.925V125.8H290.565V108.664ZM317.82 121H314.46V116.08H309.324V121H305.964V108.664H309.324V113.272H314.46V108.664H317.82V121ZM332.834 114.208V115.216H324.002C324.098 117.424 325.098 118.528 327.002 118.528C328.218 118.528 328.986 118.096 329.306 117.232H332.714C332.458 118.512 331.842 119.512 330.866 120.232C329.89 120.952 328.586 121.312 326.954 121.312C325.018 121.312 323.482 120.72 322.346 119.536C321.226 118.352 320.666 116.768 320.666 114.784C320.666 112.816 321.226 111.256 322.346 110.104C323.466 108.936 324.978 108.352 326.882 108.352C328.706 108.352 330.146 108.896 331.202 109.984C332.258 111.072 332.802 112.48 332.834 114.208ZM329.402 112.984C329.178 111.576 328.33 110.872 326.858 110.872C325.386 110.872 324.474 111.576 324.122 112.984H329.402ZM334.462 111.472V108.664H345.91V111.472H341.878V121H338.518V111.472H334.462ZM355.033 115.672H347.761V112.768H355.033V115.672ZM371.796 108.664H375.036V121H357.948V108.664H361.212V118.216H364.884V108.664H368.124V118.216H371.796V108.664ZM384.284 108.352C386.236 108.352 387.788 108.944 388.94 110.128C390.092 111.312 390.668 112.88 390.668 114.832C390.668 116.784 390.092 118.352 388.94 119.536C387.788 120.72 386.236 121.312 384.284 121.312C382.348 121.312 380.796 120.72 379.628 119.536C378.476 118.336 377.9 116.768 377.9 114.832C377.9 112.896 378.476 111.336 379.628 110.152C380.796 108.952 382.348 108.352 384.284 108.352ZM384.284 118.528C385.292 118.528 386.044 118.184 386.54 117.496C387.052 116.792 387.308 115.904 387.308 114.832C387.308 113.776 387.052 112.904 386.54 112.216C386.044 111.512 385.292 111.16 384.284 111.16C383.292 111.16 382.54 111.512 382.028 112.216C381.516 112.904 381.26 113.776 381.26 114.832C381.26 115.904 381.516 116.792 382.028 117.496C382.54 118.184 383.292 118.528 384.284 118.528ZM405.286 121H401.926V111.472H396.886V121H393.526V108.664H405.286V121ZM420.591 121H417.231V111.472H412.191V121H408.831V108.664H420.591V121ZM427.399 121H424.135V108.664H427.399V115.624H427.975L432.751 108.664H436.063V121H432.799V114.064H432.223L427.399 121ZM451.46 121H448.1V116.08H442.964V121H439.604V108.664H442.964V113.272H448.1V108.664H451.46V121ZM455.003 121V108.664H464.987V111.472H458.363V121H455.003ZM479.196 109.072C480.956 109.072 482.372 109.648 483.444 110.8C484.532 111.936 485.076 113.4 485.076 115.192C485.076 116.984 484.484 118.456 483.3 119.608C482.132 120.744 480.596 121.312 478.692 121.312C476.644 121.312 475.052 120.664 473.916 119.368C472.796 118.072 472.236 116.184 472.236 113.704C472.236 108.392 473.86 105.48 477.108 104.968L480.276 104.464C480.756 104.384 481.076 104.288 481.236 104.176C481.396 104.048 481.492 103.84 481.524 103.552H484.236C484.236 104.432 484.068 105.168 483.732 105.76C483.396 106.352 482.732 106.736 481.74 106.912L477.684 107.56C476.82 107.688 476.164 108 475.716 108.496C475.268 108.992 474.956 109.744 474.78 110.752H475.404C476.188 109.632 477.452 109.072 479.196 109.072ZM476.388 117.544C476.916 118.2 477.676 118.528 478.668 118.528C479.66 118.528 480.412 118.2 480.924 117.544C481.436 116.888 481.692 116.072 481.692 115.096C481.692 114.12 481.436 113.312 480.924 112.672C480.412 112.032 479.66 111.712 478.668 111.712C477.66 111.712 476.9 112.032 476.388 112.672C475.876 113.312 475.62 114.12 475.62 115.096C475.62 116.072 475.876 116.888 476.388 117.544ZM493.62 108.352C495.572 108.352 497.124 108.944 498.276 110.128C499.428 111.312 500.004 112.88 500.004 114.832C500.004 116.784 499.428 118.352 498.276 119.536C497.124 120.72 495.572 121.312 493.62 121.312C491.684 121.312 490.132 120.72 488.964 119.536C487.812 118.336 487.236 116.768 487.236 114.832C487.236 112.896 487.812 111.336 488.964 110.152C490.132 108.952 491.684 108.352 493.62 108.352ZM493.62 118.528C494.628 118.528 495.38 118.184 495.876 117.496C496.388 116.792 496.644 115.904 496.644 114.832C496.644 113.776 496.388 112.904 495.876 112.216C495.38 111.512 494.628 111.16 493.62 111.16C492.628 111.16 491.876 111.512 491.364 112.216C490.852 112.904 490.596 113.776 490.596 114.832C490.596 115.904 490.852 116.792 491.364 117.496C491.876 118.184 492.628 118.528 493.62 118.528ZM501.614 121V117.784H502.046C502.846 117.784 503.422 117.504 503.774 116.944C504.126 116.368 504.302 115.336 504.302 113.848V108.664H514.838V121H511.478V111.472H507.398V113.968C507.398 116.544 506.974 118.36 506.126 119.416C505.278 120.472 503.918 121 502.046 121H501.614ZM529.873 114.208V115.216H521.041C521.137 117.424 522.137 118.528 524.041 118.528C525.257 118.528 526.025 118.096 526.345 117.232H529.753C529.497 118.512 528.881 119.512 527.905 120.232C526.929 120.952 525.625 121.312 523.993 121.312C522.057 121.312 520.521 120.72 519.385 119.536C518.265 118.352 517.705 116.768 517.705 114.784C517.705 112.816 518.265 111.256 519.385 110.104C520.505 108.936 522.017 108.352 523.921 108.352C525.745 108.352 527.185 108.896 528.241 109.984C529.297 111.072 529.841 112.48 529.873 114.208ZM526.441 112.984C526.217 111.576 525.369 110.872 523.897 110.872C522.425 110.872 521.513 111.576 521.161 112.984H526.441ZM544.193 114.208V115.216H535.361C535.457 117.424 536.457 118.528 538.361 118.528C539.577 118.528 540.345 118.096 540.665 117.232H544.073C543.817 118.512 543.201 119.512 542.225 120.232C541.249 120.952 539.945 121.312 538.313 121.312C536.377 121.312 534.841 120.72 533.705 119.536C532.585 118.352 532.025 116.768 532.025 114.784C532.025 112.816 532.585 111.256 533.705 110.104C534.825 108.936 536.337 108.352 538.241 108.352C540.065 108.352 541.505 108.896 542.561 109.984C543.617 111.072 544.161 112.48 544.193 114.208ZM540.761 112.984C540.537 111.576 539.689 110.872 538.217 110.872C536.745 110.872 535.833 111.576 535.481 112.984H540.761ZM56.752 150.216H58.936V156.432H55.768V153H46.624V156.432H43.456V150.216H45.28C46 148.376 46.36 146.376 46.36 144.216V140.664H56.752V150.216ZM53.392 150.216V143.472H49.384V144.24C49.384 146.528 49.08 148.52 48.472 150.216H53.392ZM67.1046 140.352C69.0566 140.352 70.6086 140.944 71.7606 142.128C72.9126 143.312 73.4886 144.88 73.4886 146.832C73.4886 148.784 72.9126 150.352 71.7606 151.536C70.6086 152.72 69.0566 153.312 67.1046 153.312C65.1686 153.312 63.6166 152.72 62.4486 151.536C61.2966 150.336 60.7206 148.768 60.7206 146.832C60.7206 144.896 61.2966 143.336 62.4486 142.152C63.6166 140.952 65.1686 140.352 67.1046 140.352ZM67.1046 150.528C68.1126 150.528 68.8646 150.184 69.3606 149.496C69.8726 148.792 70.1286 147.904 70.1286 146.832C70.1286 145.776 69.8726 144.904 69.3606 144.216C68.8646 143.512 68.1126 143.16 67.1046 143.16C66.1126 143.16 65.3606 143.512 64.8486 144.216C64.3366 144.904 64.0806 145.776 64.0806 146.832C64.0806 147.904 64.3366 148.792 64.8486 149.496C65.3606 150.184 66.1126 150.528 67.1046 150.528ZM84.1943 148.848H87.5063C87.3463 150.192 86.7463 151.272 85.7063 152.088C84.6823 152.904 83.4023 153.312 81.8663 153.312C79.9623 153.312 78.4503 152.728 77.3303 151.56C76.2103 150.376 75.6503 148.8 75.6503 146.832C75.6503 144.88 76.2103 143.312 77.3303 142.128C78.4503 140.944 79.9623 140.352 81.8663 140.352C83.4023 140.352 84.6663 140.744 85.6583 141.528C86.6663 142.296 87.2503 143.32 87.4103 144.6H84.0743C83.8023 143.64 83.0743 143.16 81.8903 143.16C80.8983 143.16 80.1703 143.496 79.7063 144.168C79.2423 144.84 79.0103 145.72 79.0103 146.808C79.0103 147.896 79.2423 148.792 79.7063 149.496C80.1863 150.184 80.9143 150.528 81.8903 150.528C83.2183 150.528 83.9863 149.968 84.1943 148.848ZM89.2825 143.472V140.664H100.731V143.472H96.6985V153H93.3385V143.472H89.2825ZM107.861 157.8H104.501L107.117 151.728L101.885 140.664H105.389L108.461 147.24H109.085L111.917 140.664H115.301L107.861 157.8ZM129.239 153H125.879V143.472H120.839V153H117.479V140.664H129.239V153ZM144.64 153H141.28V148.08H136.144V153H132.784V140.664H136.144V145.272H141.28V140.664H144.64V153ZM148.182 140.664H151.542V144.264H154.326C155.91 144.264 157.126 144.648 157.974 145.416C158.838 146.168 159.27 147.224 159.27 148.584C159.27 149.96 158.838 151.04 157.974 151.824C157.126 152.608 155.91 153 154.326 153H148.182V140.664ZM151.542 146.904V150.216H153.846C154.614 150.216 155.15 150.08 155.454 149.808C155.758 149.52 155.91 149.104 155.91 148.56C155.91 148 155.758 147.584 155.454 147.312C155.15 147.04 154.614 146.904 153.846 146.904H151.542ZM161.118 140.664H164.478V153H161.118V140.664ZM168.034 153V140.664H172.498L174.994 145.848H175.618L178.114 140.664H182.554V153H179.29V145.128H178.666L176.698 149.112H173.89L171.922 145.128H171.298V153H168.034ZM196.048 153H192.784V140.664H196.048V147.624H196.624L201.4 140.664H204.712V153H201.448V146.064H200.872L196.048 153ZM219.564 157.8H216.204L218.82 151.728L213.588 140.664H217.092L220.164 147.24H220.788L223.62 140.664H227.004L219.564 157.8ZM240.947 150.216H243.131V156.432H239.963V153H230.819V156.432H227.651V150.216H229.475C230.195 148.376 230.555 146.376 230.555 144.216V140.664H240.947V150.216ZM237.587 150.216V143.472H233.579V144.24C233.579 146.528 233.275 148.52 232.667 150.216H237.587ZM251.3 140.352C253.252 140.352 254.804 140.944 255.956 142.128C257.108 143.312 257.684 144.88 257.684 146.832C257.684 148.784 257.108 150.352 255.956 151.536C254.804 152.72 253.252 153.312 251.3 153.312C249.364 153.312 247.812 152.72 246.644 151.536C245.492 150.336 244.916 148.768 244.916 146.832C244.916 144.896 245.492 143.336 246.644 142.152C247.812 140.952 249.364 140.352 251.3 140.352ZM251.3 150.528C252.308 150.528 253.06 150.184 253.556 149.496C254.068 148.792 254.324 147.904 254.324 146.832C254.324 145.776 254.068 144.904 253.556 144.216C253.06 143.512 252.308 143.16 251.3 143.16C250.308 143.16 249.556 143.512 249.044 144.216C248.532 144.904 248.276 145.776 248.276 146.832C248.276 147.904 248.532 148.792 249.044 149.496C249.556 150.184 250.308 150.528 251.3 150.528ZM266.806 141.072C268.566 141.072 269.982 141.648 271.054 142.8C272.142 143.936 272.686 145.4 272.686 147.192C272.686 148.984 272.094 150.456 270.91 151.608C269.742 152.744 268.206 153.312 266.302 153.312C264.254 153.312 262.662 152.664 261.526 151.368C260.406 150.072 259.846 148.184 259.846 145.704C259.846 140.392 261.47 137.48 264.718 136.968L267.886 136.464C268.366 136.384 268.686 136.288 268.846 136.176C269.006 136.048 269.102 135.84 269.134 135.552H271.846C271.846 136.432 271.678 137.168 271.342 137.76C271.006 138.352 270.342 138.736 269.35 138.912L265.294 139.56C264.43 139.688 263.774 140 263.326 140.496C262.878 140.992 262.566 141.744 262.39 142.752H263.014C263.798 141.632 265.062 141.072 266.806 141.072ZM263.998 149.544C264.526 150.2 265.286 150.528 266.278 150.528C267.27 150.528 268.022 150.2 268.534 149.544C269.046 148.888 269.302 148.072 269.302 147.096C269.302 146.12 269.046 145.312 268.534 144.672C268.022 144.032 267.27 143.712 266.278 143.712C265.27 143.712 264.51 144.032 263.998 144.672C263.486 145.312 263.23 146.12 263.23 147.096C263.23 148.072 263.486 148.888 263.998 149.544ZM287.398 153H284.038V148.08H278.902V153H275.542V140.664H278.902V145.272H284.038V140.664H287.398V153ZM290.94 140.664H294.3V144.264H297.084C298.668 144.264 299.884 144.648 300.732 145.416C301.596 146.168 302.028 147.224 302.028 148.584C302.028 149.96 301.596 151.04 300.732 151.824C299.884 152.608 298.668 153 297.084 153H290.94V140.664ZM294.3 146.904V150.216H296.604C297.372 150.216 297.908 150.08 298.212 149.808C298.516 149.52 298.668 149.104 298.668 148.56C298.668 148 298.516 147.584 298.212 147.312C297.908 147.04 297.372 146.904 296.604 146.904H294.3ZM303.876 140.664H307.236V153H303.876V140.664ZM310.792 153V140.664H315.256L317.752 145.848H318.376L320.872 140.664H325.312V153H322.048V145.128H321.424L319.456 149.112H316.648L314.68 145.128H314.056V153H310.792Z" fill="#111827"/>
<path d="M45.256 261.864H46.84V277.32H47.344L56.104 261.864H58.888V279H57.304V263.544H56.824L48.04 279H45.256V261.864ZM63.1806 279V267H71.8926V268.344H64.6926V279H63.1806ZM79.1185 266.688C80.9105 266.688 82.3185 267.288 83.3425 268.488C84.3825 269.688 84.9025 271.192 84.9025 273C84.9025 274.808 84.3825 276.312 83.3425 277.512C82.3185 278.712 80.9105 279.312 79.1185 279.312C77.3105 279.312 75.8945 278.712 74.8705 277.512C73.8465 276.312 73.3345 274.808 73.3345 273C73.3345 271.192 73.8465 269.688 74.8705 268.488C75.8945 267.288 77.3105 266.688 79.1185 266.688ZM79.1185 277.968C80.4785 277.968 81.5265 277.48 82.2625 276.504C83.0145 275.528 83.3905 274.36 83.3905 273C83.3905 271.64 83.0145 270.472 82.2625 269.496C81.5265 268.52 80.4785 268.032 79.1185 268.032C77.7265 268.032 76.6625 268.52 75.9265 269.496C75.2065 270.456 74.8465 271.624 74.8465 273C74.8465 274.376 75.2065 275.552 75.9265 276.528C76.6625 277.488 77.7265 277.968 79.1185 277.968ZM94.0439 279.312C92.3479 279.312 91.0679 278.76 90.2039 277.656H89.7239V283.8H88.2119V267H89.6759V268.344H90.1559C91.0359 267.24 92.3319 266.688 94.0439 266.688C95.6759 266.688 96.9719 267.288 97.9319 268.488C98.9079 269.672 99.3959 271.176 99.3959 273C99.3959 274.84 98.9159 276.352 97.9559 277.536C96.9959 278.72 95.6919 279.312 94.0439 279.312ZM93.8519 268.032C92.4759 268.032 91.4439 268.512 90.7559 269.472C90.0679 270.432 89.7239 271.608 89.7239 273C89.7239 274.408 90.0679 275.592 90.7559 276.552C91.4439 277.496 92.4759 277.968 93.8519 277.968C95.1319 277.968 96.1239 277.52 96.8279 276.624C97.5319 275.712 97.8839 274.504 97.8839 273C97.8839 271.496 97.5319 270.296 96.8279 269.4C96.1239 268.488 95.1319 268.032 93.8519 268.032ZM104.208 267V271.2H108C109.408 271.2 110.496 271.544 111.264 272.232C112.032 272.92 112.416 273.872 112.416 275.088C112.416 276.32 112.032 277.28 111.264 277.968C110.496 278.656 109.408 279 108 279H102.696V267H104.208ZM104.208 277.656H107.808C109.872 277.656 110.904 276.808 110.904 275.112C110.904 273.4 109.872 272.544 107.808 272.544H104.208V277.656Z" fill="#6B7280"/>
<path d="M566.539 267.589C566.539 272.232 565.834 276.22 564.426 279.554C563.018 283.006 561.198 285.804 558.968 287.946C556.738 290.208 554.215 291.815 551.398 292.768C548.464 293.839 545.588 294.375 542.771 294.375L542.771 288.125C545.823 288.125 548.698 287.054 551.398 284.911C553.98 282.887 555.506 280.089 555.975 276.518C555.623 276.637 555.212 276.756 554.743 276.875C554.391 276.994 553.98 277.113 553.511 277.232C552.924 277.351 552.278 277.411 551.574 277.411C548.053 277.411 545.119 276.042 542.771 273.304C540.424 270.685 539.25 267.589 539.25 264.018C539.25 260.446 540.482 257.292 542.947 254.554C545.295 251.935 548.464 250.625 552.454 250.625C556.914 250.625 560.377 252.292 562.842 255.625C565.306 259.077 566.539 263.065 566.539 267.589ZM601.75 267.589C601.75 272.232 601.046 276.22 599.637 279.554C598.229 283.006 596.41 285.804 594.18 287.946C591.95 290.208 589.426 291.815 586.609 292.768C583.675 293.839 580.799 294.375 577.982 294.375L577.982 288.125C581.034 288.125 583.91 287.054 586.609 284.911C589.191 282.887 590.717 280.089 591.187 276.518C590.835 276.637 590.424 276.756 589.954 276.875C589.602 276.994 589.191 277.113 588.722 277.232C588.135 277.351 587.489 277.411 586.785 277.411C583.264 277.411 580.33 276.042 577.982 273.304C575.635 270.685 574.461 267.589 574.461 264.018C574.461 260.446 575.694 257.292 578.158 254.554C580.506 251.935 583.675 250.625 587.665 250.625C592.126 250.625 595.588 252.292 598.053 255.625C600.518 259.077 601.75 263.065 601.75 267.589Z" fill="#EDE9FE"/>
</svg>
