<svg width="626" height="318" viewBox="0 0 626 318" fill="none" xmlns="http://www.w3.org/2000/svg">
<rect width="626" height="318" rx="16" fill="#F9FAFB"/>
<path d="M50.248 39.864H58.312V57H54.736V50.544H50.104L47.8 57H44.2L46.768 49.776C45.072 48.88 44.224 47.352 44.224 45.192C44.224 43.512 44.752 42.208 45.808 41.28C46.864 40.336 48.344 39.864 50.248 39.864ZM54.736 47.496V43.008H51.112C49.928 43.008 49.088 43.184 48.592 43.536C48.112 43.872 47.872 44.44 47.872 45.24C47.872 45.992 48.096 46.56 48.544 46.944C48.992 47.312 49.728 47.496 50.752 47.496H54.736ZM75.7611 48.288C75.7611 47.488 75.0571 47.088 73.6491 47.088C72.3051 47.088 71.5371 47.536 71.3451 48.432H68.2731C68.4011 47.088 68.9691 46.072 69.9771 45.384C70.9851 44.696 72.2891 44.352 73.8891 44.352C75.4891 44.352 76.7531 44.688 77.6811 45.36C78.6251 46.016 79.0971 46.864 79.0971 47.904C79.0971 49.104 78.6811 49.888 77.8491 50.256V50.88C78.9211 51.232 79.4571 52.08 79.4571 53.424C79.4571 54.56 78.9451 55.496 77.9211 56.232C76.8971 56.952 75.5531 57.312 73.8891 57.312C72.0011 57.312 70.5531 56.952 69.5451 56.232C68.5531 55.496 67.9851 54.464 67.8411 53.136H70.9371C71.2091 54.096 72.1371 54.576 73.7211 54.576C75.3051 54.576 76.0971 54.136 76.0971 53.256C76.0971 52.824 75.9371 52.512 75.6171 52.32C75.3131 52.128 74.8091 52.032 74.1051 52.032H72.0891V49.464H73.9851C75.1691 49.464 75.7611 49.072 75.7611 48.288ZM90.0006 57V55.944H89.3766C88.5926 56.856 87.4406 57.312 85.9206 57.312C84.5766 57.312 83.5126 56.92 82.7286 56.136C81.9446 55.336 81.5526 54.36 81.5526 53.208C81.5526 52.104 81.9686 51.144 82.8006 50.328C83.6326 49.512 84.8886 49.104 86.5686 49.104H89.8566V48.792C89.8566 47.512 89.1286 46.872 87.6726 46.872C86.3766 46.872 85.6806 47.312 85.5846 48.192H82.2486C82.2806 47.024 82.7846 46.096 83.7606 45.408C84.7366 44.704 85.9846 44.352 87.5046 44.352C89.2646 44.352 90.6326 44.728 91.6086 45.48C92.6006 46.232 93.0966 47.4 93.0966 48.984V57H90.0006ZM87.0966 54.648C87.9126 54.648 88.5766 54.408 89.0886 53.928C89.6006 53.448 89.8566 52.824 89.8566 52.056V51.288H87.2166C85.6806 51.288 84.9126 51.84 84.9126 52.944C84.9126 54.08 85.6406 54.648 87.0966 54.648ZM105.023 57L102.527 52.08H99.8391V57H96.4791V44.664H99.8391V49.272H102.575L104.927 44.664H108.359L105.335 50.616L108.551 57H105.023ZM118.735 57V55.944H118.111C117.327 56.856 116.175 57.312 114.655 57.312C113.311 57.312 112.247 56.92 111.463 56.136C110.679 55.336 110.287 54.36 110.287 53.208C110.287 52.104 110.703 51.144 111.535 50.328C112.367 49.512 113.623 49.104 115.303 49.104H118.591V48.792C118.591 47.512 117.863 46.872 116.407 46.872C115.111 46.872 114.415 47.312 114.319 48.192H110.983C111.015 47.024 111.519 46.096 112.495 45.408C113.471 44.704 114.719 44.352 116.239 44.352C117.999 44.352 119.367 44.728 120.343 45.48C121.335 46.232 121.831 47.4 121.831 48.984V57H118.735ZM115.831 54.648C116.647 54.648 117.311 54.408 117.823 53.928C118.335 53.448 118.591 52.824 118.591 52.056V51.288H115.951C114.415 51.288 113.647 51.84 113.647 52.944C113.647 54.08 114.375 54.648 115.831 54.648ZM132.246 48.288C132.246 47.488 131.542 47.088 130.134 47.088C128.79 47.088 128.022 47.536 127.83 48.432H124.758C124.886 47.088 125.454 46.072 126.462 45.384C127.47 44.696 128.774 44.352 130.374 44.352C131.974 44.352 133.238 44.688 134.166 45.36C135.11 46.016 135.582 46.864 135.582 47.904C135.582 49.104 135.166 49.888 134.334 50.256V50.88C135.406 51.232 135.942 52.08 135.942 53.424C135.942 54.56 135.43 55.496 134.406 56.232C133.382 56.952 132.038 57.312 130.374 57.312C128.486 57.312 127.038 56.952 126.03 56.232C125.038 55.496 124.47 54.464 124.326 53.136H127.422C127.694 54.096 128.622 54.576 130.206 54.576C131.79 54.576 132.582 54.136 132.582 53.256C132.582 52.824 132.422 52.512 132.102 52.32C131.798 52.128 131.294 52.032 130.59 52.032H128.574V49.464H130.47C131.654 49.464 132.246 49.072 132.246 48.288ZM146.485 57V55.944H145.861C145.077 56.856 143.925 57.312 142.405 57.312C141.061 57.312 139.997 56.92 139.213 56.136C138.429 55.336 138.037 54.36 138.037 53.208C138.037 52.104 138.453 51.144 139.285 50.328C140.117 49.512 141.373 49.104 143.053 49.104H146.341V48.792C146.341 47.512 145.613 46.872 144.157 46.872C142.861 46.872 142.165 47.312 142.069 48.192H138.733C138.765 47.024 139.269 46.096 140.245 45.408C141.221 44.704 142.469 44.352 143.989 44.352C145.749 44.352 147.117 44.728 148.093 45.48C149.085 46.232 149.581 47.4 149.581 48.984V57H146.485ZM143.581 54.648C144.397 54.648 145.061 54.408 145.573 53.928C146.085 53.448 146.341 52.824 146.341 52.056V51.288H143.701C142.165 51.288 141.397 51.84 141.397 52.944C141.397 54.08 142.125 54.648 143.581 54.648ZM151.716 57V53.784H152.148C152.948 53.784 153.524 53.504 153.876 52.944C154.228 52.368 154.404 51.336 154.404 49.848V44.664H164.94V57H161.58V47.472H157.5V49.968C157.5 52.544 157.076 54.36 156.228 55.416C155.38 56.472 154.02 57 152.148 57H151.716ZM176.087 57V55.944H175.463C174.679 56.856 173.527 57.312 172.007 57.312C170.663 57.312 169.599 56.92 168.815 56.136C168.031 55.336 167.639 54.36 167.639 53.208C167.639 52.104 168.055 51.144 168.887 50.328C169.719 49.512 170.975 49.104 172.655 49.104H175.943V48.792C175.943 47.512 175.215 46.872 173.759 46.872C172.463 46.872 171.767 47.312 171.671 48.192H168.335C168.367 47.024 168.871 46.096 169.847 45.408C170.823 44.704 172.071 44.352 173.591 44.352C175.351 44.352 176.719 44.728 177.695 45.48C178.687 46.232 179.183 47.4 179.183 48.984V57H176.087ZM173.183 54.648C173.999 54.648 174.663 54.408 175.175 53.928C175.687 53.448 175.943 52.824 175.943 52.056V51.288H173.303C171.767 51.288 170.999 51.84 170.999 52.944C170.999 54.08 171.727 54.648 173.183 54.648ZM201.005 57H197.645V47.472H192.605V57H189.245V44.664H201.005V57ZM210.237 44.352C212.189 44.352 213.741 44.944 214.893 46.128C216.045 47.312 216.621 48.88 216.621 50.832C216.621 52.784 216.045 54.352 214.893 55.536C213.741 56.72 212.189 57.312 210.237 57.312C208.301 57.312 206.749 56.72 205.581 55.536C204.429 54.336 203.853 52.768 203.853 50.832C203.853 48.896 204.429 47.336 205.581 46.152C206.749 44.952 208.301 44.352 210.237 44.352ZM210.237 54.528C211.245 54.528 211.997 54.184 212.493 53.496C213.005 52.792 213.261 51.904 213.261 50.832C213.261 49.776 213.005 48.904 212.493 48.216C211.997 47.512 211.245 47.16 210.237 47.16C209.245 47.16 208.493 47.512 207.981 48.216C207.469 48.904 207.213 49.776 207.213 50.832C207.213 51.904 207.469 52.792 207.981 53.496C208.493 54.184 209.245 54.528 210.237 54.528ZM227.327 52.848H230.639C230.479 54.192 229.879 55.272 228.839 56.088C227.815 56.904 226.535 57.312 224.999 57.312C223.095 57.312 221.583 56.728 220.463 55.56C219.343 54.376 218.783 52.8 218.783 50.832C218.783 48.88 219.343 47.312 220.463 46.128C221.583 44.944 223.095 44.352 224.999 44.352C226.535 44.352 227.799 44.744 228.791 45.528C229.799 46.296 230.383 47.32 230.543 48.6H227.207C226.935 47.64 226.207 47.16 225.023 47.16C224.031 47.16 223.303 47.496 222.839 48.168C222.375 48.84 222.143 49.72 222.143 50.808C222.143 51.896 222.375 52.792 222.839 53.496C223.319 54.184 224.047 54.528 225.023 54.528C226.351 54.528 227.119 53.968 227.327 52.848ZM232.223 57V53.784H232.655C233.455 53.784 234.031 53.504 234.383 52.944C234.735 52.368 234.911 51.336 234.911 49.848V44.664H245.447V57H242.087V47.472H238.007V49.968C238.007 52.544 237.583 54.36 236.735 55.416C235.887 56.472 234.527 57 232.655 57H232.223ZM260.482 50.208V51.216H251.65C251.746 53.424 252.746 54.528 254.65 54.528C255.866 54.528 256.634 54.096 256.954 53.232H260.362C260.106 54.512 259.49 55.512 258.514 56.232C257.538 56.952 256.234 57.312 254.602 57.312C252.666 57.312 251.13 56.72 249.994 55.536C248.874 54.352 248.314 52.768 248.314 50.784C248.314 48.816 248.874 47.256 249.994 46.104C251.114 44.936 252.626 44.352 254.53 44.352C256.354 44.352 257.794 44.896 258.85 45.984C259.906 47.072 260.45 48.48 260.482 50.208ZM257.05 48.984C256.826 47.576 255.978 46.872 254.506 46.872C253.034 46.872 252.122 47.576 251.77 48.984H257.05ZM275.307 54.216H277.491V60.432H274.323V57H265.179V60.432H262.011V54.216H263.835C264.555 52.376 264.915 50.376 264.915 48.216V44.664H275.307V54.216ZM271.947 54.216V47.472H267.939V48.24C267.939 50.528 267.635 52.52 267.027 54.216H271.947ZM291.827 57H288.467V52.08H283.331V57H279.971V44.664H283.331V49.272H288.467V44.664H291.827V57ZM298.634 57H295.37V44.664H298.634V51.624H299.21L303.986 44.664H307.298V57H304.034V50.064H303.458L298.634 57ZM314.103 57H310.839V44.664H314.103V51.624H314.679L319.455 44.664H322.767V57H319.503V50.064H318.927L314.103 57ZM318.567 39.768H321.159C321.063 40.904 320.639 41.792 319.887 42.432C319.151 43.056 318.119 43.368 316.791 43.368C315.463 43.368 314.431 43.056 313.695 42.432C312.959 41.792 312.543 40.904 312.447 39.768H315.039C315.087 40.2 315.255 40.552 315.543 40.824C315.831 41.096 316.247 41.232 316.791 41.232C317.863 41.232 318.455 40.744 318.567 39.768ZM336.395 42.552H332.987V39.552H336.395V42.552ZM336.371 44.664V57H333.011V44.664H336.371ZM340.164 39.864H347.988C349.956 39.864 351.476 40.344 352.548 41.304C353.636 42.264 354.18 43.6 354.18 45.312C354.18 47.056 353.636 48.416 352.548 49.392C351.476 50.368 349.956 50.856 347.988 50.856H343.74V57H340.164V39.864ZM343.74 47.712H347.484C348.556 47.712 349.324 47.52 349.788 47.136C350.268 46.736 350.508 46.144 350.508 45.36C350.508 44.576 350.268 43.992 349.788 43.608C349.324 43.208 348.556 43.008 347.484 43.008H343.74V47.712ZM368.96 57H365.6V50.016C365.6 48.224 364.8 47.328 363.2 47.328C362.384 47.328 361.72 47.632 361.208 48.24C360.712 48.848 360.464 49.584 360.464 50.448V57H357.104V39.552H360.464V45.792H361.088C361.808 44.832 362.928 44.352 364.448 44.352C365.952 44.352 367.08 44.792 367.832 45.672C368.584 46.552 368.96 47.8 368.96 49.416V57ZM378.027 44.352C379.979 44.352 381.531 44.944 382.682 46.128C383.835 47.312 384.411 48.88 384.411 50.832C384.411 52.784 383.835 54.352 382.682 55.536C381.531 56.72 379.979 57.312 378.027 57.312C376.091 57.312 374.539 56.72 373.371 55.536C372.219 54.336 371.643 52.768 371.643 50.832C371.643 48.896 372.219 47.336 373.371 46.152C374.539 44.952 376.091 44.352 378.027 44.352ZM378.027 54.528C379.035 54.528 379.787 54.184 380.283 53.496C380.795 52.792 381.051 51.904 381.051 50.832C381.051 49.776 380.795 48.904 380.283 48.216C379.787 47.512 379.035 47.16 378.027 47.16C377.035 47.16 376.283 47.512 375.771 48.216C375.259 48.904 375.003 49.776 375.003 50.832C375.003 51.904 375.259 52.792 375.771 53.496C376.283 54.184 377.035 54.528 378.027 54.528ZM399.124 57H395.764V50.016C395.764 49.152 395.556 48.488 395.14 48.024C394.74 47.56 394.148 47.328 393.364 47.328C392.548 47.328 391.884 47.632 391.372 48.24C390.876 48.848 390.628 49.584 390.628 50.448V57H387.268V44.664H390.508V45.792H391.132C391.884 44.832 393.028 44.352 394.564 44.352C396.084 44.352 397.22 44.792 397.972 45.672C398.74 46.552 399.124 47.8 399.124 49.416V57ZM413.975 50.208V51.216H405.143C405.239 53.424 406.239 54.528 408.143 54.528C409.359 54.528 410.127 54.096 410.447 53.232H413.855C413.599 54.512 412.983 55.512 412.007 56.232C411.031 56.952 409.727 57.312 408.095 57.312C406.159 57.312 404.623 56.72 403.487 55.536C402.367 54.352 401.807 52.768 401.807 50.784C401.807 48.816 402.367 47.256 403.487 46.104C404.607 44.936 406.119 44.352 408.023 44.352C409.847 44.352 411.287 44.896 412.343 45.984C413.399 47.072 413.943 48.48 413.975 50.208ZM410.543 48.984C410.319 47.576 409.471 46.872 407.999 46.872C406.527 46.872 405.615 47.576 405.263 48.984H410.543ZM48.04 89H44.776V76.664H48.04V83.624H48.616L53.392 76.664H56.704V89H53.44V82.064H52.864L48.04 89ZM67.2768 80.288C67.2768 79.488 66.5728 79.088 65.1648 79.088C63.8208 79.088 63.0528 79.536 62.8608 80.432H59.7888C59.9168 79.088 60.4848 78.072 61.4928 77.384C62.5008 76.696 63.8048 76.352 65.4048 76.352C67.0048 76.352 68.2688 76.688 69.1968 77.36C70.1408 78.016 70.6128 78.864 70.6128 79.904C70.6128 81.104 70.1968 81.888 69.3648 82.256V82.88C70.4368 83.232 70.9728 84.08 70.9728 85.424C70.9728 86.56 70.4608 87.496 69.4368 88.232C68.4128 88.952 67.0688 89.312 65.4048 89.312C63.5168 89.312 62.0688 88.952 61.0608 88.232C60.0688 87.496 59.5008 86.464 59.3568 85.136H62.4528C62.7248 86.096 63.6528 86.576 65.2368 86.576C66.8208 86.576 67.6128 86.136 67.6128 85.256C67.6128 84.824 67.4528 84.512 67.1328 84.32C66.8288 84.128 66.3248 84.032 65.6208 84.032H63.6048V81.464H65.5008C66.6848 81.464 67.2768 81.072 67.2768 80.288ZM91.6519 83.528H95.3719C95.1159 85.272 94.3479 86.672 93.0679 87.728C91.8039 88.784 90.1879 89.312 88.2199 89.312C85.6439 89.312 83.6279 88.504 82.1719 86.888C80.7319 85.256 80.0119 83.104 80.0119 80.432C80.0119 77.76 80.7399 75.616 82.1959 74C83.6519 72.368 85.6599 71.552 88.2199 71.552C90.0919 71.552 91.6519 72.04 92.8999 73.016C94.1479 73.976 94.9159 75.256 95.2039 76.856H91.4599C91.0599 75.448 89.9799 74.744 88.2199 74.744C86.7479 74.744 85.6199 75.28 84.8359 76.352C84.0679 77.408 83.6839 78.768 83.6839 80.432C83.6839 82.096 84.0679 83.464 84.8359 84.536C85.6199 85.592 86.7479 86.12 88.2199 86.12C89.1319 86.12 89.8839 85.896 90.4759 85.448C91.0839 84.984 91.4759 84.344 91.6519 83.528ZM107.427 85.808V71.864H110.907V85.808H116.331V71.864H119.811V89H98.5233V71.864H102.003V85.808H107.427ZM135.045 89L133.653 84.368H127.125L125.733 89H122.205L127.653 71.864H133.197L138.669 89H135.045ZM129.837 75.296L128.037 81.248H132.693L130.893 75.296H129.837ZM146.853 76.664H150.237V80.264C150.237 80.536 150.253 80.768 150.285 80.96C150.333 81.136 150.429 81.328 150.573 81.536C150.717 81.728 150.957 81.88 151.293 81.992C151.629 82.088 152.053 82.136 152.565 82.136C153.381 82.136 154.157 82.048 154.893 81.872V76.664H158.253V89H154.893V84.584C153.821 84.808 152.677 84.92 151.461 84.92C150.469 84.92 149.645 84.816 148.989 84.608C148.349 84.384 147.877 84.064 147.573 83.648C147.285 83.232 147.093 82.816 146.997 82.4C146.901 81.984 146.853 81.488 146.853 80.912V76.664ZM173.107 82.208V83.216H164.275C164.371 85.424 165.371 86.528 167.275 86.528C168.491 86.528 169.259 86.096 169.579 85.232H172.987C172.731 86.512 172.115 87.512 171.139 88.232C170.163 88.952 168.859 89.312 167.227 89.312C165.291 89.312 163.755 88.72 162.619 87.536C161.499 86.352 160.939 84.768 160.939 82.784C160.939 80.816 161.499 79.256 162.619 78.104C163.739 76.936 165.251 76.352 167.155 76.352C168.979 76.352 170.419 76.896 171.475 77.984C172.531 79.072 173.075 80.48 173.107 82.208ZM169.675 80.984C169.451 79.576 168.603 78.872 167.131 78.872C165.659 78.872 164.747 79.576 164.395 80.984H169.675ZM182.196 79.16C181.204 79.16 180.452 79.512 179.94 80.216C179.444 80.904 179.196 81.776 179.196 82.832C179.196 83.888 179.444 84.768 179.94 85.472C180.452 86.176 181.204 86.528 182.196 86.528C183.156 86.528 183.884 86.184 184.38 85.496C184.892 84.808 185.148 83.92 185.148 82.832C185.148 81.76 184.892 80.88 184.38 80.192C183.884 79.504 183.156 79.16 182.196 79.16ZM175.956 76.664H179.196V77.792H179.82C180.588 76.832 181.74 76.352 183.276 76.352C184.876 76.352 186.148 76.96 187.092 78.176C188.036 79.376 188.508 80.928 188.508 82.832C188.508 84.752 188.036 86.312 187.092 87.512C186.148 88.712 184.876 89.312 183.276 89.312C181.772 89.312 180.66 88.832 179.94 87.872H179.316V93.8H175.956V76.664ZM202.826 82.208V83.216H193.994C194.09 85.424 195.09 86.528 196.994 86.528C198.21 86.528 198.978 86.096 199.298 85.232H202.706C202.45 86.512 201.834 87.512 200.858 88.232C199.882 88.952 198.578 89.312 196.946 89.312C195.01 89.312 193.474 88.72 192.338 87.536C191.218 86.352 190.658 84.768 190.658 82.784C190.658 80.816 191.218 79.256 192.338 78.104C193.458 76.936 194.97 76.352 196.874 76.352C198.698 76.352 200.138 76.896 201.194 77.984C202.25 79.072 202.794 80.48 202.826 82.208ZM199.394 80.984C199.17 79.576 198.322 78.872 196.85 78.872C195.378 78.872 194.466 79.576 194.114 80.984H199.394ZM212.706 80.288C212.706 79.488 212.002 79.088 210.594 79.088C209.25 79.088 208.482 79.536 208.29 80.432H205.218C205.346 79.088 205.914 78.072 206.922 77.384C207.93 76.696 209.234 76.352 210.834 76.352C212.434 76.352 213.698 76.688 214.626 77.36C215.57 78.016 216.042 78.864 216.042 79.904C216.042 81.104 215.626 81.888 214.794 82.256V82.88C215.866 83.232 216.402 84.08 216.402 85.424C216.402 86.56 215.89 87.496 214.866 88.232C213.842 88.952 212.498 89.312 210.834 89.312C208.946 89.312 207.498 88.952 206.49 88.232C205.498 87.496 204.93 86.464 204.786 85.136H207.882C208.154 86.096 209.082 86.576 210.666 86.576C212.25 86.576 213.042 86.136 213.042 85.256C213.042 84.824 212.882 84.512 212.562 84.32C212.258 84.128 211.754 84.032 211.05 84.032H209.034V81.464H210.93C212.114 81.464 212.706 81.072 212.706 80.288ZM235.57 82.16V82.784C236.194 82.944 236.698 83.264 237.082 83.744C237.466 84.224 237.658 84.84 237.658 85.592C237.658 87.864 236.202 89 233.29 89H226.042V76.664H233.098C234.33 76.664 235.282 76.944 235.954 77.504C236.642 78.048 236.986 78.808 236.986 79.784C236.986 80.904 236.514 81.696 235.57 82.16ZM229.33 86.576H232.522C233.69 86.576 234.274 86.12 234.274 85.208C234.274 84.28 233.69 83.816 232.522 83.816H229.33V86.576ZM229.33 79.088V81.464H232.186C233.146 81.464 233.626 81.072 233.626 80.288C233.626 79.488 233.146 79.088 232.186 79.088H229.33ZM248.157 89V87.944H247.533C246.749 88.856 245.597 89.312 244.077 89.312C242.733 89.312 241.669 88.92 240.885 88.136C240.101 87.336 239.709 86.36 239.709 85.208C239.709 84.104 240.125 83.144 240.957 82.328C241.789 81.512 243.045 81.104 244.725 81.104H248.013V80.792C248.013 79.512 247.285 78.872 245.829 78.872C244.533 78.872 243.837 79.312 243.741 80.192H240.405C240.437 79.024 240.941 78.096 241.917 77.408C242.893 76.704 244.141 76.352 245.661 76.352C247.421 76.352 248.789 76.728 249.765 77.48C250.757 78.232 251.253 79.4 251.253 80.984V89H248.157ZM245.253 86.648C246.069 86.648 246.733 86.408 247.245 85.928C247.757 85.448 248.013 84.824 248.013 84.056V83.288H245.373C243.837 83.288 243.069 83.84 243.069 84.944C243.069 86.08 243.797 86.648 245.253 86.648ZM268.483 76.664H271.723V89H254.635V76.664H257.899V86.216H261.571V76.664H264.811V86.216H268.483V76.664ZM289.812 84.848H293.124C292.964 86.192 292.364 87.272 291.324 88.088C290.3 88.904 289.02 89.312 287.484 89.312C285.58 89.312 284.068 88.728 282.948 87.56C281.828 86.376 281.268 84.8 281.268 82.832C281.268 80.88 281.828 79.312 282.948 78.128C284.068 76.944 285.58 76.352 287.484 76.352C289.02 76.352 290.284 76.744 291.276 77.528C292.284 78.296 292.868 79.32 293.028 80.6H289.692C289.42 79.64 288.692 79.16 287.508 79.16C286.516 79.16 285.788 79.496 285.324 80.168C284.86 80.84 284.628 81.72 284.628 82.808C284.628 83.896 284.86 84.792 285.324 85.496C285.804 86.184 286.532 86.528 287.508 86.528C288.836 86.528 289.604 85.968 289.812 84.848ZM307.428 82.208V83.216H298.596C298.692 85.424 299.692 86.528 301.596 86.528C302.812 86.528 303.58 86.096 303.9 85.232H307.308C307.052 86.512 306.436 87.512 305.46 88.232C304.484 88.952 303.18 89.312 301.548 89.312C299.612 89.312 298.076 88.72 296.94 87.536C295.82 86.352 295.26 84.768 295.26 82.784C295.26 80.816 295.82 79.256 296.94 78.104C298.06 76.936 299.572 76.352 301.476 76.352C303.3 76.352 304.74 76.896 305.796 77.984C306.852 79.072 307.396 80.48 307.428 82.208ZM303.996 80.984C303.772 79.576 302.924 78.872 301.452 78.872C299.98 78.872 299.068 79.576 298.716 80.984H303.996ZM316.516 79.16C315.524 79.16 314.772 79.512 314.26 80.216C313.764 80.904 313.516 81.776 313.516 82.832C313.516 83.888 313.764 84.768 314.26 85.472C314.772 86.176 315.524 86.528 316.516 86.528C317.476 86.528 318.204 86.184 318.7 85.496C319.212 84.808 319.468 83.92 319.468 82.832C319.468 81.76 319.212 80.88 318.7 80.192C318.204 79.504 317.476 79.16 316.516 79.16ZM310.276 76.664H313.516V77.792H314.14C314.908 76.832 316.06 76.352 317.596 76.352C319.196 76.352 320.468 76.96 321.412 78.176C322.356 79.376 322.828 80.928 322.828 82.832C322.828 84.752 322.356 86.312 321.412 87.512C320.468 88.712 319.196 89.312 317.596 89.312C316.092 89.312 314.98 88.832 314.26 87.872H313.636V93.8H310.276V76.664ZM335.202 82.16V82.784C335.826 82.944 336.33 83.264 336.714 83.744C337.098 84.224 337.29 84.84 337.29 85.592C337.29 87.864 335.834 89 332.922 89H325.674V76.664H332.73C333.962 76.664 334.914 76.944 335.586 77.504C336.274 78.048 336.618 78.808 336.618 79.784C336.618 80.904 336.146 81.696 335.202 82.16ZM328.962 86.576H332.154C333.322 86.576 333.906 86.12 333.906 85.208C333.906 84.28 333.322 83.816 332.154 83.816H328.962V86.576ZM328.962 79.088V81.464H331.818C332.778 81.464 333.258 81.072 333.258 80.288C333.258 79.488 332.778 79.088 331.818 79.088H328.962ZM343.47 89H340.206V76.664H343.47V83.624H344.046L348.822 76.664H352.134V89H348.87V82.064H348.294L343.47 89ZM363.522 84.848H366.834C366.674 86.192 366.074 87.272 365.034 88.088C364.01 88.904 362.73 89.312 361.194 89.312C359.29 89.312 357.778 88.728 356.658 87.56C355.538 86.376 354.978 84.8 354.978 82.832C354.978 80.88 355.538 79.312 356.658 78.128C357.778 76.944 359.29 76.352 361.194 76.352C362.73 76.352 363.994 76.744 364.986 77.528C365.994 78.296 366.578 79.32 366.738 80.6H363.402C363.13 79.64 362.402 79.16 361.218 79.16C360.226 79.16 359.498 79.496 359.034 80.168C358.57 80.84 358.338 81.72 358.338 82.808C358.338 83.896 358.57 84.792 359.034 85.496C359.514 86.184 360.242 86.528 361.218 86.528C362.546 86.528 363.314 85.968 363.522 84.848ZM371.179 89H369.547V85.352H373.243V89.6L371.395 92.408H369.355L371.179 89.6V89ZM386.642 89H383.378V76.664H386.642V83.624H387.218L391.994 76.664H395.306V89H392.042V82.064H391.466L386.642 89ZM417.502 86.216H419.686V92.432H416.518V89H407.374V92.432H404.206V86.216H406.03C406.75 84.376 407.11 82.376 407.11 80.216V76.664H417.502V86.216ZM414.142 86.216V79.472H410.134V80.24C410.134 82.528 409.83 84.52 409.222 86.216H414.142ZM427.855 76.352C429.807 76.352 431.359 76.944 432.511 78.128C433.663 79.312 434.239 80.88 434.239 82.832C434.239 84.784 433.663 86.352 432.511 87.536C431.359 88.72 429.807 89.312 427.855 89.312C425.919 89.312 424.367 88.72 423.199 87.536C422.047 86.336 421.471 84.768 421.471 82.832C421.471 80.896 422.047 79.336 423.199 78.152C424.367 76.952 425.919 76.352 427.855 76.352ZM427.855 86.528C428.863 86.528 429.615 86.184 430.111 85.496C430.623 84.792 430.879 83.904 430.879 82.832C430.879 81.776 430.623 80.904 430.111 80.216C429.615 79.512 428.863 79.16 427.855 79.16C426.863 79.16 426.111 79.512 425.599 80.216C425.087 80.904 424.831 81.776 424.831 82.832C424.831 83.904 425.087 84.792 425.599 85.496C426.111 86.184 426.863 86.528 427.855 86.528ZM444.944 84.848H448.256C448.096 86.192 447.496 87.272 446.456 88.088C445.432 88.904 444.152 89.312 442.616 89.312C440.712 89.312 439.2 88.728 438.08 87.56C436.96 86.376 436.4 84.8 436.4 82.832C436.4 80.88 436.96 79.312 438.08 78.128C439.2 76.944 440.712 76.352 442.616 76.352C444.152 76.352 445.416 76.744 446.408 77.528C447.416 78.296 448 79.32 448.16 80.6H444.824C444.552 79.64 443.824 79.16 442.64 79.16C441.648 79.16 440.92 79.496 440.456 80.168C439.992 80.84 439.76 81.72 439.76 82.808C439.76 83.896 439.992 84.792 440.456 85.496C440.936 86.184 441.664 86.528 442.64 86.528C443.968 86.528 444.736 85.968 444.944 84.848ZM450.033 79.472V76.664H461.481V79.472H457.449V89H454.089V79.472H450.033ZM471.563 89V87.944H470.939C470.155 88.856 469.003 89.312 467.483 89.312C466.139 89.312 465.075 88.92 464.291 88.136C463.507 87.336 463.115 86.36 463.115 85.208C463.115 84.104 463.531 83.144 464.363 82.328C465.195 81.512 466.451 81.104 468.131 81.104H471.419V80.792C471.419 79.512 470.691 78.872 469.235 78.872C467.939 78.872 467.243 79.312 467.147 80.192H463.811C463.843 79.024 464.347 78.096 465.323 77.408C466.299 76.704 467.547 76.352 469.067 76.352C470.827 76.352 472.195 76.728 473.171 77.48C474.163 78.232 474.659 79.4 474.659 80.984V89H471.563ZM468.659 86.648C469.475 86.648 470.139 86.408 470.651 85.928C471.163 85.448 471.419 84.824 471.419 84.056V83.288H468.779C467.243 83.288 466.475 83.84 466.475 84.944C466.475 86.08 467.203 86.648 468.659 86.648ZM487.57 82.16V82.784C488.194 82.944 488.698 83.264 489.082 83.744C489.466 84.224 489.658 84.84 489.658 85.592C489.658 87.864 488.202 89 485.29 89H478.042V76.664H485.098C486.33 76.664 487.282 76.944 487.954 77.504C488.642 78.048 488.986 78.808 488.986 79.784C488.986 80.904 488.514 81.696 487.57 82.16ZM481.33 86.576H484.522C485.69 86.576 486.274 86.12 486.274 85.208C486.274 84.28 485.69 83.816 484.522 83.816H481.33V86.576ZM481.33 79.088V81.464H484.186C485.146 81.464 485.626 81.072 485.626 80.288C485.626 79.488 485.146 79.088 484.186 79.088H481.33ZM501.117 89L498.621 84.08H495.933V89H492.573V76.664H495.933V81.272H498.669L501.021 76.664H504.453L501.429 82.616L504.645 89H501.117ZM514.829 89V87.944H514.205C513.421 88.856 512.269 89.312 510.749 89.312C509.405 89.312 508.341 88.92 507.557 88.136C506.773 87.336 506.381 86.36 506.381 85.208C506.381 84.104 506.797 83.144 507.629 82.328C508.461 81.512 509.717 81.104 511.397 81.104H514.685V80.792C514.685 79.512 513.957 78.872 512.501 78.872C511.205 78.872 510.509 79.312 510.413 80.192H507.077C507.109 79.024 507.613 78.096 508.589 77.408C509.565 76.704 510.813 76.352 512.333 76.352C514.093 76.352 515.461 76.728 516.437 77.48C517.429 78.232 517.925 79.4 517.925 80.984V89H514.829ZM511.925 86.648C512.741 86.648 513.405 86.408 513.917 85.928C514.429 85.448 514.685 84.824 514.685 84.056V83.288H512.045C510.509 83.288 509.741 83.84 509.741 84.944C509.741 86.08 510.469 86.648 511.925 86.648ZM56.536 121H53.176V111.472H48.136V121H44.776V108.664H56.536V121ZM66.3207 111.16C65.3287 111.16 64.5767 111.512 64.0647 112.216C63.5687 112.904 63.3207 113.776 63.3207 114.832C63.3207 115.888 63.5687 116.768 64.0647 117.472C64.5767 118.176 65.3287 118.528 66.3207 118.528C67.2807 118.528 68.0087 118.184 68.5047 117.496C69.0167 116.808 69.2727 115.92 69.2727 114.832C69.2727 113.76 69.0167 112.88 68.5047 112.192C68.0087 111.504 67.2807 111.16 66.3207 111.16ZM60.0807 108.664H63.3207V109.792H63.9447C64.7127 108.832 65.8647 108.352 67.4007 108.352C69.0007 108.352 70.2727 108.96 71.2167 110.176C72.1607 111.376 72.6327 112.928 72.6327 114.832C72.6327 116.752 72.1607 118.312 71.2167 119.512C70.2727 120.712 69.0007 121.312 67.4007 121.312C65.8967 121.312 64.7847 120.832 64.0647 119.872H63.4407V125.8H60.0807V108.664ZM81.1671 108.352C83.1191 108.352 84.6711 108.944 85.8231 110.128C86.9751 111.312 87.5511 112.88 87.5511 114.832C87.5511 116.784 86.9751 118.352 85.8231 119.536C84.6711 120.72 83.1191 121.312 81.1671 121.312C79.2311 121.312 77.6791 120.72 76.5111 119.536C75.3591 118.336 74.7831 116.768 74.7831 114.832C74.7831 112.896 75.3591 111.336 76.5111 110.152C77.6791 108.952 79.2311 108.352 81.1671 108.352ZM81.1671 118.528C82.1751 118.528 82.9271 118.184 83.4231 117.496C83.9351 116.792 84.1911 115.904 84.1911 114.832C84.1911 113.776 83.9351 112.904 83.4231 112.216C82.9271 111.512 82.1751 111.16 81.1671 111.16C80.1751 111.16 79.4231 111.512 78.9111 112.216C78.3991 112.904 78.1431 113.776 78.1431 114.832C78.1431 115.904 78.3991 116.792 78.9111 117.496C79.4231 118.184 80.1751 118.528 81.1671 118.528ZM104.257 108.664H107.497V121H90.4088V108.664H93.6728V118.216H97.3448V108.664H100.585V118.216H104.257V108.664ZM109.809 121V117.784H110.241C111.041 117.784 111.617 117.504 111.969 116.944C112.321 116.368 112.497 115.336 112.497 113.848V108.664H123.033V121H119.673V111.472H115.593V113.968C115.593 116.544 115.169 118.36 114.321 119.416C113.473 120.472 112.113 121 110.241 121H109.809ZM134.18 121V119.944H133.556C132.772 120.856 131.62 121.312 130.1 121.312C128.756 121.312 127.692 120.92 126.908 120.136C126.124 119.336 125.732 118.36 125.732 117.208C125.732 116.104 126.148 115.144 126.98 114.328C127.812 113.512 129.068 113.104 130.748 113.104H134.036V112.792C134.036 111.512 133.308 110.872 131.852 110.872C130.556 110.872 129.86 111.312 129.764 112.192H126.428C126.46 111.024 126.964 110.096 127.94 109.408C128.916 108.704 130.164 108.352 131.684 108.352C133.444 108.352 134.812 108.728 135.788 109.48C136.78 110.232 137.276 111.4 137.276 112.984V121H134.18ZM131.276 118.648C132.092 118.648 132.756 118.408 133.268 117.928C133.78 117.448 134.036 116.824 134.036 116.056V115.288H131.396C129.86 115.288 129.092 115.84 129.092 116.944C129.092 118.08 129.82 118.648 131.276 118.648ZM153.603 109.072C155.363 109.072 156.779 109.648 157.851 110.8C158.939 111.936 159.483 113.4 159.483 115.192C159.483 116.984 158.891 118.456 157.707 119.608C156.539 120.744 155.003 121.312 153.099 121.312C151.051 121.312 149.459 120.664 148.323 119.368C147.203 118.072 146.643 116.184 146.643 113.704C146.643 108.392 148.267 105.48 151.515 104.968L154.683 104.464C155.163 104.384 155.483 104.288 155.643 104.176C155.803 104.048 155.899 103.84 155.931 103.552H158.643C158.643 104.432 158.475 105.168 158.139 105.76C157.803 106.352 157.139 106.736 156.147 106.912L152.091 107.56C151.227 107.688 150.571 108 150.123 108.496C149.675 108.992 149.363 109.744 149.187 110.752H149.811C150.595 109.632 151.859 109.072 153.603 109.072ZM150.795 117.544C151.323 118.2 152.083 118.528 153.075 118.528C154.067 118.528 154.819 118.2 155.331 117.544C155.843 116.888 156.099 116.072 156.099 115.096C156.099 114.12 155.843 113.312 155.331 112.672C154.819 112.032 154.067 111.712 153.075 111.712C152.067 111.712 151.307 112.032 150.795 112.672C150.283 113.312 150.027 114.12 150.027 115.096C150.027 116.072 150.283 116.888 150.795 117.544ZM162.339 108.664H165.699V112.264H168.483C170.067 112.264 171.283 112.648 172.131 113.416C172.995 114.168 173.427 115.224 173.427 116.584C173.427 117.96 172.995 119.04 172.131 119.824C171.283 120.608 170.067 121 168.483 121H162.339V108.664ZM165.699 114.904V118.216H168.003C168.771 118.216 169.307 118.08 169.611 117.808C169.915 117.52 170.067 117.104 170.067 116.56C170.067 116 169.915 115.584 169.611 115.312C169.307 115.04 168.771 114.904 168.003 114.904H165.699ZM175.275 108.664H178.635V121H175.275V108.664ZM190.038 116.848H193.35C193.19 118.192 192.59 119.272 191.55 120.088C190.526 120.904 189.246 121.312 187.71 121.312C185.806 121.312 184.294 120.728 183.174 119.56C182.054 118.376 181.494 116.8 181.494 114.832C181.494 112.88 182.054 111.312 183.174 110.128C184.294 108.944 185.806 108.352 187.71 108.352C189.246 108.352 190.51 108.744 191.502 109.528C192.51 110.296 193.094 111.32 193.254 112.6H189.918C189.646 111.64 188.918 111.16 187.734 111.16C186.742 111.16 186.014 111.496 185.55 112.168C185.086 112.84 184.854 113.72 184.854 114.808C184.854 115.896 185.086 116.792 185.55 117.496C186.03 118.184 186.758 118.528 187.734 118.528C189.062 118.528 189.83 117.968 190.038 116.848ZM195.126 111.472V108.664H206.574V111.472H202.542V121H199.182V111.472H195.126ZM215.313 111.16C214.321 111.16 213.569 111.512 213.057 112.216C212.561 112.904 212.313 113.776 212.313 114.832C212.313 115.888 212.561 116.768 213.057 117.472C213.569 118.176 214.321 118.528 215.313 118.528C216.273 118.528 217.001 118.184 217.497 117.496C218.009 116.808 218.265 115.92 218.265 114.832C218.265 113.76 218.009 112.88 217.497 112.192C217.001 111.504 216.273 111.16 215.313 111.16ZM209.073 108.664H212.313V109.792H212.937C213.705 108.832 214.857 108.352 216.393 108.352C217.993 108.352 219.265 108.96 220.209 110.176C221.153 111.376 221.625 112.928 221.625 114.832C221.625 116.752 221.153 118.312 220.209 119.512C219.265 120.712 217.993 121.312 216.393 121.312C214.889 121.312 213.777 120.832 213.057 119.872H212.433V125.8H209.073V108.664ZM230.159 108.352C232.111 108.352 233.663 108.944 234.815 110.128C235.967 111.312 236.543 112.88 236.543 114.832C236.543 116.784 235.967 118.352 234.815 119.536C233.663 120.72 232.111 121.312 230.159 121.312C228.223 121.312 226.671 120.72 225.503 119.536C224.351 118.336 223.775 116.768 223.775 114.832C223.775 112.896 224.351 111.336 225.503 110.152C226.671 108.952 228.223 108.352 230.159 108.352ZM230.159 118.528C231.167 118.528 231.919 118.184 232.415 117.496C232.927 116.792 233.183 115.904 233.183 114.832C233.183 113.776 232.927 112.904 232.415 112.216C231.919 111.512 231.167 111.16 230.159 111.16C229.167 111.16 228.415 111.512 227.903 112.216C227.391 112.904 227.135 113.776 227.135 114.832C227.135 115.904 227.391 116.792 227.903 117.496C228.415 118.184 229.167 118.528 230.159 118.528ZM249.345 121H246.081V108.664H249.345V115.624H249.921L254.697 108.664H258.009V121H254.745V114.064H254.169L249.345 121ZM274.493 109.072C276.253 109.072 277.669 109.648 278.741 110.8C279.829 111.936 280.373 113.4 280.373 115.192C280.373 116.984 279.781 118.456 278.597 119.608C277.429 120.744 275.893 121.312 273.989 121.312C271.941 121.312 270.349 120.664 269.213 119.368C268.093 118.072 267.533 116.184 267.533 113.704C267.533 108.392 269.157 105.48 272.405 104.968L275.573 104.464C276.053 104.384 276.373 104.288 276.533 104.176C276.693 104.048 276.789 103.84 276.821 103.552H279.533C279.533 104.432 279.365 105.168 279.029 105.76C278.693 106.352 278.029 106.736 277.037 106.912L272.981 107.56C272.117 107.688 271.461 108 271.013 108.496C270.565 108.992 270.253 109.744 270.077 110.752H270.701C271.485 109.632 272.749 109.072 274.493 109.072ZM271.685 117.544C272.213 118.2 272.973 118.528 273.965 118.528C274.957 118.528 275.709 118.2 276.221 117.544C276.733 116.888 276.989 116.072 276.989 115.096C276.989 114.12 276.733 113.312 276.221 112.672C275.709 112.032 274.957 111.712 273.965 111.712C272.957 111.712 272.197 112.032 271.685 112.672C271.173 113.312 270.917 114.12 270.917 115.096C270.917 116.072 271.173 116.888 271.685 117.544ZM294.701 114.208V115.216H285.869C285.965 117.424 286.965 118.528 288.869 118.528C290.085 118.528 290.853 118.096 291.173 117.232H294.581C294.325 118.512 293.709 119.512 292.733 120.232C291.757 120.952 290.453 121.312 288.821 121.312C286.885 121.312 285.349 120.72 284.213 119.536C283.093 118.352 282.533 116.768 282.533 114.784C282.533 112.816 283.093 111.256 284.213 110.104C285.333 108.936 286.845 108.352 288.749 108.352C290.573 108.352 292.013 108.896 293.069 109.984C294.125 111.072 294.669 112.48 294.701 114.208ZM291.269 112.984C291.045 111.576 290.197 110.872 288.725 110.872C287.253 110.872 286.341 111.576 285.989 112.984H291.269ZM304.581 112.288C304.581 111.488 303.877 111.088 302.469 111.088C301.125 111.088 300.357 111.536 300.165 112.432H297.093C297.221 111.088 297.789 110.072 298.797 109.384C299.805 108.696 301.109 108.352 302.709 108.352C304.309 108.352 305.573 108.688 306.501 109.36C307.445 110.016 307.917 110.864 307.917 111.904C307.917 113.104 307.501 113.888 306.669 114.256V114.88C307.741 115.232 308.277 116.08 308.277 117.424C308.277 118.56 307.765 119.496 306.741 120.232C305.717 120.952 304.373 121.312 302.709 121.312C300.821 121.312 299.373 120.952 298.365 120.232C297.373 119.496 296.805 118.464 296.661 117.136H299.757C300.029 118.096 300.957 118.576 302.541 118.576C304.125 118.576 304.917 118.136 304.917 117.256C304.917 116.824 304.757 116.512 304.437 116.32C304.133 116.128 303.629 116.032 302.925 116.032H300.909V113.464H302.805C303.989 113.464 304.581 113.072 304.581 112.288ZM326.461 121L323.965 116.08H321.277V121H317.917V108.664H321.277V113.272H324.013L326.365 108.664H329.797L326.773 114.616L329.989 121H326.461ZM340.173 121V119.944H339.549C338.765 120.856 337.613 121.312 336.093 121.312C334.749 121.312 333.685 120.92 332.901 120.136C332.117 119.336 331.725 118.36 331.725 117.208C331.725 116.104 332.141 115.144 332.973 114.328C333.805 113.512 335.061 113.104 336.741 113.104H340.029V112.792C340.029 111.512 339.301 110.872 337.845 110.872C336.549 110.872 335.853 111.312 335.757 112.192H332.421C332.453 111.024 332.957 110.096 333.933 109.408C334.909 108.704 336.157 108.352 337.677 108.352C339.437 108.352 340.805 108.728 341.781 109.48C342.773 110.232 343.269 111.4 343.269 112.984V121H340.173ZM337.269 118.648C338.085 118.648 338.749 118.408 339.261 117.928C339.773 117.448 340.029 116.824 340.029 116.056V115.288H337.389C335.853 115.288 335.085 115.84 335.085 116.944C335.085 118.08 335.813 118.648 337.269 118.648ZM355.195 121L352.699 116.08H350.011V121H346.651V108.664H350.011V113.272H352.747L355.099 108.664H358.531L355.507 114.616L358.723 121H355.195ZM364.587 121H361.323V108.664H364.587V115.624H365.163L369.939 108.664H373.251V121H369.987V114.064H369.411L364.587 121ZM385.096 121L382.696 116.464H381.808L379.36 121H375.808L379.336 114.664L376.168 108.664H379.648L381.856 112.912H382.744L385 108.664H388.432L385.216 114.616L388.72 121H385.096ZM390.22 116.032V113.104H396.508V116.032H390.22ZM397.762 121V117.784H398.194C398.994 117.784 399.57 117.504 399.922 116.944C400.274 116.368 400.45 115.336 400.45 113.848V108.664H410.986V121H407.626V111.472H403.546V113.968C403.546 116.544 403.122 118.36 402.274 119.416C401.426 120.472 400.066 121 398.194 121H397.762ZM417.813 121H414.549V108.664H417.813V115.624H418.389L423.165 108.664H426.477V121H423.213V114.064H422.637L417.813 121ZM436.282 109.072C438.042 109.072 439.458 109.648 440.53 110.8C441.618 111.936 442.162 113.4 442.162 115.192C442.162 116.984 441.57 118.456 440.386 119.608C439.218 120.744 437.682 121.312 435.778 121.312C433.73 121.312 432.138 120.664 431.002 119.368C429.882 118.072 429.322 116.184 429.322 113.704C429.322 108.392 430.946 105.48 434.194 104.968L437.362 104.464C437.842 104.384 438.162 104.288 438.322 104.176C438.482 104.048 438.578 103.84 438.61 103.552H441.322C441.322 104.432 441.154 105.168 440.818 105.76C440.482 106.352 439.818 106.736 438.826 106.912L434.77 107.56C433.906 107.688 433.25 108 432.802 108.496C432.354 108.992 432.042 109.744 431.866 110.752H432.49C433.274 109.632 434.538 109.072 436.282 109.072ZM433.474 117.544C434.002 118.2 434.762 118.528 435.754 118.528C436.746 118.528 437.498 118.2 438.01 117.544C438.522 116.888 438.778 116.072 438.778 115.096C438.778 114.12 438.522 113.312 438.01 112.672C437.498 112.032 436.746 111.712 435.754 111.712C434.746 111.712 433.986 112.032 433.474 112.672C432.962 113.312 432.706 114.12 432.706 115.096C432.706 116.072 432.962 116.888 433.474 117.544ZM450.706 108.352C452.658 108.352 454.21 108.944 455.362 110.128C456.514 111.312 457.09 112.88 457.09 114.832C457.09 116.784 456.514 118.352 455.362 119.536C454.21 120.72 452.658 121.312 450.706 121.312C448.77 121.312 447.218 120.72 446.05 119.536C444.898 118.336 444.322 116.768 444.322 114.832C444.322 112.896 444.898 111.336 446.05 110.152C447.218 108.952 448.77 108.352 450.706 108.352ZM450.706 118.528C451.714 118.528 452.466 118.184 452.962 117.496C453.474 116.792 453.73 115.904 453.73 114.832C453.73 113.776 453.474 112.904 452.962 112.216C452.466 111.512 451.714 111.16 450.706 111.16C449.714 111.16 448.962 111.512 448.45 112.216C447.938 112.904 447.682 113.776 447.682 114.832C447.682 115.904 447.938 116.792 448.45 117.496C448.962 118.184 449.714 118.528 450.706 118.528ZM478.388 121H475.028V111.472H469.988V121H466.628V108.664H478.388V121ZM488.172 111.16C487.18 111.16 486.428 111.512 485.916 112.216C485.42 112.904 485.172 113.776 485.172 114.832C485.172 115.888 485.42 116.768 485.916 117.472C486.428 118.176 487.18 118.528 488.172 118.528C489.132 118.528 489.86 118.184 490.356 117.496C490.868 116.808 491.124 115.92 491.124 114.832C491.124 113.76 490.868 112.88 490.356 112.192C489.86 111.504 489.132 111.16 488.172 111.16ZM481.932 108.664H485.172V109.792H485.796C486.564 108.832 487.716 108.352 489.252 108.352C490.852 108.352 492.124 108.96 493.068 110.176C494.012 111.376 494.484 112.928 494.484 114.832C494.484 116.752 494.012 118.312 493.068 119.512C492.124 120.712 490.852 121.312 489.252 121.312C487.748 121.312 486.636 120.832 485.916 119.872H485.292V125.8H481.932V108.664ZM503.019 108.352C504.971 108.352 506.523 108.944 507.675 110.128C508.827 111.312 509.403 112.88 509.403 114.832C509.403 116.784 508.827 118.352 507.675 119.536C506.523 120.72 504.971 121.312 503.019 121.312C501.083 121.312 499.531 120.72 498.363 119.536C497.211 118.336 496.635 116.768 496.635 114.832C496.635 112.896 497.211 111.336 498.363 110.152C499.531 108.952 501.083 108.352 503.019 108.352ZM503.019 118.528C504.027 118.528 504.779 118.184 505.275 117.496C505.787 116.792 506.043 115.904 506.043 114.832C506.043 113.776 505.787 112.904 505.275 112.216C504.779 111.512 504.027 111.16 503.019 111.16C502.027 111.16 501.275 111.512 500.763 112.216C500.251 112.904 499.995 113.776 499.995 114.832C499.995 115.904 500.251 116.792 500.763 117.496C501.275 118.184 502.027 118.528 503.019 118.528ZM518.524 109.072C520.284 109.072 521.7 109.648 522.772 110.8C523.86 111.936 524.404 113.4 524.404 115.192C524.404 116.984 523.812 118.456 522.628 119.608C521.46 120.744 519.924 121.312 518.02 121.312C515.972 121.312 514.38 120.664 513.244 119.368C512.124 118.072 511.564 116.184 511.564 113.704C511.564 108.392 513.188 105.48 516.436 104.968L519.604 104.464C520.084 104.384 520.404 104.288 520.564 104.176C520.724 104.048 520.82 103.84 520.852 103.552H523.564C523.564 104.432 523.396 105.168 523.06 105.76C522.724 106.352 522.06 106.736 521.068 106.912L517.012 107.56C516.148 107.688 515.492 108 515.044 108.496C514.596 108.992 514.284 109.744 514.108 110.752H514.732C515.516 109.632 516.78 109.072 518.524 109.072ZM515.716 117.544C516.244 118.2 517.004 118.528 517.996 118.528C518.988 118.528 519.74 118.2 520.252 117.544C520.764 116.888 521.02 116.072 521.02 115.096C521.02 114.12 520.764 113.312 520.252 112.672C519.74 112.032 518.988 111.712 517.996 111.712C516.988 111.712 516.228 112.032 515.716 112.672C515.204 113.312 514.948 114.12 514.948 115.096C514.948 116.072 515.204 116.888 515.716 117.544ZM525.778 121V117.784H526.21C527.01 117.784 527.586 117.504 527.938 116.944C528.29 116.368 528.466 115.336 528.466 113.848V108.664H539.002V121H535.642V111.472H531.562V113.968C531.562 116.544 531.138 118.36 530.29 119.416C529.442 120.472 528.082 121 526.21 121H525.778ZM554.037 114.208V115.216H545.205C545.301 117.424 546.301 118.528 548.205 118.528C549.421 118.528 550.189 118.096 550.509 117.232H553.917C553.661 118.512 553.045 119.512 552.069 120.232C551.093 120.952 549.789 121.312 548.157 121.312C546.221 121.312 544.685 120.72 543.549 119.536C542.429 118.352 541.869 116.768 541.869 114.784C541.869 112.816 542.429 111.256 543.549 110.104C544.669 108.936 546.181 108.352 548.085 108.352C549.909 108.352 551.349 108.896 552.405 109.984C553.461 111.072 554.005 112.48 554.037 114.208ZM550.605 112.984C550.381 111.576 549.533 110.872 548.061 110.872C546.589 110.872 545.677 111.576 545.325 112.984H550.605ZM556.885 121V108.664H561.349L563.845 113.848H564.469L566.965 108.664H571.405V121H568.141V113.128H567.517L565.549 117.112H562.741L560.773 113.128H560.149V121H556.885ZM578.532 121H574.836V117.352H578.532V121ZM57.352 139.056H48.568V153H44.992V135.864H57.352V139.056ZM64.8522 153V151.944H64.2282C63.4442 152.856 62.2922 153.312 60.7722 153.312C59.4282 153.312 58.3642 152.92 57.5802 152.136C56.7962 151.336 56.4042 150.36 56.4042 149.208C56.4042 148.104 56.8202 147.144 57.6522 146.328C58.4842 145.512 59.7402 145.104 61.4202 145.104H64.7082V144.792C64.7082 143.512 63.9802 142.872 62.5242 142.872C61.2282 142.872 60.5322 143.312 60.4362 144.192H57.1002C57.1322 143.024 57.6362 142.096 58.6122 141.408C59.5882 140.704 60.8362 140.352 62.3562 140.352C64.1162 140.352 65.4842 140.728 66.4602 141.48C67.4522 142.232 67.9482 143.4 67.9482 144.984V153H64.8522ZM61.9482 150.648C62.7642 150.648 63.4282 150.408 63.9402 149.928C64.4522 149.448 64.7082 148.824 64.7082 148.056V147.288H62.0682C60.5322 147.288 59.7642 147.84 59.7642 148.944C59.7642 150.08 60.4922 150.648 61.9482 150.648ZM77.5707 143.16C76.5787 143.16 75.8267 143.512 75.3147 144.216C74.8187 144.904 74.5707 145.776 74.5707 146.832C74.5707 147.888 74.8187 148.768 75.3147 149.472C75.8267 150.176 76.5787 150.528 77.5707 150.528C78.5307 150.528 79.2587 150.184 79.7547 149.496C80.2667 148.808 80.5227 147.92 80.5227 146.832C80.5227 145.76 80.2667 144.88 79.7547 144.192C79.2587 143.504 78.5307 143.16 77.5707 143.16ZM71.3307 140.664H74.5707V141.792H75.1947C75.9627 140.832 77.1147 140.352 78.6507 140.352C80.2507 140.352 81.5227 140.96 82.4667 142.176C83.4107 143.376 83.8827 144.928 83.8827 146.832C83.8827 148.752 83.4107 150.312 82.4667 151.512C81.5227 152.712 80.2507 153.312 78.6507 153.312C77.1467 153.312 76.0347 152.832 75.3147 151.872H74.6907V157.8H71.3307V140.664ZM94.3131 153V151.944H93.6891C92.9051 152.856 91.7531 153.312 90.2331 153.312C88.8891 153.312 87.8251 152.92 87.0411 152.136C86.2571 151.336 85.8651 150.36 85.8651 149.208C85.8651 148.104 86.2811 147.144 87.1131 146.328C87.9451 145.512 89.2011 145.104 90.8811 145.104H94.1691V144.792C94.1691 143.512 93.4411 142.872 91.9851 142.872C90.6891 142.872 89.9931 143.312 89.8971 144.192H86.5611C86.5931 143.024 87.0971 142.096 88.0731 141.408C89.0491 140.704 90.2971 140.352 91.8171 140.352C93.5771 140.352 94.9451 140.728 95.9211 141.48C96.9131 142.232 97.4091 143.4 97.4091 144.984V153H94.3131ZM91.4091 150.648C92.2251 150.648 92.8891 150.408 93.4011 149.928C93.9131 149.448 94.1691 148.824 94.1691 148.056V147.288H91.5291C89.9931 147.288 89.2251 147.84 89.2251 148.944C89.2251 150.08 89.9531 150.648 91.4091 150.648ZM112.648 153H109.288V148.08H104.152V153H100.792V140.664H104.152V145.272H109.288V140.664H112.648V153ZM115.134 143.472V140.664H126.582V143.472H122.55V153H119.19V143.472H115.134ZM132.345 153H129.081V140.664H132.345V147.624H132.921L137.697 140.664H141.009V153H137.745V146.064H137.169L132.345 153ZM147.813 153H144.549V140.664H147.813V147.624H148.389L153.165 140.664H156.477V153H153.213V146.064H152.637L147.813 153ZM175.242 153L172.746 148.08H170.058V153H166.698V140.664H170.058V145.272H172.794L175.146 140.664H178.578L175.554 146.616L178.77 153H175.242ZM188.954 153V151.944H188.33C187.546 152.856 186.394 153.312 184.874 153.312C183.53 153.312 182.466 152.92 181.682 152.136C180.898 151.336 180.506 150.36 180.506 149.208C180.506 148.104 180.922 147.144 181.754 146.328C182.586 145.512 183.842 145.104 185.522 145.104H188.81V144.792C188.81 143.512 188.082 142.872 186.626 142.872C185.33 142.872 184.634 143.312 184.538 144.192H181.202C181.234 143.024 181.738 142.096 182.714 141.408C183.69 140.704 184.938 140.352 186.458 140.352C188.218 140.352 189.586 140.728 190.562 141.48C191.554 142.232 192.05 143.4 192.05 144.984V153H188.954ZM186.05 150.648C186.866 150.648 187.53 150.408 188.042 149.928C188.554 149.448 188.81 148.824 188.81 148.056V147.288H186.17C184.634 147.288 183.866 147.84 183.866 148.944C183.866 150.08 184.594 150.648 186.05 150.648ZM194.736 140.664H198.12V144.264C198.12 144.536 198.136 144.768 198.168 144.96C198.216 145.136 198.312 145.328 198.456 145.536C198.6 145.728 198.84 145.88 199.176 145.992C199.512 146.088 199.936 146.136 200.448 146.136C201.264 146.136 202.04 146.048 202.776 145.872V140.664H206.136V153H202.776V148.584C201.704 148.808 200.56 148.92 199.344 148.92C198.352 148.92 197.528 148.816 196.872 148.608C196.232 148.384 195.76 148.064 195.456 147.648C195.168 147.232 194.976 146.816 194.88 146.4C194.784 145.984 194.736 145.488 194.736 144.912V140.664ZM220.99 146.208V147.216H212.158C212.254 149.424 213.254 150.528 215.158 150.528C216.374 150.528 217.142 150.096 217.462 149.232H220.87C220.614 150.512 219.998 151.512 219.022 152.232C218.046 152.952 216.742 153.312 215.11 153.312C213.174 153.312 211.638 152.72 210.502 151.536C209.382 150.352 208.822 148.768 208.822 146.784C208.822 144.816 209.382 143.256 210.502 142.104C211.622 140.936 213.134 140.352 215.038 140.352C216.862 140.352 218.302 140.896 219.358 141.984C220.414 143.072 220.958 144.48 220.99 146.208ZM217.558 144.984C217.334 143.576 216.486 142.872 215.014 142.872C213.542 142.872 212.63 143.576 212.278 144.984H217.558ZM231.687 148.848H234.999C234.839 150.192 234.239 151.272 233.199 152.088C232.175 152.904 230.895 153.312 229.359 153.312C227.455 153.312 225.943 152.728 224.823 151.56C223.703 150.376 223.143 148.8 223.143 146.832C223.143 144.88 223.703 143.312 224.823 142.128C225.943 140.944 227.455 140.352 229.359 140.352C230.895 140.352 232.159 140.744 233.151 141.528C234.159 142.296 234.743 143.32 234.903 144.6H231.567C231.295 143.64 230.567 143.16 229.383 143.16C228.391 143.16 227.663 143.496 227.199 144.168C226.735 144.84 226.503 145.72 226.503 146.808C226.503 147.896 226.735 148.792 227.199 149.496C227.679 150.184 228.407 150.528 229.383 150.528C230.711 150.528 231.479 149.968 231.687 148.848ZM236.775 143.472V140.664H248.223V143.472H244.191V153H240.831V143.472H236.775ZM260.249 146.16V146.784C260.873 146.944 261.377 147.264 261.761 147.744C262.145 148.224 262.337 148.84 262.337 149.592C262.337 151.864 260.881 153 257.969 153H250.721V140.664H257.777C259.009 140.664 259.961 140.944 260.633 141.504C261.321 142.048 261.665 142.808 261.665 143.784C261.665 144.904 261.193 145.696 260.249 146.16ZM254.009 150.576H257.201C258.369 150.576 258.953 150.12 258.953 149.208C258.953 148.28 258.369 147.816 257.201 147.816H254.009V150.576ZM254.009 143.088V145.464H256.865C257.825 145.464 258.305 145.072 258.305 144.288C258.305 143.488 257.825 143.088 256.865 143.088H254.009ZM272.837 153V151.944H272.213C271.429 152.856 270.277 153.312 268.757 153.312C267.413 153.312 266.349 152.92 265.565 152.136C264.781 151.336 264.389 150.36 264.389 149.208C264.389 148.104 264.805 147.144 265.637 146.328C266.469 145.512 267.725 145.104 269.405 145.104H272.693V144.792C272.693 143.512 271.965 142.872 270.509 142.872C269.213 142.872 268.517 143.312 268.421 144.192H265.085C265.117 143.024 265.621 142.096 266.597 141.408C267.573 140.704 268.821 140.352 270.341 140.352C272.101 140.352 273.469 140.728 274.445 141.48C275.437 142.232 275.933 143.4 275.933 144.984V153H272.837ZM269.933 150.648C270.749 150.648 271.413 150.408 271.925 149.928C272.437 149.448 272.693 148.824 272.693 148.056V147.288H270.053C268.517 147.288 267.749 147.84 267.749 148.944C267.749 150.08 268.477 150.648 269.933 150.648ZM289.259 153H285.995V140.664H289.259V147.624H289.835L294.611 140.664H297.923V153H294.659V146.064H294.083L289.259 153ZM319.999 153H316.639V148.08H311.503V153H308.143V140.664H311.503V145.272H316.639V140.664H319.999V153ZM331.126 153V151.944H330.502C329.718 152.856 328.566 153.312 327.046 153.312C325.702 153.312 324.638 152.92 323.854 152.136C323.07 151.336 322.678 150.36 322.678 149.208C322.678 148.104 323.094 147.144 323.926 146.328C324.758 145.512 326.014 145.104 327.694 145.104H330.982V144.792C330.982 143.512 330.254 142.872 328.798 142.872C327.502 142.872 326.806 143.312 326.71 144.192H323.374C323.406 143.024 323.91 142.096 324.886 141.408C325.862 140.704 327.11 140.352 328.63 140.352C330.39 140.352 331.758 140.728 332.734 141.48C333.726 142.232 334.222 143.4 334.222 144.984V153H331.126ZM328.222 150.648C329.038 150.648 329.702 150.408 330.214 149.928C330.726 149.448 330.982 148.824 330.982 148.056V147.288H328.342C326.806 147.288 326.038 147.84 326.038 148.944C326.038 150.08 326.766 150.648 328.222 150.648ZM349.58 150.216H351.764V156.432H348.596V153H339.452V156.432H336.284V150.216H338.108C338.828 148.376 339.188 146.376 339.188 144.216V140.664H349.58V150.216ZM346.22 150.216V143.472H342.212V144.24C342.212 146.528 341.908 148.52 341.3 150.216H346.22ZM365.717 146.208V147.216H356.885C356.981 149.424 357.981 150.528 359.885 150.528C361.101 150.528 361.869 150.096 362.189 149.232H365.597C365.341 150.512 364.725 151.512 363.749 152.232C362.773 152.952 361.469 153.312 359.837 153.312C357.901 153.312 356.365 152.72 355.229 151.536C354.109 150.352 353.549 148.768 353.549 146.784C353.549 144.816 354.109 143.256 355.229 142.104C356.349 140.936 357.861 140.352 359.765 140.352C361.589 140.352 363.029 140.896 364.085 141.984C365.141 143.072 365.685 144.48 365.717 146.208ZM362.285 144.984C362.061 143.576 361.213 142.872 359.741 142.872C358.269 142.872 357.357 143.576 357.005 144.984H362.285ZM363.557 138.816H360.749V135.816H363.557V138.816ZM358.853 138.816H356.021V135.816H358.853V138.816ZM373.269 148.104L371.037 153H367.629L370.533 146.664L367.821 140.664H371.181L373.269 145.296H375.645V140.664H378.765V145.296H381.117L383.205 140.664H386.589L383.853 146.664L386.781 153H383.349L381.117 148.104H378.765V153H375.645V148.104H373.269ZM401.234 153H397.874V148.08H392.738V153H389.378V140.664H392.738V145.272H397.874V140.664H401.234V153ZM412.36 153V151.944H411.736C410.952 152.856 409.8 153.312 408.28 153.312C406.936 153.312 405.872 152.92 405.088 152.136C404.304 151.336 403.912 150.36 403.912 149.208C403.912 148.104 404.328 147.144 405.16 146.328C405.992 145.512 407.248 145.104 408.928 145.104H412.216V144.792C412.216 143.512 411.488 142.872 410.032 142.872C408.736 142.872 408.04 143.312 407.944 144.192H404.608C404.64 143.024 405.144 142.096 406.12 141.408C407.096 140.704 408.344 140.352 409.864 140.352C411.624 140.352 412.992 140.728 413.968 141.48C414.96 142.232 415.456 143.4 415.456 144.984V153H412.36ZM409.456 150.648C410.272 150.648 410.936 150.408 411.448 149.928C411.96 149.448 412.216 148.824 412.216 148.056V147.288H409.576C408.04 147.288 407.272 147.84 407.272 148.944C407.272 150.08 408 150.648 409.456 150.648ZM423.375 140.664H429.639V153H426.279V148.872H423.207L421.623 153H418.311L420.183 148.152C418.967 147.464 418.359 146.344 418.359 144.792C418.359 143.496 418.791 142.488 419.655 141.768C420.535 141.032 421.775 140.664 423.375 140.664ZM426.279 146.4V143.352H423.639C422.919 143.352 422.407 143.48 422.103 143.736C421.815 143.992 421.671 144.368 421.671 144.864C421.671 145.376 421.815 145.76 422.103 146.016C422.407 146.272 422.919 146.4 423.639 146.4H426.279ZM444.471 157.8H441.111L443.727 151.728L438.495 140.664H441.999L445.071 147.24H445.695L448.527 140.664H451.911L444.471 157.8ZM465.849 153H462.489V143.472H457.449V153H454.089V140.664H465.849V153ZM476.977 153V151.944H476.353C475.569 152.856 474.417 153.312 472.897 153.312C471.553 153.312 470.489 152.92 469.705 152.136C468.921 151.336 468.529 150.36 468.529 149.208C468.529 148.104 468.945 147.144 469.777 146.328C470.609 145.512 471.865 145.104 473.545 145.104H476.833V144.792C476.833 143.512 476.105 142.872 474.649 142.872C473.353 142.872 472.657 143.312 472.561 144.192H469.225C469.257 143.024 469.761 142.096 470.737 141.408C471.713 140.704 472.961 140.352 474.481 140.352C476.241 140.352 477.609 140.728 478.585 141.48C479.577 142.232 480.073 143.4 480.073 144.984V153H476.977ZM474.073 150.648C474.889 150.648 475.553 150.408 476.065 149.928C476.577 149.448 476.833 148.824 476.833 148.056V147.288H474.193C472.657 147.288 471.889 147.84 471.889 148.944C471.889 150.08 472.617 150.648 474.073 150.648ZM492 153L489.504 148.08H486.816V153H483.456V140.664H486.816V145.272H489.552L491.904 140.664H495.336L492.312 146.616L495.528 153H492ZM503.464 140.352C505.416 140.352 506.968 140.944 508.12 142.128C509.272 143.312 509.848 144.88 509.848 146.832C509.848 148.784 509.272 150.352 508.12 151.536C506.968 152.72 505.416 153.312 503.464 153.312C501.528 153.312 499.976 152.72 498.808 151.536C497.656 150.336 497.08 148.768 497.08 146.832C497.08 144.896 497.656 143.336 498.808 142.152C499.976 140.952 501.528 140.352 503.464 140.352ZM503.464 150.528C504.472 150.528 505.224 150.184 505.72 149.496C506.232 148.792 506.488 147.904 506.488 146.832C506.488 145.776 506.232 144.904 505.72 144.216C505.224 143.512 504.472 143.16 503.464 143.16C502.472 143.16 501.72 143.512 501.208 144.216C500.696 144.904 500.44 145.776 500.44 146.832C500.44 147.904 500.696 148.792 501.208 149.496C501.72 150.184 502.472 150.528 503.464 150.528ZM522.234 146.16V146.784C522.858 146.944 523.362 147.264 523.746 147.744C524.13 148.224 524.322 148.84 524.322 149.592C524.322 151.864 522.866 153 519.954 153H512.706V140.664H519.762C520.994 140.664 521.946 140.944 522.618 141.504C523.306 142.048 523.65 142.808 523.65 143.784C523.65 144.904 523.178 145.696 522.234 146.16ZM515.994 150.576H519.186C520.354 150.576 520.938 150.12 520.938 149.208C520.938 148.28 520.354 147.816 519.186 147.816H515.994V150.576ZM515.994 143.088V145.464H518.85C519.81 145.464 520.29 145.072 520.29 144.288C520.29 143.488 519.81 143.088 518.85 143.088H515.994ZM535.781 153L533.285 148.08H530.597V153H527.237V140.664H530.597V145.272H533.333L535.685 140.664H539.117L536.093 146.616L539.309 153H535.781ZM549.493 153V151.944H548.869C548.085 152.856 546.933 153.312 545.413 153.312C544.069 153.312 543.005 152.92 542.221 152.136C541.437 151.336 541.045 150.36 541.045 149.208C541.045 148.104 541.461 147.144 542.293 146.328C543.125 145.512 544.381 145.104 546.061 145.104H549.349V144.792C549.349 143.512 548.621 142.872 547.165 142.872C545.869 142.872 545.173 143.312 545.077 144.192H541.741C541.773 143.024 542.277 142.096 543.253 141.408C544.229 140.704 545.477 140.352 546.997 140.352C548.757 140.352 550.125 140.728 551.101 141.48C552.093 142.232 552.589 143.4 552.589 144.984V153H549.493ZM546.589 150.648C547.405 150.648 548.069 150.408 548.581 149.928C549.093 149.448 549.349 148.824 549.349 148.056V147.288H546.709C545.173 147.288 544.405 147.84 544.405 148.944C544.405 150.08 545.133 150.648 546.589 150.648ZM52.624 180.848H55.936C55.776 182.192 55.176 183.272 54.136 184.088C53.112 184.904 51.832 185.312 50.296 185.312C48.392 185.312 46.88 184.728 45.76 183.56C44.64 182.376 44.08 180.8 44.08 178.832C44.08 176.88 44.64 175.312 45.76 174.128C46.88 172.944 48.392 172.352 50.296 172.352C51.832 172.352 53.096 172.744 54.088 173.528C55.096 174.296 55.68 175.32 55.84 176.6H52.504C52.232 175.64 51.504 175.16 50.32 175.16C49.328 175.16 48.6 175.496 48.136 176.168C47.672 176.84 47.44 177.72 47.44 178.808C47.44 179.896 47.672 180.792 48.136 181.496C48.616 182.184 49.344 182.528 50.32 182.528C51.648 182.528 52.416 181.968 52.624 180.848ZM70.7442 182.216H72.9282V188.432H69.7602V185H60.6162V188.432H57.4482V182.216H59.2722C59.9922 180.376 60.3522 178.376 60.3522 176.216V172.664H70.7442V182.216ZM67.3842 182.216V175.472H63.3762V176.24C63.3762 178.528 63.0722 180.52 62.4642 182.216H67.3842ZM86.8808 178.208V179.216H78.0488C78.1448 181.424 79.1448 182.528 81.0488 182.528C82.2648 182.528 83.0328 182.096 83.3528 181.232H86.7608C86.5048 182.512 85.8888 183.512 84.9128 184.232C83.9368 184.952 82.6328 185.312 81.0008 185.312C79.0648 185.312 77.5288 184.72 76.3928 183.536C75.2728 182.352 74.7128 180.768 74.7128 178.784C74.7128 176.816 75.2728 175.256 76.3928 174.104C77.5128 172.936 79.0248 172.352 80.9288 172.352C82.7528 172.352 84.1928 172.896 85.2488 173.984C86.3048 175.072 86.8488 176.48 86.8808 178.208ZM83.4488 176.984C83.2248 175.576 82.3768 174.872 80.9048 174.872C79.4328 174.872 78.5208 175.576 78.1688 176.984H83.4488ZM88.4811 185V181.784H88.9131C89.7131 181.784 90.2891 181.504 90.6411 180.944C90.9931 180.368 91.1691 179.336 91.1691 177.848V172.664H101.705V185H98.3451V175.472H94.2651V177.968C94.2651 180.544 93.8411 182.36 92.9931 183.416C92.1451 184.472 90.7851 185 88.9131 185H88.4811ZM112.852 185V183.944H112.228C111.444 184.856 110.292 185.312 108.772 185.312C107.428 185.312 106.364 184.92 105.58 184.136C104.796 183.336 104.404 182.36 104.404 181.208C104.404 180.104 104.82 179.144 105.652 178.328C106.484 177.512 107.74 177.104 109.42 177.104H112.708V176.792C112.708 175.512 111.98 174.872 110.524 174.872C109.228 174.872 108.532 175.312 108.436 176.192H105.1C105.132 175.024 105.636 174.096 106.612 173.408C107.588 172.704 108.836 172.352 110.356 172.352C112.116 172.352 113.484 172.728 114.46 173.48C115.452 174.232 115.948 175.4 115.948 176.984V185H112.852ZM109.948 182.648C110.764 182.648 111.428 182.408 111.94 181.928C112.452 181.448 112.708 180.824 112.708 180.056V179.288H110.068C108.532 179.288 107.764 179.84 107.764 180.944C107.764 182.08 108.492 182.648 109.948 182.648ZM118.083 185V181.784H118.515C119.315 181.784 119.891 181.504 120.243 180.944C120.595 180.368 120.771 179.336 120.771 177.848V172.664H131.307V185H127.947V175.472H123.867V177.968C123.867 180.544 123.443 182.36 122.595 183.416C121.747 184.472 120.387 185 118.515 185H118.083ZM138.134 185H134.87V172.664H138.134V179.624H138.71L143.486 172.664H146.798V185H143.534V178.064H142.958L138.134 185ZM157.018 185V172.664H161.482L163.978 177.848H164.602L167.098 172.664H171.538V185H168.274V177.128H167.65L165.682 181.112H162.874L160.906 177.128H160.282V185H157.018ZM180.777 172.352C182.729 172.352 184.281 172.944 185.432 174.128C186.585 175.312 187.161 176.88 187.161 178.832C187.161 180.784 186.585 182.352 185.432 183.536C184.281 184.72 182.729 185.312 180.777 185.312C178.841 185.312 177.289 184.72 176.121 183.536C174.969 182.336 174.393 180.768 174.393 178.832C174.393 176.896 174.969 175.336 176.121 174.152C177.289 172.952 178.841 172.352 180.777 172.352ZM180.777 182.528C181.785 182.528 182.537 182.184 183.033 181.496C183.545 180.792 183.801 179.904 183.801 178.832C183.801 177.776 183.545 176.904 183.033 176.216C182.537 175.512 181.785 175.16 180.777 175.16C179.785 175.16 179.033 175.512 178.521 176.216C178.009 176.904 177.753 177.776 177.753 178.832C177.753 179.904 178.009 180.792 178.521 181.496C179.033 182.184 179.785 182.528 180.777 182.528ZM193.282 185H190.018V172.664H193.282V179.624H193.858L198.634 172.664H201.946V185H198.682V178.064H198.106L193.282 185ZM197.746 167.768H200.338C200.242 168.904 199.818 169.792 199.066 170.432C198.33 171.056 197.298 171.368 195.97 171.368C194.642 171.368 193.61 171.056 192.874 170.432C192.138 169.792 191.722 168.904 191.626 167.768H194.218C194.266 168.2 194.434 168.552 194.722 168.824C195.01 169.096 195.426 169.232 195.97 169.232C197.042 169.232 197.634 168.744 197.746 167.768ZM217.855 172.352C219.807 172.352 221.359 172.944 222.511 174.128C223.663 175.312 224.239 176.88 224.239 178.832C224.239 180.784 223.663 182.352 222.511 183.536C221.359 184.72 219.807 185.312 217.855 185.312C215.919 185.312 214.367 184.72 213.199 183.536C212.047 182.336 211.471 180.768 211.471 178.832C211.471 176.896 212.047 175.336 213.199 174.152C214.367 172.952 215.919 172.352 217.855 172.352ZM217.855 182.528C218.863 182.528 219.615 182.184 220.111 181.496C220.623 180.792 220.879 179.904 220.879 178.832C220.879 177.776 220.623 176.904 220.111 176.216C219.615 175.512 218.863 175.16 217.855 175.16C216.863 175.16 216.111 175.512 215.599 176.216C215.087 176.904 214.831 177.776 214.831 178.832C214.831 179.904 215.087 180.792 215.599 181.496C216.111 182.184 216.863 182.528 217.855 182.528ZM238.856 185H235.496V175.472H230.456V185H227.096V172.664H238.856V185ZM242.401 172.664H245.761V176.264H248.545C250.129 176.264 251.345 176.648 252.193 177.416C253.057 178.168 253.489 179.224 253.489 180.584C253.489 181.96 253.057 183.04 252.193 183.824C251.345 184.608 250.129 185 248.545 185H242.401V172.664ZM245.761 178.904V182.216H248.065C248.833 182.216 249.369 182.08 249.673 181.808C249.977 181.52 250.129 181.104 250.129 180.56C250.129 180 249.977 179.584 249.673 179.312C249.369 179.04 248.833 178.904 248.065 178.904H245.761ZM255.337 172.664H258.697V185H255.337V172.664ZM261.197 175.472V172.664H272.645V175.472H268.613V185H265.253V175.472H261.197ZM292.622 185H289.262V175.472H284.222V185H280.862V172.664H292.622V185ZM301.855 172.352C303.807 172.352 305.359 172.944 306.511 174.128C307.663 175.312 308.239 176.88 308.239 178.832C308.239 180.784 307.663 182.352 306.511 183.536C305.359 184.72 303.807 185.312 301.855 185.312C299.919 185.312 298.367 184.72 297.199 183.536C296.047 182.336 295.471 180.768 295.471 178.832C295.471 176.896 296.047 175.336 297.199 174.152C298.367 172.952 299.919 172.352 301.855 172.352ZM301.855 182.528C302.863 182.528 303.615 182.184 304.111 181.496C304.623 180.792 304.879 179.904 304.879 178.832C304.879 177.776 304.623 176.904 304.111 176.216C303.615 175.512 302.863 175.16 301.855 175.16C300.863 175.16 300.111 175.512 299.599 176.216C299.087 176.904 298.831 177.776 298.831 178.832C298.831 179.904 299.087 180.792 299.599 181.496C300.111 182.184 300.863 182.528 301.855 182.528ZM319.64 185L317.144 180.08H314.456V185H311.096V172.664H314.456V177.272H317.192L319.544 172.664H322.976L319.952 178.616L323.168 185H319.64ZM330.4 189.8H327.04L329.656 183.728L324.424 172.664H327.928L331 179.24H331.624L334.456 172.664H337.84L330.4 189.8ZM351.778 185H348.418V175.472H343.378V185H340.018V172.664H351.778V185ZM363.867 185L361.371 180.08H358.683V185H355.323V172.664H358.683V177.272H361.419L363.771 172.664H367.203L364.179 178.616L367.395 185H363.867ZM373.259 185H369.995V172.664H373.259V179.624H373.835L378.611 172.664H381.923V185H378.659V178.064H378.083L373.259 185ZM403.999 185H400.639V180.08H395.503V185H392.143V172.664H395.503V177.272H400.639V172.664H403.999V185ZM419.014 178.208V179.216H410.182C410.278 181.424 411.278 182.528 413.182 182.528C414.398 182.528 415.166 182.096 415.486 181.232H418.894C418.638 182.512 418.022 183.512 417.046 184.232C416.07 184.952 414.766 185.312 413.134 185.312C411.198 185.312 409.662 184.72 408.526 183.536C407.406 182.352 406.846 180.768 406.846 178.784C406.846 176.816 407.406 175.256 408.526 174.104C409.646 172.936 411.158 172.352 413.062 172.352C414.886 172.352 416.326 172.896 417.382 173.984C418.438 175.072 418.982 176.48 419.014 178.208ZM415.582 176.984C415.358 175.576 414.51 174.872 413.038 174.872C411.566 174.872 410.654 175.576 410.302 176.984H415.582ZM431.39 178.16V178.784C432.014 178.944 432.518 179.264 432.902 179.744C433.286 180.224 433.478 180.84 433.478 181.592C433.478 183.864 432.022 185 429.11 185H421.862V172.664H428.918C430.15 172.664 431.102 172.944 431.774 173.504C432.462 174.048 432.806 174.808 432.806 175.784C432.806 176.904 432.334 177.696 431.39 178.16ZM425.15 182.576H428.342C429.51 182.576 430.094 182.12 430.094 181.208C430.094 180.28 429.51 179.816 428.342 179.816H425.15V182.576ZM425.15 175.088V177.464H428.006C428.966 177.464 429.446 177.072 429.446 176.288C429.446 175.488 428.966 175.088 428.006 175.088H425.15ZM447.865 178.208V179.216H439.033C439.129 181.424 440.129 182.528 442.033 182.528C443.249 182.528 444.017 182.096 444.337 181.232H447.745C447.489 182.512 446.873 183.512 445.897 184.232C444.921 184.952 443.617 185.312 441.985 185.312C440.049 185.312 438.513 184.72 437.377 183.536C436.257 182.352 435.697 180.768 435.697 178.784C435.697 176.816 436.257 175.256 437.377 174.104C438.497 172.936 440.009 172.352 441.913 172.352C443.737 172.352 445.177 172.896 446.233 173.984C447.289 175.072 447.833 176.48 447.865 178.208ZM444.433 176.984C444.209 175.576 443.361 174.872 441.889 174.872C440.417 174.872 439.505 175.576 439.153 176.984H444.433ZM456.954 175.16C455.962 175.16 455.21 175.512 454.698 176.216C454.202 176.904 453.954 177.776 453.954 178.832C453.954 179.888 454.202 180.768 454.698 181.472C455.21 182.176 455.962 182.528 456.954 182.528C457.914 182.528 458.642 182.184 459.138 181.496C459.65 180.808 459.906 179.92 459.906 178.832C459.906 177.76 459.65 176.88 459.138 176.192C458.642 175.504 457.914 175.16 456.954 175.16ZM450.714 172.664H453.954V173.792H454.578C455.346 172.832 456.498 172.352 458.034 172.352C459.634 172.352 460.906 172.96 461.85 174.176C462.794 175.376 463.266 176.928 463.266 178.832C463.266 180.752 462.794 182.312 461.85 183.512C460.906 184.712 459.634 185.312 458.034 185.312C456.53 185.312 455.418 184.832 454.698 183.872H454.074V189.8H450.714V172.664ZM471.8 172.352C473.752 172.352 475.304 172.944 476.456 174.128C477.608 175.312 478.184 176.88 478.184 178.832C478.184 180.784 477.608 182.352 476.456 183.536C475.304 184.72 473.752 185.312 471.8 185.312C469.864 185.312 468.312 184.72 467.144 183.536C465.992 182.336 465.416 180.768 465.416 178.832C465.416 176.896 465.992 175.336 467.144 174.152C468.312 172.952 469.864 172.352 471.8 172.352ZM471.8 182.528C472.808 182.528 473.56 182.184 474.056 181.496C474.568 180.792 474.824 179.904 474.824 178.832C474.824 177.776 474.568 176.904 474.056 176.216C473.56 175.512 472.808 175.16 471.8 175.16C470.808 175.16 470.056 175.512 469.544 176.216C469.032 176.904 468.776 177.776 468.776 178.832C468.776 179.904 469.032 180.792 469.544 181.496C470.056 182.184 470.808 182.528 471.8 182.528ZM485.578 172.664H491.842V185H488.482V180.872H485.41L483.826 185H480.514L482.386 180.152C481.17 179.464 480.562 178.344 480.562 176.792C480.562 175.496 480.994 174.488 481.858 173.768C482.738 173.032 483.978 172.664 485.578 172.664ZM488.482 178.4V175.352H485.842C485.122 175.352 484.61 175.48 484.306 175.736C484.018 175.992 483.874 176.368 483.874 176.864C483.874 177.376 484.018 177.76 484.306 178.016C484.61 178.272 485.122 178.4 485.842 178.4H488.482ZM494.306 175.472V172.664H505.754V175.472H501.722V185H498.362V175.472H494.306ZM520.109 185H516.749V180.08H511.613V185H508.253V172.664H511.613V177.272H516.749V172.664H520.109V185ZM529.339 172.352C531.291 172.352 532.843 172.944 533.995 174.128C535.147 175.312 535.723 176.88 535.723 178.832C535.723 180.784 535.147 182.352 533.995 183.536C532.843 184.72 531.291 185.312 529.339 185.312C527.403 185.312 525.851 184.72 524.683 183.536C523.531 182.336 522.955 180.768 522.955 178.832C522.955 176.896 523.531 175.336 524.683 174.152C525.851 172.952 527.403 172.352 529.339 172.352ZM529.339 182.528C530.347 182.528 531.099 182.184 531.595 181.496C532.107 180.792 532.363 179.904 532.363 178.832C532.363 177.776 532.107 176.904 531.595 176.216C531.099 175.512 530.347 175.16 529.339 175.16C528.347 175.16 527.595 175.512 527.083 176.216C526.571 176.904 526.315 177.776 526.315 178.832C526.315 179.904 526.571 180.792 527.083 181.496C527.595 182.184 528.347 182.528 529.339 182.528ZM56.536 217H53.176V207.472H48.136V217H44.776V204.664H56.536V217ZM65.7687 204.352C67.7207 204.352 69.2727 204.944 70.4247 206.128C71.5767 207.312 72.1527 208.88 72.1527 210.832C72.1527 212.784 71.5767 214.352 70.4247 215.536C69.2727 216.72 67.7207 217.312 65.7687 217.312C63.8327 217.312 62.2807 216.72 61.1127 215.536C59.9607 214.336 59.3847 212.768 59.3847 210.832C59.3847 208.896 59.9607 207.336 61.1127 206.152C62.2807 204.952 63.8327 204.352 65.7687 204.352ZM65.7687 214.528C66.7767 214.528 67.5287 214.184 68.0247 213.496C68.5367 212.792 68.7927 211.904 68.7927 210.832C68.7927 209.776 68.5367 208.904 68.0247 208.216C67.5287 207.512 66.7767 207.16 65.7687 207.16C64.7767 207.16 64.0247 207.512 63.5127 208.216C63.0007 208.904 62.7447 209.776 62.7447 210.832C62.7447 211.904 63.0007 212.792 63.5127 213.496C64.0247 214.184 64.7767 214.528 65.7687 214.528ZM82.0424 208.288C82.0424 207.488 81.3384 207.088 79.9304 207.088C78.5864 207.088 77.8184 207.536 77.6264 208.432H74.5544C74.6824 207.088 75.2504 206.072 76.2584 205.384C77.2664 204.696 78.5704 204.352 80.1704 204.352C81.7704 204.352 83.0344 204.688 83.9624 205.36C84.9064 206.016 85.3784 206.864 85.3784 207.904C85.3784 209.104 84.9624 209.888 84.1304 210.256V210.88C85.2024 211.232 85.7384 212.08 85.7384 213.424C85.7384 214.56 85.2264 215.496 84.2024 216.232C83.1784 216.952 81.8344 217.312 80.1704 217.312C78.2824 217.312 76.8344 216.952 75.8264 216.232C74.8344 215.496 74.2664 214.464 74.1224 213.136H77.2184C77.4904 214.096 78.4184 214.576 80.0024 214.576C81.5864 214.576 82.3784 214.136 82.3784 213.256C82.3784 212.824 82.2184 212.512 81.8984 212.32C81.5944 212.128 81.0904 212.032 80.3864 212.032H78.3704V209.464H80.2664C81.4504 209.464 82.0424 209.072 82.0424 208.288ZM91.9619 217H88.6979V204.664H91.9619V211.624H92.5379L97.3139 204.664H100.626V217H97.3619V210.064H96.7859L91.9619 217ZM103.111 207.472V204.664H114.559V207.472H110.527V217H107.167V207.472H103.111ZM120.321 217H117.057V204.664H120.321V211.624H120.897L125.673 204.664H128.985V217H125.721V210.064H125.145L120.321 217ZM142.054 210.16V210.784C142.678 210.944 143.182 211.264 143.566 211.744C143.95 212.224 144.142 212.84 144.142 213.592C144.142 215.864 142.686 217 139.774 217H132.526V204.664H139.582C140.814 204.664 141.766 204.944 142.438 205.504C143.126 206.048 143.47 206.808 143.47 207.784C143.47 208.904 142.998 209.696 142.054 210.16ZM135.814 214.576H139.006C140.174 214.576 140.758 214.12 140.758 213.208C140.758 212.28 140.174 211.816 139.006 211.816H135.814V214.576ZM135.814 207.088V209.464H138.67C139.63 209.464 140.11 209.072 140.11 208.288C140.11 207.488 139.63 207.088 138.67 207.088H135.814ZM158.913 217H155.553V212.08H150.417V217H147.057V204.664H150.417V209.272H155.553V204.664H158.913V217ZM162.456 204.664H165.816V208.264H168.6C170.184 208.264 171.4 208.648 172.248 209.416C173.112 210.168 173.544 211.224 173.544 212.584C173.544 213.96 173.112 215.04 172.248 215.824C171.4 216.608 170.184 217 168.6 217H162.456V204.664ZM165.816 210.904V214.216H168.12C168.888 214.216 169.424 214.08 169.728 213.808C170.032 213.52 170.184 213.104 170.184 212.56C170.184 212 170.032 211.584 169.728 211.312C169.424 211.04 168.888 210.904 168.12 210.904H165.816ZM175.392 204.664H178.752V217H175.392V204.664ZM182.307 217V204.664H186.771L189.267 209.848H189.891L192.387 204.664H196.827V217H193.563V209.128H192.939L190.971 213.112H188.163L186.195 209.128H185.571V217H182.307Z" fill="#111827"/>
<path d="M52.504 261.864L58.648 279H56.944L55 273.456H47.104L45.16 279H43.504L49.624 261.864H52.504ZM50.584 263.544L47.608 272.016H54.496L51.52 263.544H50.584ZM71.5324 279H70.0204V273.48H62.7004V279H61.1884V267H62.7004V272.136H70.0204V267H71.5324V279ZM85.9465 279H84.4345V273.48H77.1145V279H75.6025V267H77.1145V272.136H84.4345V267H85.9465V279ZM97.7686 279V277.656H97.2886C96.9046 278.152 96.3686 278.552 95.6806 278.856C95.0086 279.16 94.2486 279.312 93.4006 279.312C92.0406 279.312 90.9766 278.936 90.2086 278.184C89.4406 277.432 89.0566 276.52 89.0566 275.448C89.0566 274.36 89.4166 273.432 90.1366 272.664C90.8726 271.896 92.0086 271.512 93.5446 271.512H97.7206V270.768C97.7206 269.952 97.4566 269.296 96.9286 268.8C96.4006 268.288 95.5846 268.032 94.4806 268.032C93.5046 268.032 92.7526 268.216 92.2246 268.584C91.6966 268.936 91.4086 269.44 91.3606 270.096H89.8486C89.9446 269.024 90.4086 268.192 91.2406 267.6C92.0726 266.992 93.1526 266.688 94.4806 266.688C95.9366 266.688 97.0886 267.04 97.9366 267.744C98.8006 268.448 99.2326 269.424 99.2326 270.672V279H97.7686ZM93.6166 277.968C94.7526 277.968 95.7206 277.616 96.5206 276.912C97.3206 276.192 97.7206 275.288 97.7206 274.2V272.784H93.9526C92.8646 272.784 92.0246 273.016 91.4326 273.48C90.8566 273.928 90.5686 274.544 90.5686 275.328C90.5686 276.16 90.8406 276.808 91.3846 277.272C91.9446 277.736 92.6886 277.968 93.6166 277.968Z" fill="#6B7280"/>
<path d="M566.539 267.589C566.539 272.232 565.834 276.22 564.426 279.554C563.018 283.006 561.198 285.804 558.968 287.946C556.738 290.208 554.215 291.815 551.398 292.768C548.464 293.839 545.588 294.375 542.771 294.375L542.771 288.125C545.823 288.125 548.698 287.054 551.398 284.911C553.98 282.887 555.506 280.089 555.975 276.518C555.623 276.637 555.212 276.756 554.743 276.875C554.391 276.994 553.98 277.113 553.511 277.232C552.924 277.351 552.278 277.411 551.574 277.411C548.053 277.411 545.119 276.042 542.771 273.304C540.424 270.685 539.25 267.589 539.25 264.018C539.25 260.446 540.482 257.292 542.947 254.554C545.295 251.935 548.464 250.625 552.454 250.625C556.914 250.625 560.377 252.292 562.842 255.625C565.306 259.077 566.539 263.065 566.539 267.589ZM601.75 267.589C601.75 272.232 601.046 276.22 599.637 279.554C598.229 283.006 596.41 285.804 594.18 287.946C591.95 290.208 589.426 291.815 586.609 292.768C583.675 293.839 580.799 294.375 577.982 294.375L577.982 288.125C581.034 288.125 583.91 287.054 586.609 284.911C589.191 282.887 590.717 280.089 591.187 276.518C590.835 276.637 590.424 276.756 589.954 276.875C589.602 276.994 589.191 277.113 588.722 277.232C588.135 277.351 587.489 277.411 586.785 277.411C583.264 277.411 580.33 276.042 577.982 273.304C575.635 270.685 574.461 267.589 574.461 264.018C574.461 260.446 575.694 257.292 578.158 254.554C580.506 251.935 583.675 250.625 587.665 250.625C592.126 250.625 595.588 252.292 598.053 255.625C600.518 259.077 601.75 263.065 601.75 267.589Z" fill="#EDE9FE"/>
</svg>
